<ttFont>
    <TTGlyph name="A" xMin="50" yMin="0" xMax="865" yMax="758">
      <contour>
        <pt x="50" y="0" on="1"/>
        <pt x="50" y="37" on="1"/>
        <pt x="139" y="59" on="1"/>
        <pt x="442" y="758" on="1"/>
        <pt x="493" y="758" on="1"/>
        <pt x="781" y="59" on="1"/>
        <pt x="865" y="37" on="1"/>
        <pt x="865" y="0" on="1"/>
        <pt x="581" y="0" on="1"/>
        <pt x="581" y="37" on="1"/>
        <pt x="668" y="58" on="1"/>
        <pt x="589" y="252" on="1"/>
        <pt x="287" y="252" on="1"/>
        <pt x="212" y="58" on="1"/>
        <pt x="302" y="37" on="1"/>
        <pt x="302" y="0" on="1"/>
      </contour>
      <contour>
        <pt x="301" y="290" on="1"/>
        <pt x="575" y="290" on="1"/>
        <pt x="435" y="641" on="1"/>
      </contour>
    </TTGlyph>
    <TTGlyph name="AE" xMin="50" yMin="0" xMax="979" yMax="750">
      <contour>
        <pt x="50" y="0" on="1"/>
        <pt x="50" y="37" on="1"/>
        <pt x="139" y="59" on="1"/>
        <pt x="442" y="750" on="1"/>
        <pt x="913" y="750" on="1"/>
        <pt x="913" y="571" on="1"/>
        <pt x="861" y="571" on="1"/>
        <pt x="822" y="707" on="1"/>
        <pt x="510" y="707" on="1"/>
        <pt x="632" y="408" on="1"/>
        <pt x="797" y="408" on="1"/>
        <pt x="824" y="495" on="1"/>
        <pt x="861" y="495" on="1"/>
        <pt x="861" y="288" on="1"/>
        <pt x="824" y="288" on="1"/>
        <pt x="797" y="364" on="1"/>
        <pt x="655" y="364" on="1"/>
        <pt x="785" y="43" on="1"/>
        <pt x="887" y="43" on="1"/>
        <pt x="926" y="178" on="1"/>
        <pt x="979" y="178" on="1"/>
        <pt x="979" y="0" on="1"/>
        <pt x="581" y="0" on="1"/>
        <pt x="581" y="37" on="1"/>
        <pt x="668" y="58" on="1"/>
        <pt x="589" y="252" on="1"/>
        <pt x="287" y="252" on="1"/>
        <pt x="212" y="58" on="1"/>
        <pt x="302" y="37" on="1"/>
        <pt x="302" y="0" on="1"/>
      </contour>
      <contour>
        <pt x="301" y="290" on="1"/>
        <pt x="575" y="290" on="1"/>
        <pt x="435" y="641" on="1"/>
      </contour>
    </TTGlyph>
    <TTGlyph name="AEacute" xMin="50" yMin="0" xMax="979" yMax="947">
      <contour>
        <pt x="50" y="0" on="1"/>
        <pt x="50" y="37" on="1"/>
        <pt x="139" y="59" on="1"/>
        <pt x="442" y="750" on="1"/>
        <pt x="913" y="750" on="1"/>
        <pt x="913" y="571" on="1"/>
        <pt x="861" y="571" on="1"/>
        <pt x="822" y="707" on="1"/>
        <pt x="510" y="707" on="1"/>
        <pt x="632" y="408" on="1"/>
        <pt x="797" y="408" on="1"/>
        <pt x="824" y="495" on="1"/>
        <pt x="861" y="495" on="1"/>
        <pt x="861" y="288" on="1"/>
        <pt x="824" y="288" on="1"/>
        <pt x="797" y="364" on="1"/>
        <pt x="655" y="364" on="1"/>
        <pt x="785" y="43" on="1"/>
        <pt x="887" y="43" on="1"/>
        <pt x="926" y="178" on="1"/>
        <pt x="979" y="178" on="1"/>
        <pt x="979" y="0" on="1"/>
        <pt x="581" y="0" on="1"/>
        <pt x="581" y="37" on="1"/>
        <pt x="668" y="58" on="1"/>
        <pt x="589" y="252" on="1"/>
        <pt x="287" y="252" on="1"/>
        <pt x="212" y="58" on="1"/>
        <pt x="302" y="37" on="1"/>
        <pt x="302" y="0" on="1"/>
      </contour>
      <contour>
        <pt x="301" y="290" on="1"/>
        <pt x="575" y="290" on="1"/>
        <pt x="435" y="641" on="1"/>
      </contour>
      <contour>
        <pt x="547" y="801" on="1"/>
        <pt x="515" y="801" on="1"/>
        <pt x="647" y="947" on="1"/>
        <pt x="781" y="947" on="1"/>
      </contour>
    </TTGlyph>
    <TTGlyph name="Aacute" xMin="50" yMin="0" xMax="865" yMax="947">
      <contour>
        <pt x="50" y="0" on="1"/>
        <pt x="50" y="37" on="1"/>
        <pt x="139" y="59" on="1"/>
        <pt x="442" y="758" on="1"/>
        <pt x="493" y="758" on="1"/>
        <pt x="781" y="59" on="1"/>
        <pt x="865" y="37" on="1"/>
        <pt x="865" y="0" on="1"/>
        <pt x="581" y="0" on="1"/>
        <pt x="581" y="37" on="1"/>
        <pt x="668" y="58" on="1"/>
        <pt x="589" y="252" on="1"/>
        <pt x="287" y="252" on="1"/>
        <pt x="212" y="58" on="1"/>
        <pt x="302" y="37" on="1"/>
        <pt x="302" y="0" on="1"/>
      </contour>
      <contour>
        <pt x="301" y="290" on="1"/>
        <pt x="575" y="290" on="1"/>
        <pt x="435" y="641" on="1"/>
      </contour>
      <contour>
        <pt x="352" y="801" on="1"/>
        <pt x="320" y="801" on="1"/>
        <pt x="452" y="947" on="1"/>
        <pt x="586" y="947" on="1"/>
      </contour>
    </TTGlyph>
    <TTGlyph name="Abreve" xMin="50" yMin="0" xMax="865" yMax="957">
      <contour>
        <pt x="50" y="0" on="1"/>
        <pt x="50" y="37" on="1"/>
        <pt x="139" y="59" on="1"/>
        <pt x="442" y="758" on="1"/>
        <pt x="493" y="758" on="1"/>
        <pt x="781" y="59" on="1"/>
        <pt x="865" y="37" on="1"/>
        <pt x="865" y="0" on="1"/>
        <pt x="581" y="0" on="1"/>
        <pt x="581" y="37" on="1"/>
        <pt x="668" y="58" on="1"/>
        <pt x="589" y="252" on="1"/>
        <pt x="287" y="252" on="1"/>
        <pt x="212" y="58" on="1"/>
        <pt x="302" y="37" on="1"/>
        <pt x="302" y="0" on="1"/>
      </contour>
      <contour>
        <pt x="301" y="290" on="1"/>
        <pt x="575" y="290" on="1"/>
        <pt x="435" y="641" on="1"/>
      </contour>
      <contour>
        <pt x="596" y="957" on="1"/>
        <pt x="626" y="957" on="1"/>
        <pt x="626" y="883" on="0"/>
        <pt x="526" y="801" on="0"/>
        <pt x="388" y="801" on="0"/>
        <pt x="287" y="883" on="0"/>
        <pt x="287" y="957" on="1"/>
        <pt x="319" y="957" on="1"/>
        <pt x="319" y="917" on="0"/>
        <pt x="402" y="871" on="0"/>
        <pt x="513" y="871" on="0"/>
        <pt x="596" y="917" on="0"/>
      </contour>
    </TTGlyph>
    <TTGlyph name="Acircumflex" xMin="50" yMin="0" xMax="865" yMax="965">
      <contour>
        <pt x="50" y="0" on="1"/>
        <pt x="50" y="37" on="1"/>
        <pt x="139" y="59" on="1"/>
        <pt x="442" y="758" on="1"/>
        <pt x="493" y="758" on="1"/>
        <pt x="781" y="59" on="1"/>
        <pt x="865" y="37" on="1"/>
        <pt x="865" y="0" on="1"/>
        <pt x="581" y="0" on="1"/>
        <pt x="581" y="37" on="1"/>
        <pt x="668" y="58" on="1"/>
        <pt x="589" y="252" on="1"/>
        <pt x="287" y="252" on="1"/>
        <pt x="212" y="58" on="1"/>
        <pt x="302" y="37" on="1"/>
        <pt x="302" y="0" on="1"/>
      </contour>
      <contour>
        <pt x="301" y="290" on="1"/>
        <pt x="575" y="290" on="1"/>
        <pt x="435" y="641" on="1"/>
      </contour>
      <contour>
        <pt x="463" y="965" on="1"/>
        <pt x="618" y="801" on="1"/>
        <pt x="578" y="801" on="1"/>
        <pt x="446" y="876" on="1"/>
        <pt x="322" y="801" on="1"/>
        <pt x="283" y="801" on="1"/>
        <pt x="429" y="965" on="1"/>
      </contour>
    </TTGlyph>
    <TTGlyph name="Adieresis" xMin="50" yMin="0" xMax="865" yMax="945">
      <contour>
        <pt x="50" y="0" on="1"/>
        <pt x="50" y="37" on="1"/>
        <pt x="139" y="59" on="1"/>
        <pt x="442" y="758" on="1"/>
        <pt x="493" y="758" on="1"/>
        <pt x="781" y="59" on="1"/>
        <pt x="865" y="37" on="1"/>
        <pt x="865" y="0" on="1"/>
        <pt x="581" y="0" on="1"/>
        <pt x="581" y="37" on="1"/>
        <pt x="668" y="58" on="1"/>
        <pt x="589" y="252" on="1"/>
        <pt x="287" y="252" on="1"/>
        <pt x="212" y="58" on="1"/>
        <pt x="302" y="37" on="1"/>
        <pt x="302" y="0" on="1"/>
      </contour>
      <contour>
        <pt x="301" y="290" on="1"/>
        <pt x="575" y="290" on="1"/>
        <pt x="435" y="641" on="1"/>
      </contour>
      <contour>
        <pt x="274" y="914" on="0"/>
        <pt x="309" y="945" on="0"/>
        <pt x="368" y="945" on="0"/>
        <pt x="404" y="914" on="0"/>
        <pt x="404" y="861" on="0"/>
        <pt x="370" y="829" on="0"/>
        <pt x="309" y="829" on="0"/>
        <pt x="274" y="860" on="0"/>
      </contour>
      <contour>
        <pt x="497" y="914" on="0"/>
        <pt x="532" y="945" on="0"/>
        <pt x="591" y="945" on="0"/>
        <pt x="627" y="914" on="0"/>
        <pt x="627" y="861" on="0"/>
        <pt x="593" y="829" on="0"/>
        <pt x="532" y="829" on="0"/>
        <pt x="497" y="860" on="0"/>
      </contour>
    </TTGlyph>
    <TTGlyph name="Agrave" xMin="50" yMin="0" xMax="865" yMax="947">
      <contour>
        <pt x="50" y="0" on="1"/>
        <pt x="50" y="37" on="1"/>
        <pt x="139" y="59" on="1"/>
        <pt x="442" y="758" on="1"/>
        <pt x="493" y="758" on="1"/>
        <pt x="781" y="59" on="1"/>
        <pt x="865" y="37" on="1"/>
        <pt x="865" y="0" on="1"/>
        <pt x="581" y="0" on="1"/>
        <pt x="581" y="37" on="1"/>
        <pt x="668" y="58" on="1"/>
        <pt x="589" y="252" on="1"/>
        <pt x="287" y="252" on="1"/>
        <pt x="212" y="58" on="1"/>
        <pt x="302" y="37" on="1"/>
        <pt x="302" y="0" on="1"/>
      </contour>
      <contour>
        <pt x="301" y="290" on="1"/>
        <pt x="575" y="290" on="1"/>
        <pt x="435" y="641" on="1"/>
      </contour>
      <contour>
        <pt x="561" y="802" on="1"/>
        <pt x="530" y="802" on="1"/>
        <pt x="295" y="947" on="1"/>
        <pt x="429" y="947" on="1"/>
      </contour>
    </TTGlyph>
    <TTGlyph name="Amacron" xMin="50" yMin="0" xMax="865" yMax="920">
      <contour>
        <pt x="50" y="0" on="1"/>
        <pt x="50" y="37" on="1"/>
        <pt x="139" y="59" on="1"/>
        <pt x="442" y="758" on="1"/>
        <pt x="493" y="758" on="1"/>
        <pt x="781" y="59" on="1"/>
        <pt x="865" y="37" on="1"/>
        <pt x="865" y="0" on="1"/>
        <pt x="581" y="0" on="1"/>
        <pt x="581" y="37" on="1"/>
        <pt x="668" y="58" on="1"/>
        <pt x="589" y="252" on="1"/>
        <pt x="287" y="252" on="1"/>
        <pt x="212" y="58" on="1"/>
        <pt x="302" y="37" on="1"/>
        <pt x="302" y="0" on="1"/>
      </contour>
      <contour>
        <pt x="301" y="290" on="1"/>
        <pt x="575" y="290" on="1"/>
        <pt x="435" y="641" on="1"/>
      </contour>
      <contour>
        <pt x="310" y="920" on="1"/>
        <pt x="599" y="920" on="1"/>
        <pt x="599" y="846" on="1"/>
        <pt x="310" y="846" on="1"/>
      </contour>
    </TTGlyph>
    <TTGlyph name="Aogonek" xMin="50" yMin="-218" xMax="865" yMax="758">
      <contour>
        <pt x="697" y="-98" on="1"/>
        <pt x="697" y="-67" on="0"/>
        <pt x="735" y="-14" on="0"/>
        <pt x="771" y="0" on="1"/>
        <pt x="581" y="0" on="1"/>
        <pt x="581" y="37" on="1"/>
        <pt x="668" y="58" on="1"/>
        <pt x="589" y="252" on="1"/>
        <pt x="287" y="252" on="1"/>
        <pt x="212" y="58" on="1"/>
        <pt x="302" y="37" on="1"/>
        <pt x="302" y="0" on="1"/>
        <pt x="50" y="0" on="1"/>
        <pt x="50" y="37" on="1"/>
        <pt x="139" y="59" on="1"/>
        <pt x="442" y="758" on="1"/>
        <pt x="493" y="758" on="1"/>
        <pt x="781" y="59" on="1"/>
        <pt x="865" y="37" on="1"/>
        <pt x="865" y="0" on="1"/>
        <pt x="817" y="0" on="1"/>
        <pt x="768" y="-32" on="0"/>
        <pt x="768" y="-96" on="1"/>
        <pt x="768" y="-134" on="0"/>
        <pt x="814" y="-185" on="0"/>
        <pt x="859" y="-186" on="1"/>
        <pt x="865" y="-218" on="1"/>
        <pt x="786" y="-218" on="0"/>
        <pt x="697" y="-146" on="0"/>
      </contour>
      <contour>
        <pt x="301" y="290" on="1"/>
        <pt x="575" y="290" on="1"/>
        <pt x="435" y="641" on="1"/>
      </contour>
    </TTGlyph>
    <TTGlyph name="Aring" xMin="50" yMin="0" xMax="865" yMax="1062">
      <contour>
        <pt x="50" y="0" on="1"/>
        <pt x="50" y="37" on="1"/>
        <pt x="139" y="59" on="1"/>
        <pt x="442" y="758" on="1"/>
        <pt x="493" y="758" on="1"/>
        <pt x="781" y="59" on="1"/>
        <pt x="865" y="37" on="1"/>
        <pt x="865" y="0" on="1"/>
        <pt x="581" y="0" on="1"/>
        <pt x="581" y="37" on="1"/>
        <pt x="668" y="58" on="1"/>
        <pt x="589" y="252" on="1"/>
        <pt x="287" y="252" on="1"/>
        <pt x="212" y="58" on="1"/>
        <pt x="302" y="37" on="1"/>
        <pt x="302" y="0" on="1"/>
      </contour>
      <contour>
        <pt x="301" y="290" on="1"/>
        <pt x="575" y="290" on="1"/>
        <pt x="435" y="641" on="1"/>
      </contour>
      <contour>
        <pt x="536" y="981" on="0"/>
        <pt x="499" y="1032" on="0"/>
        <pt x="436" y="1032" on="0"/>
        <pt x="400" y="981" on="0"/>
        <pt x="400" y="911" on="0"/>
        <pt x="435" y="861" on="0"/>
        <pt x="499" y="861" on="0"/>
        <pt x="536" y="911" on="0"/>
      </contour>
      <contour>
        <pt x="349" y="993" on="0"/>
        <pt x="412" y="1062" on="0"/>
        <pt x="524" y="1062" on="0"/>
        <pt x="584" y="994" on="0"/>
        <pt x="584" y="901" on="0"/>
        <pt x="521" y="831" on="0"/>
        <pt x="411" y="831" on="0"/>
        <pt x="349" y="899" on="0"/>
      </contour>
    </TTGlyph>
    <TTGlyph name="Atilde" xMin="50" yMin="0" xMax="865" yMax="933">
      <contour>
        <pt x="50" y="0" on="1"/>
        <pt x="50" y="37" on="1"/>
        <pt x="139" y="59" on="1"/>
        <pt x="442" y="758" on="1"/>
        <pt x="493" y="758" on="1"/>
        <pt x="781" y="59" on="1"/>
        <pt x="865" y="37" on="1"/>
        <pt x="865" y="0" on="1"/>
        <pt x="581" y="0" on="1"/>
        <pt x="581" y="37" on="1"/>
        <pt x="668" y="58" on="1"/>
        <pt x="589" y="252" on="1"/>
        <pt x="287" y="252" on="1"/>
        <pt x="212" y="58" on="1"/>
        <pt x="302" y="37" on="1"/>
        <pt x="302" y="0" on="1"/>
      </contour>
      <contour>
        <pt x="301" y="290" on="1"/>
        <pt x="575" y="290" on="1"/>
        <pt x="435" y="641" on="1"/>
      </contour>
      <contour>
        <pt x="319" y="896" on="0"/>
        <pt x="368" y="933" on="0"/>
        <pt x="437" y="933" on="0"/>
        <pt x="528" y="869" on="0"/>
        <pt x="550" y="869" on="1"/>
        <pt x="587" y="869" on="0"/>
        <pt x="625" y="925" on="1"/>
        <pt x="650" y="907" on="1"/>
        <pt x="586" y="801" on="0"/>
        <pt x="529" y="801" on="1"/>
        <pt x="504" y="801" on="0"/>
        <pt x="403" y="865" on="0"/>
        <pt x="336" y="865" on="0"/>
        <pt x="291" y="807" on="1"/>
        <pt x="269" y="825" on="1"/>
        <pt x="284" y="846" on="1"/>
      </contour>
    </TTGlyph>
    <TTGlyph name="B" xMin="90" yMin="0" xMax="686" yMax="750">
      <contour>
        <pt x="90" y="750" on="1"/>
        <pt x="387" y="750" on="1"/>
        <pt x="666" y="750" on="0"/>
        <pt x="666" y="567" on="1"/>
        <pt x="666" y="493" on="0"/>
        <pt x="572" y="405" on="0"/>
        <pt x="469" y="390" on="1"/>
        <pt x="686" y="371" on="0"/>
        <pt x="686" y="199" on="1"/>
        <pt x="686" y="119" on="0"/>
        <pt x="631" y="65" on="1"/>
        <pt x="591" y="25" on="0"/>
        <pt x="479" y="0" on="0"/>
        <pt x="370" y="0" on="1"/>
        <pt x="90" y="0" on="1"/>
        <pt x="90" y="37" on="1"/>
        <pt x="186" y="59" on="1"/>
        <pt x="186" y="690" on="1"/>
        <pt x="90" y="713" on="1"/>
      </contour>
      <contour>
        <pt x="290" y="40" on="1"/>
        <pt x="369" y="40" on="1"/>
        <pt x="476" y="40" on="0"/>
        <pt x="572" y="116" on="0"/>
        <pt x="572" y="286" on="0"/>
        <pt x="479" y="365" on="0"/>
        <pt x="378" y="365" on="1"/>
        <pt x="290" y="365" on="1"/>
      </contour>
      <contour>
        <pt x="290" y="407" on="1"/>
        <pt x="370" y="407" on="1"/>
        <pt x="554" y="407" on="0"/>
        <pt x="554" y="565" on="1"/>
        <pt x="554" y="655" on="0"/>
        <pt x="492" y="684" on="1"/>
        <pt x="439" y="710" on="0"/>
        <pt x="345" y="710" on="1"/>
        <pt x="290" y="710" on="1"/>
      </contour>
    </TTGlyph>
    <TTGlyph name="C" xMin="60" yMin="-21" xMax="678" yMax="760">
      <contour>
        <pt x="678" y="241" on="1"/>
        <pt x="678" y="72" on="1"/>
        <pt x="589" y="-21" on="0"/>
        <pt x="271" y="-21" on="0"/>
        <pt x="60" y="192" on="0"/>
        <pt x="60" y="549" on="0"/>
        <pt x="274" y="760" on="0"/>
        <pt x="591" y="760" on="0"/>
        <pt x="678" y="677" on="1"/>
        <pt x="678" y="515" on="1"/>
        <pt x="626" y="515" on="1"/>
        <pt x="577" y="674" on="1"/>
        <pt x="522" y="723" on="0"/>
        <pt x="432" y="723" on="1"/>
        <pt x="318" y="723" on="0"/>
        <pt x="176" y="542" on="0"/>
        <pt x="176" y="209" on="0"/>
        <pt x="313" y="19" on="0"/>
        <pt x="428" y="19" on="1"/>
        <pt x="521" y="19" on="0"/>
        <pt x="581" y="75" on="1"/>
        <pt x="631" y="241" on="1"/>
      </contour>
    </TTGlyph>
    <TTGlyph name="Cacute" xMin="60" yMin="-21" xMax="678" yMax="947">
      <contour>
        <pt x="678" y="241" on="1"/>
        <pt x="678" y="72" on="1"/>
        <pt x="589" y="-21" on="0"/>
        <pt x="271" y="-21" on="0"/>
        <pt x="60" y="192" on="0"/>
        <pt x="60" y="549" on="0"/>
        <pt x="274" y="760" on="0"/>
        <pt x="591" y="760" on="0"/>
        <pt x="678" y="677" on="1"/>
        <pt x="678" y="515" on="1"/>
        <pt x="626" y="515" on="1"/>
        <pt x="577" y="674" on="1"/>
        <pt x="522" y="723" on="0"/>
        <pt x="432" y="723" on="1"/>
        <pt x="318" y="723" on="0"/>
        <pt x="176" y="542" on="0"/>
        <pt x="176" y="209" on="0"/>
        <pt x="313" y="19" on="0"/>
        <pt x="428" y="19" on="1"/>
        <pt x="521" y="19" on="0"/>
        <pt x="581" y="75" on="1"/>
        <pt x="631" y="241" on="1"/>
      </contour>
      <contour>
        <pt x="319" y="801" on="1"/>
        <pt x="287" y="801" on="1"/>
        <pt x="419" y="947" on="1"/>
        <pt x="553" y="947" on="1"/>
      </contour>
    </TTGlyph>
    <TTGlyph name="Ccaron" xMin="60" yMin="-21" xMax="678" yMax="964">
      <contour>
        <pt x="678" y="241" on="1"/>
        <pt x="678" y="72" on="1"/>
        <pt x="589" y="-21" on="0"/>
        <pt x="271" y="-21" on="0"/>
        <pt x="60" y="192" on="0"/>
        <pt x="60" y="549" on="0"/>
        <pt x="274" y="760" on="0"/>
        <pt x="591" y="760" on="0"/>
        <pt x="678" y="677" on="1"/>
        <pt x="678" y="515" on="1"/>
        <pt x="626" y="515" on="1"/>
        <pt x="577" y="674" on="1"/>
        <pt x="522" y="723" on="0"/>
        <pt x="432" y="723" on="1"/>
        <pt x="318" y="723" on="0"/>
        <pt x="176" y="542" on="0"/>
        <pt x="176" y="209" on="0"/>
        <pt x="313" y="19" on="0"/>
        <pt x="428" y="19" on="1"/>
        <pt x="521" y="19" on="0"/>
        <pt x="581" y="75" on="1"/>
        <pt x="631" y="241" on="1"/>
      </contour>
      <contour>
        <pt x="404" y="801" on="1"/>
        <pt x="252" y="964" on="1"/>
        <pt x="291" y="964" on="1"/>
        <pt x="421" y="891" on="1"/>
        <pt x="547" y="964" on="1"/>
        <pt x="587" y="964" on="1"/>
        <pt x="437" y="801" on="1"/>
      </contour>
    </TTGlyph>
    <TTGlyph name="Ccedilla" xMin="60" yMin="-236" xMax="678" yMax="760">
      <contour>
        <pt x="433" y="-21" on="1"/>
        <pt x="422" y="-20" on="1"/>
        <pt x="422" y="-43" on="1"/>
        <pt x="457" y="-45" on="0"/>
        <pt x="504" y="-83" on="0"/>
        <pt x="504" y="-118" on="1"/>
        <pt x="504" y="-201" on="0"/>
        <pt x="343" y="-236" on="1"/>
        <pt x="333" y="-212" on="1"/>
        <pt x="337" y="-210" on="0"/>
        <pt x="377" y="-191" on="0"/>
        <pt x="396" y="-179" on="0"/>
        <pt x="410" y="-168" on="1"/>
        <pt x="438" y="-149" on="0"/>
        <pt x="438" y="-118" on="1"/>
        <pt x="438" y="-82" on="0"/>
        <pt x="380" y="-72" on="1"/>
        <pt x="380" y="-17" on="1"/>
        <pt x="239" y="-1" on="0"/>
        <pt x="60" y="208" on="0"/>
        <pt x="60" y="549" on="0"/>
        <pt x="274" y="760" on="0"/>
        <pt x="591" y="760" on="0"/>
        <pt x="678" y="677" on="1"/>
        <pt x="678" y="515" on="1"/>
        <pt x="626" y="515" on="1"/>
        <pt x="577" y="674" on="1"/>
        <pt x="522" y="723" on="0"/>
        <pt x="432" y="723" on="1"/>
        <pt x="318" y="723" on="0"/>
        <pt x="176" y="542" on="0"/>
        <pt x="176" y="209" on="0"/>
        <pt x="313" y="19" on="0"/>
        <pt x="428" y="19" on="1"/>
        <pt x="521" y="19" on="0"/>
        <pt x="581" y="75" on="1"/>
        <pt x="631" y="241" on="1"/>
        <pt x="678" y="241" on="1"/>
        <pt x="678" y="72" on="1"/>
        <pt x="589" y="-21" on="0"/>
      </contour>
    </TTGlyph>
    <TTGlyph name="Ccircumflex" xMin="60" yMin="-21" xMax="678" yMax="965">
      <contour>
        <pt x="678" y="241" on="1"/>
        <pt x="678" y="72" on="1"/>
        <pt x="589" y="-21" on="0"/>
        <pt x="271" y="-21" on="0"/>
        <pt x="60" y="192" on="0"/>
        <pt x="60" y="549" on="0"/>
        <pt x="274" y="760" on="0"/>
        <pt x="591" y="760" on="0"/>
        <pt x="678" y="677" on="1"/>
        <pt x="678" y="515" on="1"/>
        <pt x="626" y="515" on="1"/>
        <pt x="577" y="674" on="1"/>
        <pt x="522" y="723" on="0"/>
        <pt x="432" y="723" on="1"/>
        <pt x="318" y="723" on="0"/>
        <pt x="176" y="542" on="0"/>
        <pt x="176" y="209" on="0"/>
        <pt x="313" y="19" on="0"/>
        <pt x="428" y="19" on="1"/>
        <pt x="521" y="19" on="0"/>
        <pt x="581" y="75" on="1"/>
        <pt x="631" y="241" on="1"/>
      </contour>
      <contour>
        <pt x="434" y="965" on="1"/>
        <pt x="589" y="801" on="1"/>
        <pt x="549" y="801" on="1"/>
        <pt x="417" y="876" on="1"/>
        <pt x="293" y="801" on="1"/>
        <pt x="254" y="801" on="1"/>
        <pt x="400" y="965" on="1"/>
      </contour>
    </TTGlyph>
    <TTGlyph name="Cdotaccent" xMin="60" yMin="-21" xMax="678" yMax="921">
      <contour>
        <pt x="678" y="241" on="1"/>
        <pt x="678" y="72" on="1"/>
        <pt x="589" y="-21" on="0"/>
        <pt x="271" y="-21" on="0"/>
        <pt x="60" y="192" on="0"/>
        <pt x="60" y="549" on="0"/>
        <pt x="274" y="760" on="0"/>
        <pt x="591" y="760" on="0"/>
        <pt x="678" y="677" on="1"/>
        <pt x="678" y="515" on="1"/>
        <pt x="626" y="515" on="1"/>
        <pt x="577" y="674" on="1"/>
        <pt x="522" y="723" on="0"/>
        <pt x="432" y="723" on="1"/>
        <pt x="318" y="723" on="0"/>
        <pt x="176" y="542" on="0"/>
        <pt x="176" y="209" on="0"/>
        <pt x="313" y="19" on="0"/>
        <pt x="428" y="19" on="1"/>
        <pt x="521" y="19" on="0"/>
        <pt x="581" y="75" on="1"/>
        <pt x="631" y="241" on="1"/>
      </contour>
      <contour>
        <pt x="362" y="890" on="0"/>
        <pt x="397" y="921" on="0"/>
        <pt x="456" y="921" on="0"/>
        <pt x="492" y="890" on="0"/>
        <pt x="492" y="837" on="0"/>
        <pt x="458" y="805" on="0"/>
        <pt x="397" y="805" on="0"/>
        <pt x="362" y="836" on="0"/>
      </contour>
    </TTGlyph>
    <TTGlyph name="D" xMin="90" yMin="0" xMax="796" yMax="750">
      <contour>
        <pt x="90" y="750" on="1"/>
        <pt x="356" y="750" on="1"/>
        <pt x="458" y="750" on="0"/>
        <pt x="612" y="713" on="0"/>
        <pt x="733" y="628" on="0"/>
        <pt x="796" y="478" on="0"/>
        <pt x="796" y="264" on="0"/>
        <pt x="732" y="116" on="0"/>
        <pt x="606" y="35" on="0"/>
        <pt x="447" y="0" on="0"/>
        <pt x="338" y="0" on="1"/>
        <pt x="90" y="0" on="1"/>
        <pt x="90" y="37" on="1"/>
        <pt x="189" y="60" on="1"/>
        <pt x="189" y="689" on="1"/>
        <pt x="90" y="713" on="1"/>
      </contour>
      <contour>
        <pt x="294" y="42" on="1"/>
        <pt x="343" y="42" on="1"/>
        <pt x="516" y="42" on="0"/>
        <pt x="680" y="190" on="0"/>
        <pt x="680" y="551" on="0"/>
        <pt x="526" y="708" on="0"/>
        <pt x="360" y="708" on="1"/>
        <pt x="294" y="708" on="1"/>
      </contour>
    </TTGlyph>
    <TTGlyph name="Dcaron" xMin="90" yMin="0" xMax="796" yMax="964">
      <contour>
        <pt x="90" y="750" on="1"/>
        <pt x="356" y="750" on="1"/>
        <pt x="458" y="750" on="0"/>
        <pt x="612" y="713" on="0"/>
        <pt x="733" y="628" on="0"/>
        <pt x="796" y="478" on="0"/>
        <pt x="796" y="264" on="0"/>
        <pt x="732" y="116" on="0"/>
        <pt x="606" y="35" on="0"/>
        <pt x="447" y="0" on="0"/>
        <pt x="338" y="0" on="1"/>
        <pt x="90" y="0" on="1"/>
        <pt x="90" y="37" on="1"/>
        <pt x="189" y="60" on="1"/>
        <pt x="189" y="689" on="1"/>
        <pt x="90" y="713" on="1"/>
      </contour>
      <contour>
        <pt x="294" y="42" on="1"/>
        <pt x="343" y="42" on="1"/>
        <pt x="516" y="42" on="0"/>
        <pt x="680" y="190" on="0"/>
        <pt x="680" y="551" on="0"/>
        <pt x="526" y="708" on="0"/>
        <pt x="360" y="708" on="1"/>
        <pt x="294" y="708" on="1"/>
      </contour>
      <contour>
        <pt x="405" y="801" on="1"/>
        <pt x="253" y="964" on="1"/>
        <pt x="292" y="964" on="1"/>
        <pt x="422" y="891" on="1"/>
        <pt x="548" y="964" on="1"/>
        <pt x="588" y="964" on="1"/>
        <pt x="438" y="801" on="1"/>
      </contour>
    </TTGlyph>
    <TTGlyph name="Dcroat" xMin="35" yMin="0" xMax="742" yMax="750">
      <contour>
        <pt x="35" y="406" on="1"/>
        <pt x="135" y="406" on="1"/>
        <pt x="135" y="689" on="1"/>
        <pt x="36" y="713" on="1"/>
        <pt x="36" y="750" on="1"/>
        <pt x="302" y="750" on="1"/>
        <pt x="404" y="750" on="0"/>
        <pt x="558" y="713" on="0"/>
        <pt x="679" y="628" on="0"/>
        <pt x="742" y="478" on="0"/>
        <pt x="742" y="264" on="0"/>
        <pt x="678" y="116" on="0"/>
        <pt x="552" y="35" on="0"/>
        <pt x="393" y="0" on="0"/>
        <pt x="284" y="0" on="1"/>
        <pt x="36" y="0" on="1"/>
        <pt x="36" y="37" on="1"/>
        <pt x="135" y="60" on="1"/>
        <pt x="135" y="360" on="1"/>
        <pt x="35" y="360" on="1"/>
      </contour>
      <contour>
        <pt x="240" y="42" on="1"/>
        <pt x="289" y="42" on="1"/>
        <pt x="462" y="42" on="0"/>
        <pt x="626" y="190" on="0"/>
        <pt x="626" y="551" on="0"/>
        <pt x="472" y="708" on="0"/>
        <pt x="306" y="708" on="1"/>
        <pt x="240" y="708" on="1"/>
        <pt x="240" y="406" on="1"/>
        <pt x="440" y="406" on="1"/>
        <pt x="440" y="360" on="1"/>
        <pt x="240" y="360" on="1"/>
      </contour>
    </TTGlyph>
    <TTGlyph name="Delta" xMin="7" yMin="0" xMax="684" yMax="774">
      <contour>
        <pt x="87" y="57" on="1"/>
        <pt x="539" y="57" on="1"/>
        <pt x="326" y="573" on="1"/>
      </contour>
      <contour>
        <pt x="7" y="0" on="1"/>
        <pt x="368" y="774" on="1"/>
        <pt x="684" y="0" on="1"/>
      </contour>
    </TTGlyph>
    <TTGlyph name="E" xMin="90" yMin="0" xMax="660" yMax="750">
      <contour>
        <pt x="90" y="750" on="1"/>
        <pt x="641" y="750" on="1"/>
        <pt x="641" y="571" on="1"/>
        <pt x="589" y="571" on="1"/>
        <pt x="550" y="707" on="1"/>
        <pt x="294" y="707" on="1"/>
        <pt x="294" y="408" on="1"/>
        <pt x="487" y="408" on="1"/>
        <pt x="514" y="495" on="1"/>
        <pt x="551" y="495" on="1"/>
        <pt x="551" y="288" on="1"/>
        <pt x="514" y="288" on="1"/>
        <pt x="487" y="364" on="1"/>
        <pt x="294" y="364" on="1"/>
        <pt x="294" y="43" on="1"/>
        <pt x="568" y="43" on="1"/>
        <pt x="607" y="178" on="1"/>
        <pt x="660" y="178" on="1"/>
        <pt x="660" y="0" on="1"/>
        <pt x="90" y="0" on="1"/>
        <pt x="90" y="37" on="1"/>
        <pt x="189" y="60" on="1"/>
        <pt x="189" y="689" on="1"/>
        <pt x="90" y="713" on="1"/>
      </contour>
    </TTGlyph>
    <TTGlyph name="Eacute" xMin="90" yMin="0" xMax="660" yMax="947">
      <contour>
        <pt x="90" y="750" on="1"/>
        <pt x="641" y="750" on="1"/>
        <pt x="641" y="571" on="1"/>
        <pt x="589" y="571" on="1"/>
        <pt x="550" y="707" on="1"/>
        <pt x="294" y="707" on="1"/>
        <pt x="294" y="408" on="1"/>
        <pt x="487" y="408" on="1"/>
        <pt x="514" y="495" on="1"/>
        <pt x="551" y="495" on="1"/>
        <pt x="551" y="288" on="1"/>
        <pt x="514" y="288" on="1"/>
        <pt x="487" y="364" on="1"/>
        <pt x="294" y="364" on="1"/>
        <pt x="294" y="43" on="1"/>
        <pt x="568" y="43" on="1"/>
        <pt x="607" y="178" on="1"/>
        <pt x="660" y="178" on="1"/>
        <pt x="660" y="0" on="1"/>
        <pt x="90" y="0" on="1"/>
        <pt x="90" y="37" on="1"/>
        <pt x="189" y="60" on="1"/>
        <pt x="189" y="689" on="1"/>
        <pt x="90" y="713" on="1"/>
      </contour>
      <contour>
        <pt x="283" y="801" on="1"/>
        <pt x="251" y="801" on="1"/>
        <pt x="383" y="947" on="1"/>
        <pt x="517" y="947" on="1"/>
      </contour>
    </TTGlyph>
    <TTGlyph name="Ebreve" xMin="90" yMin="0" xMax="660" yMax="957">
      <contour>
        <pt x="90" y="750" on="1"/>
        <pt x="641" y="750" on="1"/>
        <pt x="641" y="571" on="1"/>
        <pt x="589" y="571" on="1"/>
        <pt x="550" y="707" on="1"/>
        <pt x="294" y="707" on="1"/>
        <pt x="294" y="408" on="1"/>
        <pt x="487" y="408" on="1"/>
        <pt x="514" y="495" on="1"/>
        <pt x="551" y="495" on="1"/>
        <pt x="551" y="288" on="1"/>
        <pt x="514" y="288" on="1"/>
        <pt x="487" y="364" on="1"/>
        <pt x="294" y="364" on="1"/>
        <pt x="294" y="43" on="1"/>
        <pt x="568" y="43" on="1"/>
        <pt x="607" y="178" on="1"/>
        <pt x="660" y="178" on="1"/>
        <pt x="660" y="0" on="1"/>
        <pt x="90" y="0" on="1"/>
        <pt x="90" y="37" on="1"/>
        <pt x="189" y="60" on="1"/>
        <pt x="189" y="689" on="1"/>
        <pt x="90" y="713" on="1"/>
      </contour>
      <contour>
        <pt x="550" y="957" on="1"/>
        <pt x="580" y="957" on="1"/>
        <pt x="580" y="883" on="0"/>
        <pt x="480" y="801" on="0"/>
        <pt x="342" y="801" on="0"/>
        <pt x="241" y="883" on="0"/>
        <pt x="241" y="957" on="1"/>
        <pt x="273" y="957" on="1"/>
        <pt x="273" y="917" on="0"/>
        <pt x="356" y="871" on="0"/>
        <pt x="467" y="871" on="0"/>
        <pt x="550" y="917" on="0"/>
      </contour>
    </TTGlyph>
    <TTGlyph name="Ecaron" xMin="90" yMin="0" xMax="660" yMax="964">
      <contour>
        <pt x="90" y="750" on="1"/>
        <pt x="641" y="750" on="1"/>
        <pt x="641" y="571" on="1"/>
        <pt x="589" y="571" on="1"/>
        <pt x="550" y="707" on="1"/>
        <pt x="294" y="707" on="1"/>
        <pt x="294" y="408" on="1"/>
        <pt x="487" y="408" on="1"/>
        <pt x="514" y="495" on="1"/>
        <pt x="551" y="495" on="1"/>
        <pt x="551" y="288" on="1"/>
        <pt x="514" y="288" on="1"/>
        <pt x="487" y="364" on="1"/>
        <pt x="294" y="364" on="1"/>
        <pt x="294" y="43" on="1"/>
        <pt x="568" y="43" on="1"/>
        <pt x="607" y="178" on="1"/>
        <pt x="660" y="178" on="1"/>
        <pt x="660" y="0" on="1"/>
        <pt x="90" y="0" on="1"/>
        <pt x="90" y="37" on="1"/>
        <pt x="189" y="60" on="1"/>
        <pt x="189" y="689" on="1"/>
        <pt x="90" y="713" on="1"/>
      </contour>
      <contour>
        <pt x="388" y="801" on="1"/>
        <pt x="236" y="964" on="1"/>
        <pt x="275" y="964" on="1"/>
        <pt x="405" y="891" on="1"/>
        <pt x="531" y="964" on="1"/>
        <pt x="571" y="964" on="1"/>
        <pt x="421" y="801" on="1"/>
      </contour>
    </TTGlyph>
    <TTGlyph name="Ecircumflex" xMin="90" yMin="0" xMax="660" yMax="965">
      <contour>
        <pt x="90" y="750" on="1"/>
        <pt x="641" y="750" on="1"/>
        <pt x="641" y="571" on="1"/>
        <pt x="589" y="571" on="1"/>
        <pt x="550" y="707" on="1"/>
        <pt x="294" y="707" on="1"/>
        <pt x="294" y="408" on="1"/>
        <pt x="487" y="408" on="1"/>
        <pt x="514" y="495" on="1"/>
        <pt x="551" y="495" on="1"/>
        <pt x="551" y="288" on="1"/>
        <pt x="514" y="288" on="1"/>
        <pt x="487" y="364" on="1"/>
        <pt x="294" y="364" on="1"/>
        <pt x="294" y="43" on="1"/>
        <pt x="568" y="43" on="1"/>
        <pt x="607" y="178" on="1"/>
        <pt x="660" y="178" on="1"/>
        <pt x="660" y="0" on="1"/>
        <pt x="90" y="0" on="1"/>
        <pt x="90" y="37" on="1"/>
        <pt x="189" y="60" on="1"/>
        <pt x="189" y="689" on="1"/>
        <pt x="90" y="713" on="1"/>
      </contour>
      <contour>
        <pt x="442" y="965" on="1"/>
        <pt x="597" y="801" on="1"/>
        <pt x="557" y="801" on="1"/>
        <pt x="425" y="876" on="1"/>
        <pt x="301" y="801" on="1"/>
        <pt x="262" y="801" on="1"/>
        <pt x="408" y="965" on="1"/>
      </contour>
    </TTGlyph>
    <TTGlyph name="Edieresis" xMin="90" yMin="0" xMax="660" yMax="952">
      <contour>
        <pt x="90" y="750" on="1"/>
        <pt x="641" y="750" on="1"/>
        <pt x="641" y="571" on="1"/>
        <pt x="589" y="571" on="1"/>
        <pt x="550" y="707" on="1"/>
        <pt x="294" y="707" on="1"/>
        <pt x="294" y="408" on="1"/>
        <pt x="487" y="408" on="1"/>
        <pt x="514" y="495" on="1"/>
        <pt x="551" y="495" on="1"/>
        <pt x="551" y="288" on="1"/>
        <pt x="514" y="288" on="1"/>
        <pt x="487" y="364" on="1"/>
        <pt x="294" y="364" on="1"/>
        <pt x="294" y="43" on="1"/>
        <pt x="568" y="43" on="1"/>
        <pt x="607" y="178" on="1"/>
        <pt x="660" y="178" on="1"/>
        <pt x="660" y="0" on="1"/>
        <pt x="90" y="0" on="1"/>
        <pt x="90" y="37" on="1"/>
        <pt x="189" y="60" on="1"/>
        <pt x="189" y="689" on="1"/>
        <pt x="90" y="713" on="1"/>
      </contour>
      <contour>
        <pt x="238" y="921" on="0"/>
        <pt x="273" y="952" on="0"/>
        <pt x="332" y="952" on="0"/>
        <pt x="368" y="921" on="0"/>
        <pt x="368" y="868" on="0"/>
        <pt x="334" y="836" on="0"/>
        <pt x="273" y="836" on="0"/>
        <pt x="238" y="867" on="0"/>
      </contour>
      <contour>
        <pt x="461" y="921" on="0"/>
        <pt x="496" y="952" on="0"/>
        <pt x="555" y="952" on="0"/>
        <pt x="591" y="921" on="0"/>
        <pt x="591" y="868" on="0"/>
        <pt x="557" y="836" on="0"/>
        <pt x="496" y="836" on="0"/>
        <pt x="461" y="867" on="0"/>
      </contour>
    </TTGlyph>
    <TTGlyph name="Edotaccent" xMin="90" yMin="0" xMax="660" yMax="941">
      <contour>
        <pt x="90" y="750" on="1"/>
        <pt x="641" y="750" on="1"/>
        <pt x="641" y="571" on="1"/>
        <pt x="589" y="571" on="1"/>
        <pt x="550" y="707" on="1"/>
        <pt x="294" y="707" on="1"/>
        <pt x="294" y="408" on="1"/>
        <pt x="487" y="408" on="1"/>
        <pt x="514" y="495" on="1"/>
        <pt x="551" y="495" on="1"/>
        <pt x="551" y="288" on="1"/>
        <pt x="514" y="288" on="1"/>
        <pt x="487" y="364" on="1"/>
        <pt x="294" y="364" on="1"/>
        <pt x="294" y="43" on="1"/>
        <pt x="568" y="43" on="1"/>
        <pt x="607" y="178" on="1"/>
        <pt x="660" y="178" on="1"/>
        <pt x="660" y="0" on="1"/>
        <pt x="90" y="0" on="1"/>
        <pt x="90" y="37" on="1"/>
        <pt x="189" y="60" on="1"/>
        <pt x="189" y="689" on="1"/>
        <pt x="90" y="713" on="1"/>
      </contour>
      <contour>
        <pt x="342" y="910" on="0"/>
        <pt x="377" y="941" on="0"/>
        <pt x="436" y="941" on="0"/>
        <pt x="472" y="910" on="0"/>
        <pt x="472" y="857" on="0"/>
        <pt x="438" y="825" on="0"/>
        <pt x="377" y="825" on="0"/>
        <pt x="342" y="856" on="0"/>
      </contour>
    </TTGlyph>
    <TTGlyph name="Egrave" xMin="90" yMin="0" xMax="660" yMax="947">
      <contour>
        <pt x="90" y="750" on="1"/>
        <pt x="641" y="750" on="1"/>
        <pt x="641" y="571" on="1"/>
        <pt x="589" y="571" on="1"/>
        <pt x="550" y="707" on="1"/>
        <pt x="294" y="707" on="1"/>
        <pt x="294" y="408" on="1"/>
        <pt x="487" y="408" on="1"/>
        <pt x="514" y="495" on="1"/>
        <pt x="551" y="495" on="1"/>
        <pt x="551" y="288" on="1"/>
        <pt x="514" y="288" on="1"/>
        <pt x="487" y="364" on="1"/>
        <pt x="294" y="364" on="1"/>
        <pt x="294" y="43" on="1"/>
        <pt x="568" y="43" on="1"/>
        <pt x="607" y="178" on="1"/>
        <pt x="660" y="178" on="1"/>
        <pt x="660" y="0" on="1"/>
        <pt x="90" y="0" on="1"/>
        <pt x="90" y="37" on="1"/>
        <pt x="189" y="60" on="1"/>
        <pt x="189" y="689" on="1"/>
        <pt x="90" y="713" on="1"/>
      </contour>
      <contour>
        <pt x="551" y="802" on="1"/>
        <pt x="520" y="802" on="1"/>
        <pt x="285" y="947" on="1"/>
        <pt x="419" y="947" on="1"/>
      </contour>
    </TTGlyph>
    <TTGlyph name="Emacron" xMin="90" yMin="0" xMax="660" yMax="912">
      <contour>
        <pt x="90" y="750" on="1"/>
        <pt x="641" y="750" on="1"/>
        <pt x="641" y="571" on="1"/>
        <pt x="589" y="571" on="1"/>
        <pt x="550" y="707" on="1"/>
        <pt x="294" y="707" on="1"/>
        <pt x="294" y="408" on="1"/>
        <pt x="487" y="408" on="1"/>
        <pt x="514" y="495" on="1"/>
        <pt x="551" y="495" on="1"/>
        <pt x="551" y="288" on="1"/>
        <pt x="514" y="288" on="1"/>
        <pt x="487" y="364" on="1"/>
        <pt x="294" y="364" on="1"/>
        <pt x="294" y="43" on="1"/>
        <pt x="568" y="43" on="1"/>
        <pt x="607" y="178" on="1"/>
        <pt x="660" y="178" on="1"/>
        <pt x="660" y="0" on="1"/>
        <pt x="90" y="0" on="1"/>
        <pt x="90" y="37" on="1"/>
        <pt x="189" y="60" on="1"/>
        <pt x="189" y="689" on="1"/>
        <pt x="90" y="713" on="1"/>
      </contour>
      <contour>
        <pt x="258" y="912" on="1"/>
        <pt x="547" y="912" on="1"/>
        <pt x="547" y="838" on="1"/>
        <pt x="258" y="838" on="1"/>
      </contour>
    </TTGlyph>
    <TTGlyph name="Eogonek" xMin="90" yMin="-227" xMax="660" yMax="750">
      <contour>
        <pt x="581" y="-227" on="0"/>
        <pt x="492" y="-155" on="0"/>
        <pt x="492" y="-68" on="0"/>
        <pt x="548" y="-9" on="0"/>
        <pt x="600" y="0" on="1"/>
        <pt x="90" y="0" on="1"/>
        <pt x="90" y="37" on="1"/>
        <pt x="189" y="60" on="1"/>
        <pt x="189" y="689" on="1"/>
        <pt x="90" y="713" on="1"/>
        <pt x="90" y="750" on="1"/>
        <pt x="641" y="750" on="1"/>
        <pt x="641" y="571" on="1"/>
        <pt x="589" y="571" on="1"/>
        <pt x="550" y="707" on="1"/>
        <pt x="294" y="707" on="1"/>
        <pt x="294" y="408" on="1"/>
        <pt x="487" y="408" on="1"/>
        <pt x="514" y="495" on="1"/>
        <pt x="551" y="495" on="1"/>
        <pt x="551" y="288" on="1"/>
        <pt x="514" y="288" on="1"/>
        <pt x="487" y="364" on="1"/>
        <pt x="294" y="364" on="1"/>
        <pt x="294" y="43" on="1"/>
        <pt x="568" y="43" on="1"/>
        <pt x="607" y="178" on="1"/>
        <pt x="660" y="178" on="1"/>
        <pt x="660" y="0" on="1"/>
        <pt x="629" y="0" on="1"/>
        <pt x="598" y="-12" on="0"/>
        <pt x="563" y="-71" on="0"/>
        <pt x="563" y="-143" on="0"/>
        <pt x="609" y="-194" on="0"/>
        <pt x="654" y="-195" on="1"/>
        <pt x="660" y="-227" on="1"/>
      </contour>
    </TTGlyph>
    <TTGlyph name="Eth" xMin="20" yMin="0" xMax="727" yMax="750">
      <contour>
        <pt x="20" y="406" on="1"/>
        <pt x="120" y="406" on="1"/>
        <pt x="120" y="689" on="1"/>
        <pt x="21" y="713" on="1"/>
        <pt x="21" y="750" on="1"/>
        <pt x="287" y="750" on="1"/>
        <pt x="389" y="750" on="0"/>
        <pt x="543" y="713" on="0"/>
        <pt x="664" y="628" on="0"/>
        <pt x="727" y="478" on="0"/>
        <pt x="727" y="264" on="0"/>
        <pt x="663" y="116" on="0"/>
        <pt x="537" y="35" on="0"/>
        <pt x="378" y="0" on="0"/>
        <pt x="269" y="0" on="1"/>
        <pt x="21" y="0" on="1"/>
        <pt x="21" y="37" on="1"/>
        <pt x="120" y="60" on="1"/>
        <pt x="120" y="360" on="1"/>
        <pt x="20" y="360" on="1"/>
      </contour>
      <contour>
        <pt x="225" y="42" on="1"/>
        <pt x="274" y="42" on="1"/>
        <pt x="447" y="42" on="0"/>
        <pt x="611" y="190" on="0"/>
        <pt x="611" y="551" on="0"/>
        <pt x="457" y="708" on="0"/>
        <pt x="291" y="708" on="1"/>
        <pt x="225" y="708" on="1"/>
        <pt x="225" y="406" on="1"/>
        <pt x="425" y="406" on="1"/>
        <pt x="425" y="360" on="1"/>
        <pt x="225" y="360" on="1"/>
      </contour>
    </TTGlyph>
    <TTGlyph name="Euro" xMin="25" yMin="-21" xMax="693" yMax="760">
      <contour>
        <pt x="25" y="421" on="1"/>
        <pt x="25" y="485" on="1"/>
        <pt x="88" y="485" on="1"/>
        <pt x="120" y="613" on="0"/>
        <pt x="320" y="760" on="0"/>
        <pt x="606" y="760" on="0"/>
        <pt x="690" y="680" on="1"/>
        <pt x="690" y="518" on="1"/>
        <pt x="638" y="518" on="1"/>
        <pt x="589" y="677" on="1"/>
        <pt x="538" y="723" on="0"/>
        <pt x="354" y="723" on="0"/>
        <pt x="224" y="601" on="0"/>
        <pt x="201" y="485" on="1"/>
        <pt x="500" y="485" on="1"/>
        <pt x="500" y="421" on="1"/>
        <pt x="193" y="421" on="1"/>
        <pt x="191" y="389" on="0"/>
        <pt x="191" y="373" on="1"/>
        <pt x="191" y="339" on="1"/>
        <pt x="500" y="339" on="1"/>
        <pt x="500" y="275" on="1"/>
        <pt x="198" y="275" on="1"/>
        <pt x="218" y="154" on="0"/>
        <pt x="347" y="19" on="0"/>
        <pt x="536" y="19" on="0"/>
        <pt x="596" y="75" on="1"/>
        <pt x="646" y="241" on="1"/>
        <pt x="693" y="241" on="1"/>
        <pt x="693" y="72" on="1"/>
        <pt x="604" y="-21" on="0"/>
        <pt x="310" y="-21" on="0"/>
        <pt x="111" y="137" on="0"/>
        <pt x="84" y="275" on="1"/>
        <pt x="25" y="275" on="1"/>
        <pt x="25" y="339" on="1"/>
        <pt x="76" y="339" on="1"/>
        <pt x="75" y="350" on="0"/>
        <pt x="75" y="396" on="0"/>
        <pt x="78" y="421" on="1"/>
      </contour>
    </TTGlyph>
    <TTGlyph name="F" xMin="90" yMin="0" xMax="642" yMax="750">
      <contour>
        <pt x="552" y="276" on="1"/>
        <pt x="515" y="276" on="1"/>
        <pt x="487" y="352" on="1"/>
        <pt x="295" y="352" on="1"/>
        <pt x="295" y="59" on="1"/>
        <pt x="394" y="37" on="1"/>
        <pt x="394" y="0" on="1"/>
        <pt x="90" y="0" on="1"/>
        <pt x="90" y="37" on="1"/>
        <pt x="190" y="60" on="1"/>
        <pt x="190" y="689" on="1"/>
        <pt x="91" y="713" on="1"/>
        <pt x="91" y="750" on="1"/>
        <pt x="642" y="750" on="1"/>
        <pt x="642" y="571" on="1"/>
        <pt x="590" y="571" on="1"/>
        <pt x="551" y="707" on="1"/>
        <pt x="295" y="707" on="1"/>
        <pt x="295" y="397" on="1"/>
        <pt x="487" y="397" on="1"/>
        <pt x="515" y="482" on="1"/>
        <pt x="552" y="482" on="1"/>
      </contour>
    </TTGlyph>
    <TTGlyph name="G" xMin="60" yMin="-13" xMax="802" yMax="766">
      <contour>
        <pt x="493" y="324" on="1"/>
        <pt x="802" y="324" on="1"/>
        <pt x="802" y="287" on="1"/>
        <pt x="703" y="264" on="1"/>
        <pt x="703" y="36" on="1"/>
        <pt x="652" y="13" on="0"/>
        <pt x="492" y="-13" on="0"/>
        <pt x="425" y="-13" on="1"/>
        <pt x="250" y="-13" on="0"/>
        <pt x="60" y="193" on="0"/>
        <pt x="60" y="551" on="0"/>
        <pt x="246" y="766" on="0"/>
        <pt x="416" y="766" on="1"/>
        <pt x="485" y="766" on="0"/>
        <pt x="633" y="729" on="0"/>
        <pt x="681" y="684" on="1"/>
        <pt x="681" y="515" on="1"/>
        <pt x="629" y="515" on="1"/>
        <pt x="580" y="681" on="1"/>
        <pt x="536" y="728" on="0"/>
        <pt x="292" y="728" on="0"/>
        <pt x="176" y="546" on="0"/>
        <pt x="176" y="380" on="1"/>
        <pt x="176" y="27" on="0"/>
        <pt x="423" y="27" on="1"/>
        <pt x="501" y="27" on="0"/>
        <pt x="598" y="51" on="1"/>
        <pt x="598" y="264" on="1"/>
        <pt x="493" y="287" on="1"/>
      </contour>
    </TTGlyph>
    <TTGlyph name="Gbreve" xMin="60" yMin="-13" xMax="802" yMax="957">
      <contour>
        <pt x="493" y="324" on="1"/>
        <pt x="802" y="324" on="1"/>
        <pt x="802" y="287" on="1"/>
        <pt x="703" y="264" on="1"/>
        <pt x="703" y="36" on="1"/>
        <pt x="652" y="13" on="0"/>
        <pt x="492" y="-13" on="0"/>
        <pt x="425" y="-13" on="1"/>
        <pt x="250" y="-13" on="0"/>
        <pt x="60" y="193" on="0"/>
        <pt x="60" y="551" on="0"/>
        <pt x="246" y="766" on="0"/>
        <pt x="416" y="766" on="1"/>
        <pt x="485" y="766" on="0"/>
        <pt x="633" y="729" on="0"/>
        <pt x="681" y="684" on="1"/>
        <pt x="681" y="515" on="1"/>
        <pt x="629" y="515" on="1"/>
        <pt x="580" y="681" on="1"/>
        <pt x="536" y="728" on="0"/>
        <pt x="292" y="728" on="0"/>
        <pt x="176" y="546" on="0"/>
        <pt x="176" y="380" on="1"/>
        <pt x="176" y="27" on="0"/>
        <pt x="423" y="27" on="1"/>
        <pt x="501" y="27" on="0"/>
        <pt x="598" y="51" on="1"/>
        <pt x="598" y="264" on="1"/>
        <pt x="493" y="287" on="1"/>
      </contour>
      <contour>
        <pt x="558" y="957" on="1"/>
        <pt x="588" y="957" on="1"/>
        <pt x="588" y="883" on="0"/>
        <pt x="488" y="801" on="0"/>
        <pt x="350" y="801" on="0"/>
        <pt x="249" y="883" on="0"/>
        <pt x="249" y="957" on="1"/>
        <pt x="281" y="957" on="1"/>
        <pt x="281" y="917" on="0"/>
        <pt x="364" y="871" on="0"/>
        <pt x="475" y="871" on="0"/>
        <pt x="558" y="917" on="0"/>
      </contour>
    </TTGlyph>
    <TTGlyph name="Gcircumflex" xMin="60" yMin="-13" xMax="802" yMax="965">
      <contour>
        <pt x="493" y="324" on="1"/>
        <pt x="802" y="324" on="1"/>
        <pt x="802" y="287" on="1"/>
        <pt x="703" y="264" on="1"/>
        <pt x="703" y="36" on="1"/>
        <pt x="652" y="13" on="0"/>
        <pt x="492" y="-13" on="0"/>
        <pt x="425" y="-13" on="1"/>
        <pt x="250" y="-13" on="0"/>
        <pt x="60" y="193" on="0"/>
        <pt x="60" y="551" on="0"/>
        <pt x="246" y="766" on="0"/>
        <pt x="416" y="766" on="1"/>
        <pt x="485" y="766" on="0"/>
        <pt x="633" y="729" on="0"/>
        <pt x="681" y="684" on="1"/>
        <pt x="681" y="515" on="1"/>
        <pt x="629" y="515" on="1"/>
        <pt x="580" y="681" on="1"/>
        <pt x="536" y="728" on="0"/>
        <pt x="292" y="728" on="0"/>
        <pt x="176" y="546" on="0"/>
        <pt x="176" y="380" on="1"/>
        <pt x="176" y="27" on="0"/>
        <pt x="423" y="27" on="1"/>
        <pt x="501" y="27" on="0"/>
        <pt x="598" y="51" on="1"/>
        <pt x="598" y="264" on="1"/>
        <pt x="493" y="287" on="1"/>
      </contour>
      <contour>
        <pt x="444" y="965" on="1"/>
        <pt x="599" y="801" on="1"/>
        <pt x="559" y="801" on="1"/>
        <pt x="427" y="876" on="1"/>
        <pt x="303" y="801" on="1"/>
        <pt x="264" y="801" on="1"/>
        <pt x="410" y="965" on="1"/>
      </contour>
    </TTGlyph>
    <TTGlyph name="Gdotaccent" xMin="60" yMin="-13" xMax="802" yMax="970">
      <contour>
        <pt x="493" y="324" on="1"/>
        <pt x="802" y="324" on="1"/>
        <pt x="802" y="287" on="1"/>
        <pt x="703" y="264" on="1"/>
        <pt x="703" y="36" on="1"/>
        <pt x="652" y="13" on="0"/>
        <pt x="492" y="-13" on="0"/>
        <pt x="425" y="-13" on="1"/>
        <pt x="250" y="-13" on="0"/>
        <pt x="60" y="193" on="0"/>
        <pt x="60" y="551" on="0"/>
        <pt x="246" y="766" on="0"/>
        <pt x="416" y="766" on="1"/>
        <pt x="485" y="766" on="0"/>
        <pt x="633" y="729" on="0"/>
        <pt x="681" y="684" on="1"/>
        <pt x="681" y="515" on="1"/>
        <pt x="629" y="515" on="1"/>
        <pt x="580" y="681" on="1"/>
        <pt x="536" y="728" on="0"/>
        <pt x="292" y="728" on="0"/>
        <pt x="176" y="546" on="0"/>
        <pt x="176" y="380" on="1"/>
        <pt x="176" y="27" on="0"/>
        <pt x="423" y="27" on="1"/>
        <pt x="501" y="27" on="0"/>
        <pt x="598" y="51" on="1"/>
        <pt x="598" y="264" on="1"/>
        <pt x="493" y="287" on="1"/>
      </contour>
      <contour>
        <pt x="359" y="939" on="0"/>
        <pt x="394" y="970" on="0"/>
        <pt x="453" y="970" on="0"/>
        <pt x="489" y="939" on="0"/>
        <pt x="489" y="886" on="0"/>
        <pt x="455" y="854" on="0"/>
        <pt x="394" y="854" on="0"/>
        <pt x="359" y="885" on="0"/>
      </contour>
    </TTGlyph>
    <TTGlyph name="H" xMin="90" yMin="0" xMax="867" yMax="750">
      <contour>
        <pt x="563" y="0" on="1"/>
        <pt x="563" y="37" on="1"/>
        <pt x="661" y="59" on="1"/>
        <pt x="661" y="360" on="1"/>
        <pt x="295" y="360" on="1"/>
        <pt x="295" y="59" on="1"/>
        <pt x="395" y="37" on="1"/>
        <pt x="395" y="0" on="1"/>
        <pt x="90" y="0" on="1"/>
        <pt x="90" y="37" on="1"/>
        <pt x="190" y="59" on="1"/>
        <pt x="190" y="689" on="1"/>
        <pt x="90" y="713" on="1"/>
        <pt x="90" y="750" on="1"/>
        <pt x="395" y="750" on="1"/>
        <pt x="395" y="713" on="1"/>
        <pt x="295" y="689" on="1"/>
        <pt x="295" y="405" on="1"/>
        <pt x="661" y="405" on="1"/>
        <pt x="661" y="689" on="1"/>
        <pt x="563" y="713" on="1"/>
        <pt x="563" y="750" on="1"/>
        <pt x="867" y="750" on="1"/>
        <pt x="867" y="713" on="1"/>
        <pt x="766" y="690" on="1"/>
        <pt x="766" y="60" on="1"/>
        <pt x="867" y="37" on="1"/>
        <pt x="867" y="0" on="1"/>
      </contour>
    </TTGlyph>
    <TTGlyph name="Hbar" xMin="90" yMin="0" xMax="868" yMax="750">
      <contour>
        <pt x="91" y="544" on="1"/>
        <pt x="91" y="588" on="1"/>
        <pt x="190" y="588" on="1"/>
        <pt x="190" y="689" on="1"/>
        <pt x="90" y="713" on="1"/>
        <pt x="90" y="750" on="1"/>
        <pt x="395" y="750" on="1"/>
        <pt x="395" y="713" on="1"/>
        <pt x="295" y="689" on="1"/>
        <pt x="295" y="588" on="1"/>
        <pt x="661" y="588" on="1"/>
        <pt x="661" y="689" on="1"/>
        <pt x="563" y="713" on="1"/>
        <pt x="563" y="750" on="1"/>
        <pt x="867" y="750" on="1"/>
        <pt x="867" y="713" on="1"/>
        <pt x="766" y="690" on="1"/>
        <pt x="766" y="588" on="1"/>
        <pt x="868" y="588" on="1"/>
        <pt x="868" y="544" on="1"/>
        <pt x="766" y="544" on="1"/>
        <pt x="766" y="60" on="1"/>
        <pt x="867" y="37" on="1"/>
        <pt x="867" y="0" on="1"/>
        <pt x="563" y="0" on="1"/>
        <pt x="563" y="37" on="1"/>
        <pt x="661" y="59" on="1"/>
        <pt x="661" y="360" on="1"/>
        <pt x="295" y="360" on="1"/>
        <pt x="295" y="59" on="1"/>
        <pt x="395" y="37" on="1"/>
        <pt x="395" y="0" on="1"/>
        <pt x="90" y="0" on="1"/>
        <pt x="90" y="37" on="1"/>
        <pt x="190" y="59" on="1"/>
        <pt x="190" y="544" on="1"/>
      </contour>
      <contour>
        <pt x="295" y="405" on="1"/>
        <pt x="661" y="405" on="1"/>
        <pt x="661" y="544" on="1"/>
        <pt x="295" y="544" on="1"/>
      </contour>
    </TTGlyph>
    <TTGlyph name="Hcircumflex" xMin="90" yMin="0" xMax="867" yMax="965">
      <contour>
        <pt x="563" y="0" on="1"/>
        <pt x="563" y="37" on="1"/>
        <pt x="661" y="59" on="1"/>
        <pt x="661" y="360" on="1"/>
        <pt x="295" y="360" on="1"/>
        <pt x="295" y="59" on="1"/>
        <pt x="395" y="37" on="1"/>
        <pt x="395" y="0" on="1"/>
        <pt x="90" y="0" on="1"/>
        <pt x="90" y="37" on="1"/>
        <pt x="190" y="59" on="1"/>
        <pt x="190" y="689" on="1"/>
        <pt x="90" y="713" on="1"/>
        <pt x="90" y="750" on="1"/>
        <pt x="395" y="750" on="1"/>
        <pt x="395" y="713" on="1"/>
        <pt x="295" y="689" on="1"/>
        <pt x="295" y="405" on="1"/>
        <pt x="661" y="405" on="1"/>
        <pt x="661" y="689" on="1"/>
        <pt x="563" y="713" on="1"/>
        <pt x="563" y="750" on="1"/>
        <pt x="867" y="750" on="1"/>
        <pt x="867" y="713" on="1"/>
        <pt x="766" y="690" on="1"/>
        <pt x="766" y="60" on="1"/>
        <pt x="867" y="37" on="1"/>
        <pt x="867" y="0" on="1"/>
      </contour>
      <contour>
        <pt x="491" y="965" on="1"/>
        <pt x="646" y="801" on="1"/>
        <pt x="606" y="801" on="1"/>
        <pt x="474" y="876" on="1"/>
        <pt x="350" y="801" on="1"/>
        <pt x="311" y="801" on="1"/>
        <pt x="457" y="965" on="1"/>
      </contour>
    </TTGlyph>
    <TTGlyph name="I" xMin="90" yMin="0" xMax="394" yMax="750">
      <contour>
        <pt x="90" y="750" on="1"/>
        <pt x="394" y="750" on="1"/>
        <pt x="394" y="713" on="1"/>
        <pt x="294" y="690" on="1"/>
        <pt x="294" y="59" on="1"/>
        <pt x="394" y="37" on="1"/>
        <pt x="394" y="0" on="1"/>
        <pt x="90" y="0" on="1"/>
        <pt x="90" y="37" on="1"/>
        <pt x="189" y="60" on="1"/>
        <pt x="189" y="689" on="1"/>
        <pt x="90" y="713" on="1"/>
      </contour>
    </TTGlyph>
    <TTGlyph name="Iacute" xMin="60" yMin="0" xMax="364" yMax="947">
      <contour>
        <pt x="60" y="750" on="1"/>
        <pt x="364" y="750" on="1"/>
        <pt x="364" y="713" on="1"/>
        <pt x="264" y="690" on="1"/>
        <pt x="264" y="59" on="1"/>
        <pt x="364" y="37" on="1"/>
        <pt x="364" y="0" on="1"/>
        <pt x="60" y="0" on="1"/>
        <pt x="60" y="37" on="1"/>
        <pt x="159" y="60" on="1"/>
        <pt x="159" y="689" on="1"/>
        <pt x="60" y="713" on="1"/>
      </contour>
      <contour>
        <pt x="103" y="801" on="1"/>
        <pt x="71" y="801" on="1"/>
        <pt x="203" y="947" on="1"/>
        <pt x="337" y="947" on="1"/>
      </contour>
    </TTGlyph>
    <TTGlyph name="Ibreve" xMin="70" yMin="0" xMax="409" yMax="957">
      <contour>
        <pt x="84" y="750" on="1"/>
        <pt x="388" y="750" on="1"/>
        <pt x="388" y="713" on="1"/>
        <pt x="288" y="690" on="1"/>
        <pt x="288" y="59" on="1"/>
        <pt x="388" y="37" on="1"/>
        <pt x="388" y="0" on="1"/>
        <pt x="84" y="0" on="1"/>
        <pt x="84" y="37" on="1"/>
        <pt x="183" y="60" on="1"/>
        <pt x="183" y="689" on="1"/>
        <pt x="84" y="713" on="1"/>
      </contour>
      <contour>
        <pt x="379" y="957" on="1"/>
        <pt x="409" y="957" on="1"/>
        <pt x="409" y="883" on="0"/>
        <pt x="309" y="801" on="0"/>
        <pt x="171" y="801" on="0"/>
        <pt x="70" y="883" on="0"/>
        <pt x="70" y="957" on="1"/>
        <pt x="102" y="957" on="1"/>
        <pt x="102" y="917" on="0"/>
        <pt x="185" y="871" on="0"/>
        <pt x="296" y="871" on="0"/>
        <pt x="379" y="917" on="0"/>
      </contour>
    </TTGlyph>
    <TTGlyph name="Icircumflex" xMin="24" yMin="0" xMax="359" yMax="965">
      <contour>
        <pt x="39" y="750" on="1"/>
        <pt x="343" y="750" on="1"/>
        <pt x="343" y="713" on="1"/>
        <pt x="243" y="690" on="1"/>
        <pt x="243" y="59" on="1"/>
        <pt x="343" y="37" on="1"/>
        <pt x="343" y="0" on="1"/>
        <pt x="39" y="0" on="1"/>
        <pt x="39" y="37" on="1"/>
        <pt x="138" y="60" on="1"/>
        <pt x="138" y="689" on="1"/>
        <pt x="39" y="713" on="1"/>
      </contour>
      <contour>
        <pt x="204" y="965" on="1"/>
        <pt x="359" y="801" on="1"/>
        <pt x="319" y="801" on="1"/>
        <pt x="187" y="876" on="1"/>
        <pt x="63" y="801" on="1"/>
        <pt x="24" y="801" on="1"/>
        <pt x="170" y="965" on="1"/>
      </contour>
    </TTGlyph>
    <TTGlyph name="Idieresis" xMin="33" yMin="0" xMax="386" yMax="939">
      <contour>
        <pt x="60" y="750" on="1"/>
        <pt x="364" y="750" on="1"/>
        <pt x="364" y="713" on="1"/>
        <pt x="264" y="690" on="1"/>
        <pt x="264" y="59" on="1"/>
        <pt x="364" y="37" on="1"/>
        <pt x="364" y="0" on="1"/>
        <pt x="60" y="0" on="1"/>
        <pt x="60" y="37" on="1"/>
        <pt x="159" y="60" on="1"/>
        <pt x="159" y="689" on="1"/>
        <pt x="60" y="713" on="1"/>
      </contour>
      <contour>
        <pt x="33" y="908" on="0"/>
        <pt x="68" y="939" on="0"/>
        <pt x="127" y="939" on="0"/>
        <pt x="163" y="908" on="0"/>
        <pt x="163" y="855" on="0"/>
        <pt x="129" y="823" on="0"/>
        <pt x="68" y="823" on="0"/>
        <pt x="33" y="854" on="0"/>
      </contour>
      <contour>
        <pt x="256" y="908" on="0"/>
        <pt x="291" y="939" on="0"/>
        <pt x="350" y="939" on="0"/>
        <pt x="386" y="908" on="0"/>
        <pt x="386" y="855" on="0"/>
        <pt x="352" y="823" on="0"/>
        <pt x="291" y="823" on="0"/>
        <pt x="256" y="854" on="0"/>
      </contour>
    </TTGlyph>
    <TTGlyph name="Idotaccent" xMin="90" yMin="0" xMax="394" yMax="964">
      <contour>
        <pt x="90" y="750" on="1"/>
        <pt x="394" y="750" on="1"/>
        <pt x="394" y="713" on="1"/>
        <pt x="294" y="690" on="1"/>
        <pt x="294" y="59" on="1"/>
        <pt x="394" y="37" on="1"/>
        <pt x="394" y="0" on="1"/>
        <pt x="90" y="0" on="1"/>
        <pt x="90" y="37" on="1"/>
        <pt x="189" y="60" on="1"/>
        <pt x="189" y="689" on="1"/>
        <pt x="90" y="713" on="1"/>
      </contour>
      <contour>
        <pt x="180" y="933" on="0"/>
        <pt x="215" y="964" on="0"/>
        <pt x="274" y="964" on="0"/>
        <pt x="310" y="933" on="0"/>
        <pt x="310" y="880" on="0"/>
        <pt x="276" y="848" on="0"/>
        <pt x="215" y="848" on="0"/>
        <pt x="180" y="879" on="0"/>
      </contour>
    </TTGlyph>
    <TTGlyph name="Igrave" xMin="31" yMin="0" xMax="335" yMax="947">
      <contour>
        <pt x="31" y="750" on="1"/>
        <pt x="335" y="750" on="1"/>
        <pt x="335" y="713" on="1"/>
        <pt x="235" y="690" on="1"/>
        <pt x="235" y="59" on="1"/>
        <pt x="335" y="37" on="1"/>
        <pt x="335" y="0" on="1"/>
        <pt x="31" y="0" on="1"/>
        <pt x="31" y="37" on="1"/>
        <pt x="130" y="60" on="1"/>
        <pt x="130" y="689" on="1"/>
        <pt x="31" y="713" on="1"/>
      </contour>
      <contour>
        <pt x="316" y="802" on="1"/>
        <pt x="285" y="802" on="1"/>
        <pt x="50" y="947" on="1"/>
        <pt x="184" y="947" on="1"/>
      </contour>
    </TTGlyph>
    <TTGlyph name="Imacron" xMin="90" yMin="0" xMax="394" yMax="937">
      <contour>
        <pt x="90" y="750" on="1"/>
        <pt x="394" y="750" on="1"/>
        <pt x="394" y="713" on="1"/>
        <pt x="294" y="690" on="1"/>
        <pt x="294" y="59" on="1"/>
        <pt x="394" y="37" on="1"/>
        <pt x="394" y="0" on="1"/>
        <pt x="90" y="0" on="1"/>
        <pt x="90" y="37" on="1"/>
        <pt x="189" y="60" on="1"/>
        <pt x="189" y="689" on="1"/>
        <pt x="90" y="713" on="1"/>
      </contour>
      <contour>
        <pt x="98" y="937" on="1"/>
        <pt x="387" y="937" on="1"/>
        <pt x="387" y="863" on="1"/>
        <pt x="98" y="863" on="1"/>
      </contour>
    </TTGlyph>
    <TTGlyph name="Iogonek" xMin="90" yMin="-227" xMax="394" yMax="750">
      <contour>
        <pt x="245" y="-227" on="0"/>
        <pt x="156" y="-155" on="0"/>
        <pt x="156" y="-68" on="0"/>
        <pt x="212" y="-9" on="0"/>
        <pt x="264" y="0" on="1"/>
        <pt x="90" y="0" on="1"/>
        <pt x="90" y="37" on="1"/>
        <pt x="189" y="60" on="1"/>
        <pt x="189" y="689" on="1"/>
        <pt x="90" y="713" on="1"/>
        <pt x="90" y="750" on="1"/>
        <pt x="394" y="750" on="1"/>
        <pt x="394" y="713" on="1"/>
        <pt x="294" y="690" on="1"/>
        <pt x="294" y="59" on="1"/>
        <pt x="394" y="37" on="1"/>
        <pt x="394" y="0" on="1"/>
        <pt x="293" y="0" on="1"/>
        <pt x="262" y="-12" on="0"/>
        <pt x="227" y="-71" on="0"/>
        <pt x="227" y="-143" on="0"/>
        <pt x="273" y="-194" on="0"/>
        <pt x="318" y="-195" on="1"/>
        <pt x="324" y="-227" on="1"/>
      </contour>
    </TTGlyph>
    <TTGlyph name="Itilde" xMin="52" yMin="0" xMax="433" yMax="933">
      <contour>
        <pt x="90" y="750" on="1"/>
        <pt x="394" y="750" on="1"/>
        <pt x="394" y="713" on="1"/>
        <pt x="294" y="690" on="1"/>
        <pt x="294" y="59" on="1"/>
        <pt x="394" y="37" on="1"/>
        <pt x="394" y="0" on="1"/>
        <pt x="90" y="0" on="1"/>
        <pt x="90" y="37" on="1"/>
        <pt x="189" y="60" on="1"/>
        <pt x="189" y="689" on="1"/>
        <pt x="90" y="713" on="1"/>
      </contour>
      <contour>
        <pt x="102" y="896" on="0"/>
        <pt x="151" y="933" on="0"/>
        <pt x="220" y="933" on="0"/>
        <pt x="311" y="869" on="0"/>
        <pt x="333" y="869" on="1"/>
        <pt x="370" y="869" on="0"/>
        <pt x="408" y="925" on="1"/>
        <pt x="433" y="907" on="1"/>
        <pt x="369" y="801" on="0"/>
        <pt x="312" y="801" on="1"/>
        <pt x="286" y="801" on="0"/>
        <pt x="185" y="865" on="0"/>
        <pt x="119" y="865" on="0"/>
        <pt x="74" y="807" on="1"/>
        <pt x="52" y="825" on="1"/>
        <pt x="67" y="846" on="1"/>
      </contour>
    </TTGlyph>
    <TTGlyph name="J" xMin="70" yMin="-240" xMax="385" yMax="750">
      <contour>
        <pt x="81" y="750" on="1"/>
        <pt x="385" y="750" on="1"/>
        <pt x="385" y="713" on="1"/>
        <pt x="284" y="690" on="1"/>
        <pt x="284" y="278" on="1"/>
        <pt x="284" y="88" on="0"/>
        <pt x="270" y="18" on="0"/>
        <pt x="252" y="-53" on="0"/>
        <pt x="225" y="-97" on="0"/>
        <pt x="206" y="-126" on="1"/>
        <pt x="176" y="-171" on="0"/>
        <pt x="98" y="-240" on="1"/>
        <pt x="70" y="-223" on="1"/>
        <pt x="126" y="-150" on="0"/>
        <pt x="158" y="-70" on="0"/>
        <pt x="171" y="-26" on="0"/>
        <pt x="174" y="14" on="1"/>
        <pt x="178" y="66" on="0"/>
        <pt x="178" y="168" on="1"/>
        <pt x="178" y="690" on="1"/>
        <pt x="81" y="713" on="1"/>
      </contour>
    </TTGlyph>
    <TTGlyph name="Jcircumflex" xMin="67" yMin="-240" xMax="402" yMax="965">
      <contour>
        <pt x="81" y="750" on="1"/>
        <pt x="385" y="750" on="1"/>
        <pt x="385" y="713" on="1"/>
        <pt x="284" y="690" on="1"/>
        <pt x="284" y="278" on="1"/>
        <pt x="284" y="88" on="0"/>
        <pt x="270" y="18" on="0"/>
        <pt x="252" y="-53" on="0"/>
        <pt x="225" y="-97" on="0"/>
        <pt x="206" y="-126" on="1"/>
        <pt x="176" y="-171" on="0"/>
        <pt x="98" y="-240" on="1"/>
        <pt x="70" y="-223" on="1"/>
        <pt x="126" y="-150" on="0"/>
        <pt x="158" y="-70" on="0"/>
        <pt x="171" y="-26" on="0"/>
        <pt x="174" y="14" on="1"/>
        <pt x="178" y="66" on="0"/>
        <pt x="178" y="168" on="1"/>
        <pt x="178" y="690" on="1"/>
        <pt x="81" y="713" on="1"/>
      </contour>
      <contour>
        <pt x="247" y="965" on="1"/>
        <pt x="402" y="801" on="1"/>
        <pt x="362" y="801" on="1"/>
        <pt x="230" y="876" on="1"/>
        <pt x="106" y="801" on="1"/>
        <pt x="67" y="801" on="1"/>
        <pt x="213" y="965" on="1"/>
      </contour>
    </TTGlyph>
    <TTGlyph name="K" xMin="90" yMin="0" xMax="812" yMax="750">
      <contour>
        <pt x="490" y="750" on="1"/>
        <pt x="744" y="750" on="1"/>
        <pt x="744" y="713" on="1"/>
        <pt x="655" y="691" on="1"/>
        <pt x="383" y="435" on="1"/>
        <pt x="694" y="59" on="1"/>
        <pt x="812" y="37" on="1"/>
        <pt x="812" y="0" on="1"/>
        <pt x="602" y="0" on="1"/>
        <pt x="294" y="378" on="1"/>
        <pt x="294" y="59" on="1"/>
        <pt x="394" y="37" on="1"/>
        <pt x="394" y="0" on="1"/>
        <pt x="90" y="0" on="1"/>
        <pt x="90" y="37" on="1"/>
        <pt x="189" y="60" on="1"/>
        <pt x="189" y="689" on="1"/>
        <pt x="90" y="713" on="1"/>
        <pt x="90" y="750" on="1"/>
        <pt x="394" y="750" on="1"/>
        <pt x="394" y="713" on="1"/>
        <pt x="294" y="690" on="1"/>
        <pt x="294" y="398" on="1"/>
        <pt x="568" y="694" on="1"/>
        <pt x="490" y="713" on="1"/>
      </contour>
    </TTGlyph>
    <TTGlyph name="L" xMin="90" yMin="0" xMax="642" yMax="750">
      <contour>
        <pt x="90" y="750" on="1"/>
        <pt x="394" y="750" on="1"/>
        <pt x="394" y="713" on="1"/>
        <pt x="295" y="690" on="1"/>
        <pt x="295" y="44" on="1"/>
        <pt x="551" y="44" on="1"/>
        <pt x="590" y="189" on="1"/>
        <pt x="642" y="189" on="1"/>
        <pt x="642" y="0" on="1"/>
        <pt x="90" y="0" on="1"/>
        <pt x="90" y="37" on="1"/>
        <pt x="190" y="60" on="1"/>
        <pt x="190" y="689" on="1"/>
        <pt x="90" y="713" on="1"/>
      </contour>
    </TTGlyph>
    <TTGlyph name="Lacute" xMin="90" yMin="0" xMax="642" yMax="947">
      <contour>
        <pt x="90" y="750" on="1"/>
        <pt x="394" y="750" on="1"/>
        <pt x="394" y="713" on="1"/>
        <pt x="295" y="690" on="1"/>
        <pt x="295" y="44" on="1"/>
        <pt x="551" y="44" on="1"/>
        <pt x="590" y="189" on="1"/>
        <pt x="642" y="189" on="1"/>
        <pt x="642" y="0" on="1"/>
        <pt x="90" y="0" on="1"/>
        <pt x="90" y="37" on="1"/>
        <pt x="190" y="60" on="1"/>
        <pt x="190" y="689" on="1"/>
        <pt x="90" y="713" on="1"/>
      </contour>
      <contour>
        <pt x="140" y="801" on="1"/>
        <pt x="108" y="801" on="1"/>
        <pt x="240" y="947" on="1"/>
        <pt x="374" y="947" on="1"/>
      </contour>
    </TTGlyph>
    <TTGlyph name="Lcaron" xMin="90" yMin="0" xMax="655" yMax="751">
      <contour>
        <pt x="507" y="571" on="1"/>
        <pt x="461" y="571" on="1"/>
        <pt x="528" y="751" on="1"/>
        <pt x="655" y="751" on="1"/>
      </contour>
      <contour>
        <pt x="90" y="750" on="1"/>
        <pt x="394" y="750" on="1"/>
        <pt x="394" y="713" on="1"/>
        <pt x="295" y="690" on="1"/>
        <pt x="295" y="44" on="1"/>
        <pt x="551" y="44" on="1"/>
        <pt x="590" y="189" on="1"/>
        <pt x="642" y="189" on="1"/>
        <pt x="642" y="0" on="1"/>
        <pt x="90" y="0" on="1"/>
        <pt x="90" y="37" on="1"/>
        <pt x="190" y="60" on="1"/>
        <pt x="190" y="689" on="1"/>
        <pt x="90" y="713" on="1"/>
      </contour>
    </TTGlyph>
    <TTGlyph name="Ldot" xMin="90" yMin="0" xMax="642" yMax="750">
      <contour>
        <pt x="90" y="750" on="1"/>
        <pt x="394" y="750" on="1"/>
        <pt x="394" y="713" on="1"/>
        <pt x="295" y="690" on="1"/>
        <pt x="295" y="44" on="1"/>
        <pt x="551" y="44" on="1"/>
        <pt x="590" y="189" on="1"/>
        <pt x="642" y="189" on="1"/>
        <pt x="642" y="0" on="1"/>
        <pt x="90" y="0" on="1"/>
        <pt x="90" y="37" on="1"/>
        <pt x="190" y="60" on="1"/>
        <pt x="190" y="689" on="1"/>
        <pt x="90" y="713" on="1"/>
      </contour>
      <contour>
        <pt x="416" y="446" on="0"/>
        <pt x="452" y="485" on="0"/>
        <pt x="511" y="485" on="0"/>
        <pt x="548" y="448" on="0"/>
        <pt x="548" y="391" on="0"/>
        <pt x="511" y="354" on="0"/>
        <pt x="454" y="354" on="0"/>
        <pt x="416" y="392" on="0"/>
      </contour>
    </TTGlyph>
    <TTGlyph name="Lslash" xMin="21" yMin="0" xMax="601" yMax="750">
      <contour>
        <pt x="49" y="750" on="1"/>
        <pt x="353" y="750" on="1"/>
        <pt x="353" y="713" on="1"/>
        <pt x="254" y="690" on="1"/>
        <pt x="254" y="396" on="1"/>
        <pt x="362" y="504" on="1"/>
        <pt x="394" y="472" on="1"/>
        <pt x="254" y="331" on="1"/>
        <pt x="254" y="44" on="1"/>
        <pt x="510" y="44" on="1"/>
        <pt x="549" y="189" on="1"/>
        <pt x="601" y="189" on="1"/>
        <pt x="601" y="0" on="1"/>
        <pt x="49" y="0" on="1"/>
        <pt x="49" y="37" on="1"/>
        <pt x="149" y="60" on="1"/>
        <pt x="149" y="226" on="1"/>
        <pt x="54" y="131" on="1"/>
        <pt x="21" y="163" on="1"/>
        <pt x="149" y="291" on="1"/>
        <pt x="149" y="689" on="1"/>
        <pt x="49" y="713" on="1"/>
      </contour>
    </TTGlyph>
    <TTGlyph name="M" xMin="90" yMin="0" xMax="1051" yMax="750">
      <contour>
        <pt x="745" y="0" on="1"/>
        <pt x="745" y="37" on="1"/>
        <pt x="843" y="60" on="1"/>
        <pt x="843" y="688" on="1"/>
        <pt x="571" y="0" on="1"/>
        <pt x="510" y="0" on="1"/>
        <pt x="238" y="688" on="1"/>
        <pt x="238" y="60" on="1"/>
        <pt x="338" y="37" on="1"/>
        <pt x="338" y="0" on="1"/>
        <pt x="90" y="0" on="1"/>
        <pt x="90" y="37" on="1"/>
        <pt x="186" y="60" on="1"/>
        <pt x="186" y="687" on="1"/>
        <pt x="101" y="713" on="1"/>
        <pt x="101" y="750" on="1"/>
        <pt x="316" y="750" on="1"/>
        <pt x="569" y="124" on="1"/>
        <pt x="815" y="750" on="1"/>
        <pt x="1051" y="750" on="1"/>
        <pt x="1051" y="713" on="1"/>
        <pt x="947" y="689" on="1"/>
        <pt x="947" y="60" on="1"/>
        <pt x="1049" y="37" on="1"/>
        <pt x="1049" y="0" on="1"/>
      </contour>
    </TTGlyph>
    <TTGlyph name="N" xMin="90" yMin="0" xMax="869" yMax="750">
      <contour>
        <pt x="623" y="750" on="1"/>
        <pt x="869" y="750" on="1"/>
        <pt x="869" y="713" on="1"/>
        <pt x="771" y="688" on="1"/>
        <pt x="771" y="0" on="1"/>
        <pt x="701" y="0" on="1"/>
        <pt x="233" y="686" on="1"/>
        <pt x="233" y="59" on="1"/>
        <pt x="331" y="37" on="1"/>
        <pt x="331" y="0" on="1"/>
        <pt x="90" y="0" on="1"/>
        <pt x="90" y="37" on="1"/>
        <pt x="183" y="59" on="1"/>
        <pt x="183" y="687" on="1"/>
        <pt x="90" y="713" on="1"/>
        <pt x="90" y="750" on="1"/>
        <pt x="313" y="750" on="1"/>
        <pt x="721" y="158" on="1"/>
        <pt x="721" y="687" on="1"/>
        <pt x="623" y="713" on="1"/>
      </contour>
    </TTGlyph>
    <TTGlyph name="Nacute" xMin="90" yMin="0" xMax="869" yMax="947">
      <contour>
        <pt x="623" y="750" on="1"/>
        <pt x="869" y="750" on="1"/>
        <pt x="869" y="713" on="1"/>
        <pt x="771" y="688" on="1"/>
        <pt x="771" y="0" on="1"/>
        <pt x="701" y="0" on="1"/>
        <pt x="233" y="686" on="1"/>
        <pt x="233" y="59" on="1"/>
        <pt x="331" y="37" on="1"/>
        <pt x="331" y="0" on="1"/>
        <pt x="90" y="0" on="1"/>
        <pt x="90" y="37" on="1"/>
        <pt x="183" y="59" on="1"/>
        <pt x="183" y="687" on="1"/>
        <pt x="90" y="713" on="1"/>
        <pt x="90" y="750" on="1"/>
        <pt x="313" y="750" on="1"/>
        <pt x="721" y="158" on="1"/>
        <pt x="721" y="687" on="1"/>
        <pt x="623" y="713" on="1"/>
      </contour>
      <contour>
        <pt x="377" y="801" on="1"/>
        <pt x="345" y="801" on="1"/>
        <pt x="477" y="947" on="1"/>
        <pt x="611" y="947" on="1"/>
      </contour>
    </TTGlyph>
    <TTGlyph name="Ncaron" xMin="90" yMin="0" xMax="869" yMax="964">
      <contour>
        <pt x="623" y="750" on="1"/>
        <pt x="869" y="750" on="1"/>
        <pt x="869" y="713" on="1"/>
        <pt x="771" y="688" on="1"/>
        <pt x="771" y="0" on="1"/>
        <pt x="701" y="0" on="1"/>
        <pt x="233" y="686" on="1"/>
        <pt x="233" y="59" on="1"/>
        <pt x="331" y="37" on="1"/>
        <pt x="331" y="0" on="1"/>
        <pt x="90" y="0" on="1"/>
        <pt x="90" y="37" on="1"/>
        <pt x="183" y="59" on="1"/>
        <pt x="183" y="687" on="1"/>
        <pt x="90" y="713" on="1"/>
        <pt x="90" y="750" on="1"/>
        <pt x="313" y="750" on="1"/>
        <pt x="721" y="158" on="1"/>
        <pt x="721" y="687" on="1"/>
        <pt x="623" y="713" on="1"/>
      </contour>
      <contour>
        <pt x="483" y="801" on="1"/>
        <pt x="331" y="964" on="1"/>
        <pt x="370" y="964" on="1"/>
        <pt x="500" y="891" on="1"/>
        <pt x="626" y="964" on="1"/>
        <pt x="666" y="964" on="1"/>
        <pt x="516" y="801" on="1"/>
      </contour>
    </TTGlyph>
    <TTGlyph name="Ntilde" xMin="106" yMin="0" xMax="885" yMax="1015">
      <contour>
        <pt x="639" y="750" on="1"/>
        <pt x="885" y="750" on="1"/>
        <pt x="885" y="713" on="1"/>
        <pt x="787" y="688" on="1"/>
        <pt x="787" y="0" on="1"/>
        <pt x="717" y="0" on="1"/>
        <pt x="249" y="686" on="1"/>
        <pt x="249" y="59" on="1"/>
        <pt x="347" y="37" on="1"/>
        <pt x="347" y="0" on="1"/>
        <pt x="106" y="0" on="1"/>
        <pt x="106" y="37" on="1"/>
        <pt x="199" y="59" on="1"/>
        <pt x="199" y="687" on="1"/>
        <pt x="106" y="713" on="1"/>
        <pt x="106" y="750" on="1"/>
        <pt x="329" y="750" on="1"/>
        <pt x="737" y="158" on="1"/>
        <pt x="737" y="687" on="1"/>
        <pt x="639" y="713" on="1"/>
      </contour>
      <contour>
        <pt x="295" y="978" on="0"/>
        <pt x="344" y="1015" on="0"/>
        <pt x="413" y="1015" on="0"/>
        <pt x="504" y="951" on="0"/>
        <pt x="526" y="951" on="1"/>
        <pt x="563" y="951" on="0"/>
        <pt x="601" y="1007" on="1"/>
        <pt x="626" y="989" on="1"/>
        <pt x="562" y="883" on="0"/>
        <pt x="505" y="883" on="1"/>
        <pt x="480" y="883" on="0"/>
        <pt x="378" y="947" on="0"/>
        <pt x="312" y="947" on="0"/>
        <pt x="267" y="889" on="1"/>
        <pt x="245" y="907" on="1"/>
        <pt x="260" y="928" on="1"/>
      </contour>
    </TTGlyph>
    <TTGlyph name="O" xMin="60" yMin="-19" xMax="772" yMax="768">
      <contour>
        <pt x="658" y="550" on="0"/>
        <pt x="533" y="728" on="0"/>
        <pt x="298" y="728" on="0"/>
        <pt x="176" y="546" on="0"/>
        <pt x="176" y="204" on="0"/>
        <pt x="295" y="21" on="0"/>
        <pt x="529" y="21" on="0"/>
        <pt x="658" y="201" on="0"/>
      </contour>
      <contour>
        <pt x="60" y="555" on="0"/>
        <pt x="260" y="768" on="0"/>
        <pt x="575" y="768" on="0"/>
        <pt x="772" y="550" on="0"/>
        <pt x="772" y="196" on="0"/>
        <pt x="576" y="-19" on="0"/>
        <pt x="254" y="-19" on="0"/>
        <pt x="60" y="194" on="0"/>
      </contour>
    </TTGlyph>
    <TTGlyph name="OE" xMin="71" yMin="0" xMax="1106" yMax="750">
      <contour>
        <pt x="427" y="750" on="1"/>
        <pt x="1087" y="750" on="1"/>
        <pt x="1087" y="571" on="1"/>
        <pt x="1035" y="571" on="1"/>
        <pt x="996" y="707" on="1"/>
        <pt x="740" y="707" on="1"/>
        <pt x="740" y="408" on="1"/>
        <pt x="933" y="408" on="1"/>
        <pt x="960" y="495" on="1"/>
        <pt x="997" y="495" on="1"/>
        <pt x="997" y="288" on="1"/>
        <pt x="960" y="288" on="1"/>
        <pt x="933" y="364" on="1"/>
        <pt x="740" y="364" on="1"/>
        <pt x="740" y="43" on="1"/>
        <pt x="1014" y="43" on="1"/>
        <pt x="1053" y="178" on="1"/>
        <pt x="1106" y="178" on="1"/>
        <pt x="1106" y="0" on="1"/>
        <pt x="426" y="0" on="1"/>
        <pt x="263" y="0" on="0"/>
        <pt x="71" y="196" on="0"/>
        <pt x="71" y="553" on="0"/>
        <pt x="268" y="750" on="0"/>
      </contour>
      <contour>
        <pt x="428" y="710" on="1"/>
        <pt x="187" y="710" on="0"/>
        <pt x="187" y="40" on="0"/>
        <pt x="424" y="40" on="1"/>
        <pt x="541" y="40" on="0"/>
        <pt x="658" y="202" on="0"/>
        <pt x="658" y="377" on="1"/>
        <pt x="658" y="394" on="1"/>
        <pt x="654" y="557" on="0"/>
        <pt x="541" y="710" on="0"/>
      </contour>
    </TTGlyph>
    <TTGlyph name="Oacute" xMin="60" yMin="-19" xMax="772" yMax="947">
      <contour>
        <pt x="658" y="550" on="0"/>
        <pt x="533" y="728" on="0"/>
        <pt x="298" y="728" on="0"/>
        <pt x="176" y="546" on="0"/>
        <pt x="176" y="204" on="0"/>
        <pt x="295" y="21" on="0"/>
        <pt x="529" y="21" on="0"/>
        <pt x="658" y="201" on="0"/>
      </contour>
      <contour>
        <pt x="60" y="555" on="0"/>
        <pt x="260" y="768" on="0"/>
        <pt x="575" y="768" on="0"/>
        <pt x="772" y="550" on="0"/>
        <pt x="772" y="196" on="0"/>
        <pt x="576" y="-19" on="0"/>
        <pt x="254" y="-19" on="0"/>
        <pt x="60" y="194" on="0"/>
      </contour>
      <contour>
        <pt x="317" y="801" on="1"/>
        <pt x="285" y="801" on="1"/>
        <pt x="417" y="947" on="1"/>
        <pt x="551" y="947" on="1"/>
      </contour>
    </TTGlyph>
    <TTGlyph name="Obreve" xMin="60" yMin="-19" xMax="772" yMax="957">
      <contour>
        <pt x="658" y="550" on="0"/>
        <pt x="533" y="728" on="0"/>
        <pt x="298" y="728" on="0"/>
        <pt x="176" y="546" on="0"/>
        <pt x="176" y="204" on="0"/>
        <pt x="295" y="21" on="0"/>
        <pt x="529" y="21" on="0"/>
        <pt x="658" y="201" on="0"/>
      </contour>
      <contour>
        <pt x="60" y="555" on="0"/>
        <pt x="260" y="768" on="0"/>
        <pt x="575" y="768" on="0"/>
        <pt x="772" y="550" on="0"/>
        <pt x="772" y="196" on="0"/>
        <pt x="576" y="-19" on="0"/>
        <pt x="254" y="-19" on="0"/>
        <pt x="60" y="194" on="0"/>
      </contour>
      <contour>
        <pt x="557" y="957" on="1"/>
        <pt x="587" y="957" on="1"/>
        <pt x="587" y="883" on="0"/>
        <pt x="487" y="801" on="0"/>
        <pt x="349" y="801" on="0"/>
        <pt x="248" y="883" on="0"/>
        <pt x="248" y="957" on="1"/>
        <pt x="280" y="957" on="1"/>
        <pt x="280" y="917" on="0"/>
        <pt x="363" y="871" on="0"/>
        <pt x="474" y="871" on="0"/>
        <pt x="557" y="917" on="0"/>
      </contour>
    </TTGlyph>
    <TTGlyph name="Ocircumflex" xMin="60" yMin="-19" xMax="772" yMax="965">
      <contour>
        <pt x="658" y="550" on="0"/>
        <pt x="533" y="728" on="0"/>
        <pt x="298" y="728" on="0"/>
        <pt x="176" y="546" on="0"/>
        <pt x="176" y="204" on="0"/>
        <pt x="295" y="21" on="0"/>
        <pt x="529" y="21" on="0"/>
        <pt x="658" y="201" on="0"/>
      </contour>
      <contour>
        <pt x="60" y="555" on="0"/>
        <pt x="260" y="768" on="0"/>
        <pt x="575" y="768" on="0"/>
        <pt x="772" y="550" on="0"/>
        <pt x="772" y="196" on="0"/>
        <pt x="576" y="-19" on="0"/>
        <pt x="254" y="-19" on="0"/>
        <pt x="60" y="194" on="0"/>
      </contour>
      <contour>
        <pt x="426" y="965" on="1"/>
        <pt x="581" y="801" on="1"/>
        <pt x="541" y="801" on="1"/>
        <pt x="409" y="876" on="1"/>
        <pt x="285" y="801" on="1"/>
        <pt x="246" y="801" on="1"/>
        <pt x="392" y="965" on="1"/>
      </contour>
    </TTGlyph>
    <TTGlyph name="Odieresis" xMin="60" yMin="-19" xMax="772" yMax="929">
      <contour>
        <pt x="658" y="550" on="0"/>
        <pt x="533" y="728" on="0"/>
        <pt x="298" y="728" on="0"/>
        <pt x="176" y="546" on="0"/>
        <pt x="176" y="204" on="0"/>
        <pt x="295" y="21" on="0"/>
        <pt x="529" y="21" on="0"/>
        <pt x="658" y="201" on="0"/>
      </contour>
      <contour>
        <pt x="60" y="555" on="0"/>
        <pt x="260" y="768" on="0"/>
        <pt x="575" y="768" on="0"/>
        <pt x="772" y="550" on="0"/>
        <pt x="772" y="196" on="0"/>
        <pt x="576" y="-19" on="0"/>
        <pt x="254" y="-19" on="0"/>
        <pt x="60" y="194" on="0"/>
      </contour>
      <contour>
        <pt x="225" y="898" on="0"/>
        <pt x="260" y="929" on="0"/>
        <pt x="319" y="929" on="0"/>
        <pt x="355" y="898" on="0"/>
        <pt x="355" y="845" on="0"/>
        <pt x="321" y="813" on="0"/>
        <pt x="260" y="813" on="0"/>
        <pt x="225" y="844" on="0"/>
      </contour>
      <contour>
        <pt x="448" y="898" on="0"/>
        <pt x="483" y="929" on="0"/>
        <pt x="542" y="929" on="0"/>
        <pt x="578" y="898" on="0"/>
        <pt x="578" y="845" on="0"/>
        <pt x="544" y="813" on="0"/>
        <pt x="483" y="813" on="0"/>
        <pt x="448" y="844" on="0"/>
      </contour>
    </TTGlyph>
    <TTGlyph name="Ograve" xMin="60" yMin="-19" xMax="772" yMax="947">
      <contour>
        <pt x="658" y="550" on="0"/>
        <pt x="533" y="728" on="0"/>
        <pt x="298" y="728" on="0"/>
        <pt x="176" y="546" on="0"/>
        <pt x="176" y="204" on="0"/>
        <pt x="295" y="21" on="0"/>
        <pt x="529" y="21" on="0"/>
        <pt x="658" y="201" on="0"/>
      </contour>
      <contour>
        <pt x="60" y="555" on="0"/>
        <pt x="260" y="768" on="0"/>
        <pt x="575" y="768" on="0"/>
        <pt x="772" y="550" on="0"/>
        <pt x="772" y="196" on="0"/>
        <pt x="576" y="-19" on="0"/>
        <pt x="254" y="-19" on="0"/>
        <pt x="60" y="194" on="0"/>
      </contour>
      <contour>
        <pt x="539" y="802" on="1"/>
        <pt x="508" y="802" on="1"/>
        <pt x="273" y="947" on="1"/>
        <pt x="407" y="947" on="1"/>
      </contour>
    </TTGlyph>
    <TTGlyph name="Ohungarumlaut" xMin="60" yMin="-19" xMax="772" yMax="977">
      <contour>
        <pt x="658" y="550" on="0"/>
        <pt x="533" y="728" on="0"/>
        <pt x="298" y="728" on="0"/>
        <pt x="176" y="546" on="0"/>
        <pt x="176" y="204" on="0"/>
        <pt x="295" y="21" on="0"/>
        <pt x="529" y="21" on="0"/>
        <pt x="658" y="201" on="0"/>
      </contour>
      <contour>
        <pt x="60" y="555" on="0"/>
        <pt x="260" y="768" on="0"/>
        <pt x="575" y="768" on="0"/>
        <pt x="772" y="550" on="0"/>
        <pt x="772" y="196" on="0"/>
        <pt x="576" y="-19" on="0"/>
        <pt x="254" y="-19" on="0"/>
        <pt x="60" y="194" on="0"/>
      </contour>
      <contour>
        <pt x="426" y="801" on="1"/>
        <pt x="393" y="801" on="1"/>
        <pt x="516" y="977" on="1"/>
        <pt x="649" y="977" on="1"/>
      </contour>
      <contour>
        <pt x="247" y="801" on="1"/>
        <pt x="214" y="801" on="1"/>
        <pt x="337" y="977" on="1"/>
        <pt x="470" y="977" on="1"/>
      </contour>
    </TTGlyph>
    <TTGlyph name="Omacron" xMin="60" yMin="-19" xMax="772" yMax="937">
      <contour>
        <pt x="658" y="550" on="0"/>
        <pt x="533" y="728" on="0"/>
        <pt x="298" y="728" on="0"/>
        <pt x="176" y="546" on="0"/>
        <pt x="176" y="204" on="0"/>
        <pt x="295" y="21" on="0"/>
        <pt x="529" y="21" on="0"/>
        <pt x="658" y="201" on="0"/>
      </contour>
      <contour>
        <pt x="60" y="555" on="0"/>
        <pt x="260" y="768" on="0"/>
        <pt x="575" y="768" on="0"/>
        <pt x="772" y="550" on="0"/>
        <pt x="772" y="196" on="0"/>
        <pt x="576" y="-19" on="0"/>
        <pt x="254" y="-19" on="0"/>
        <pt x="60" y="194" on="0"/>
      </contour>
      <contour>
        <pt x="274" y="937" on="1"/>
        <pt x="563" y="937" on="1"/>
        <pt x="563" y="863" on="1"/>
        <pt x="274" y="863" on="1"/>
      </contour>
    </TTGlyph>
    <TTGlyph name="Oslash" xMin="58" yMin="-141" xMax="770" yMax="861">
      <contour>
        <pt x="770" y="373" on="1"/>
        <pt x="770" y="196" on="0"/>
        <pt x="574" y="-19" on="0"/>
        <pt x="413" y="-19" on="1"/>
        <pt x="353" y="-19" on="0"/>
        <pt x="302" y="-3" on="1"/>
        <pt x="247" y="-141" on="1"/>
        <pt x="193" y="-141" on="1"/>
        <pt x="255" y="14" on="1"/>
        <pt x="161" y="59" on="0"/>
        <pt x="58" y="244" on="0"/>
        <pt x="58" y="373" on="1"/>
        <pt x="58" y="555" on="0"/>
        <pt x="258" y="768" on="0"/>
        <pt x="414" y="768" on="1"/>
        <pt x="486" y="768" on="0"/>
        <pt x="546" y="744" on="1"/>
        <pt x="593" y="861" on="1"/>
        <pt x="646" y="861" on="1"/>
        <pt x="591" y="723" on="1"/>
        <pt x="676" y="675" on="0"/>
        <pt x="770" y="495" on="0"/>
      </contour>
      <contour>
        <pt x="415" y="728" on="1"/>
        <pt x="296" y="728" on="0"/>
        <pt x="174" y="546" on="0"/>
        <pt x="174" y="373" on="1"/>
        <pt x="174" y="149" on="0"/>
        <pt x="275" y="66" on="1"/>
        <pt x="528" y="699" on="1"/>
        <pt x="478" y="728" on="0"/>
      </contour>
      <contour>
        <pt x="656" y="377" on="1"/>
        <pt x="656" y="579" on="0"/>
        <pt x="569" y="668" on="1"/>
        <pt x="319" y="39" on="1"/>
        <pt x="360" y="21" on="0"/>
        <pt x="411" y="21" on="1"/>
        <pt x="527" y="21" on="0"/>
        <pt x="656" y="201" on="0"/>
      </contour>
    </TTGlyph>
    <TTGlyph name="Oslashacute" xMin="58" yMin="-141" xMax="770" yMax="947">
      <contour>
        <pt x="770" y="373" on="1"/>
        <pt x="770" y="196" on="0"/>
        <pt x="574" y="-19" on="0"/>
        <pt x="413" y="-19" on="1"/>
        <pt x="353" y="-19" on="0"/>
        <pt x="302" y="-3" on="1"/>
        <pt x="247" y="-141" on="1"/>
        <pt x="193" y="-141" on="1"/>
        <pt x="255" y="14" on="1"/>
        <pt x="161" y="59" on="0"/>
        <pt x="58" y="244" on="0"/>
        <pt x="58" y="373" on="1"/>
        <pt x="58" y="555" on="0"/>
        <pt x="258" y="768" on="0"/>
        <pt x="414" y="768" on="1"/>
        <pt x="486" y="768" on="0"/>
        <pt x="546" y="744" on="1"/>
        <pt x="593" y="861" on="1"/>
        <pt x="646" y="861" on="1"/>
        <pt x="591" y="723" on="1"/>
        <pt x="676" y="675" on="0"/>
        <pt x="770" y="495" on="0"/>
      </contour>
      <contour>
        <pt x="415" y="728" on="1"/>
        <pt x="296" y="728" on="0"/>
        <pt x="174" y="546" on="0"/>
        <pt x="174" y="373" on="1"/>
        <pt x="174" y="149" on="0"/>
        <pt x="275" y="66" on="1"/>
        <pt x="528" y="699" on="1"/>
        <pt x="478" y="728" on="0"/>
      </contour>
      <contour>
        <pt x="656" y="377" on="1"/>
        <pt x="656" y="579" on="0"/>
        <pt x="569" y="668" on="1"/>
        <pt x="319" y="39" on="1"/>
        <pt x="360" y="21" on="0"/>
        <pt x="411" y="21" on="1"/>
        <pt x="527" y="21" on="0"/>
        <pt x="656" y="201" on="0"/>
      </contour>
      <contour>
        <pt x="309" y="801" on="1"/>
        <pt x="277" y="801" on="1"/>
        <pt x="409" y="947" on="1"/>
        <pt x="543" y="947" on="1"/>
      </contour>
    </TTGlyph>
    <TTGlyph name="Otilde" xMin="60" yMin="-19" xMax="772" yMax="933">
      <contour>
        <pt x="658" y="550" on="0"/>
        <pt x="533" y="728" on="0"/>
        <pt x="298" y="728" on="0"/>
        <pt x="176" y="546" on="0"/>
        <pt x="176" y="204" on="0"/>
        <pt x="295" y="21" on="0"/>
        <pt x="529" y="21" on="0"/>
        <pt x="658" y="201" on="0"/>
      </contour>
      <contour>
        <pt x="60" y="555" on="0"/>
        <pt x="260" y="768" on="0"/>
        <pt x="575" y="768" on="0"/>
        <pt x="772" y="550" on="0"/>
        <pt x="772" y="196" on="0"/>
        <pt x="576" y="-19" on="0"/>
        <pt x="254" y="-19" on="0"/>
        <pt x="60" y="194" on="0"/>
      </contour>
      <contour>
        <pt x="264" y="896" on="0"/>
        <pt x="313" y="933" on="0"/>
        <pt x="382" y="933" on="0"/>
        <pt x="473" y="869" on="0"/>
        <pt x="495" y="869" on="1"/>
        <pt x="532" y="869" on="0"/>
        <pt x="570" y="925" on="1"/>
        <pt x="595" y="907" on="1"/>
        <pt x="531" y="801" on="0"/>
        <pt x="474" y="801" on="1"/>
        <pt x="448" y="801" on="0"/>
        <pt x="348" y="865" on="0"/>
        <pt x="281" y="865" on="0"/>
        <pt x="236" y="807" on="1"/>
        <pt x="214" y="825" on="1"/>
        <pt x="229" y="846" on="1"/>
      </contour>
    </TTGlyph>
    <TTGlyph name="P" xMin="90" yMin="0" xMax="688" yMax="750">
      <contour>
        <pt x="90" y="750" on="1"/>
        <pt x="391" y="750" on="1"/>
        <pt x="550" y="750" on="0"/>
        <pt x="688" y="649" on="0"/>
        <pt x="688" y="541" on="1"/>
        <pt x="688" y="410" on="0"/>
        <pt x="599" y="364" on="1"/>
        <pt x="520" y="324" on="0"/>
        <pt x="383" y="324" on="1"/>
        <pt x="292" y="324" on="1"/>
        <pt x="292" y="60" on="1"/>
        <pt x="394" y="37" on="1"/>
        <pt x="394" y="0" on="1"/>
        <pt x="90" y="0" on="1"/>
        <pt x="90" y="37" on="1"/>
        <pt x="187" y="60" on="1"/>
        <pt x="187" y="690" on="1"/>
        <pt x="90" y="713" on="1"/>
      </contour>
      <contour>
        <pt x="292" y="364" on="1"/>
        <pt x="404" y="364" on="1"/>
        <pt x="489" y="364" on="0"/>
        <pt x="572" y="448" on="0"/>
        <pt x="572" y="626" on="0"/>
        <pt x="489" y="710" on="0"/>
        <pt x="404" y="710" on="1"/>
        <pt x="292" y="710" on="1"/>
      </contour>
    </TTGlyph>
    <TTGlyph name="Q" xMin="60" yMin="-232" xMax="789" yMax="768">
      <contour>
        <pt x="657" y="549" on="0"/>
        <pt x="530" y="726" on="0"/>
        <pt x="297" y="726" on="0"/>
        <pt x="175" y="547" on="0"/>
        <pt x="175" y="208" on="0"/>
        <pt x="295" y="24" on="0"/>
        <pt x="530" y="24" on="0"/>
        <pt x="657" y="199" on="0"/>
      </contour>
      <contour>
        <pt x="789" y="-232" on="1"/>
        <pt x="751" y="-232" on="1"/>
        <pt x="652" y="-232" on="0"/>
        <pt x="508" y="-178" on="0"/>
        <pt x="421" y="-90" on="0"/>
        <pt x="383" y="-19" on="1"/>
        <pt x="236" y="-5" on="0"/>
        <pt x="60" y="208" on="0"/>
        <pt x="60" y="554" on="0"/>
        <pt x="259" y="768" on="0"/>
        <pt x="571" y="768" on="0"/>
        <pt x="771" y="555" on="0"/>
        <pt x="771" y="373" on="1"/>
        <pt x="771" y="229" on="0"/>
        <pt x="640" y="31" on="0"/>
        <pt x="528" y="-2" on="1"/>
        <pt x="493" y="-12" on="1"/>
        <pt x="561" y="-122" on="0"/>
        <pt x="671" y="-189" on="0"/>
        <pt x="789" y="-199" on="1"/>
      </contour>
    </TTGlyph>
    <TTGlyph name="R" xMin="90" yMin="0" xMax="797" yMax="750">
      <contour>
        <pt x="797" y="0" on="1"/>
        <pt x="595" y="0" on="1"/>
        <pt x="348" y="334" on="1"/>
        <pt x="292" y="334" on="1"/>
        <pt x="292" y="60" on="1"/>
        <pt x="394" y="37" on="1"/>
        <pt x="394" y="0" on="1"/>
        <pt x="90" y="0" on="1"/>
        <pt x="90" y="37" on="1"/>
        <pt x="187" y="60" on="1"/>
        <pt x="187" y="690" on="1"/>
        <pt x="90" y="713" on="1"/>
        <pt x="90" y="750" on="1"/>
        <pt x="391" y="750" on="1"/>
        <pt x="550" y="750" on="0"/>
        <pt x="688" y="654" on="0"/>
        <pt x="688" y="442" on="0"/>
        <pt x="564" y="339" on="0"/>
        <pt x="463" y="339" on="1"/>
        <pt x="688" y="59" on="1"/>
        <pt x="797" y="37" on="1"/>
      </contour>
      <contour>
        <pt x="292" y="710" on="1"/>
        <pt x="292" y="373" on="1"/>
        <pt x="404" y="373" on="1"/>
        <pt x="489" y="373" on="0"/>
        <pt x="572" y="453" on="0"/>
        <pt x="572" y="630" on="0"/>
        <pt x="490" y="710" on="0"/>
        <pt x="404" y="710" on="1"/>
      </contour>
    </TTGlyph>
    <TTGlyph name="Racute" xMin="90" yMin="0" xMax="797" yMax="947">
      <contour>
        <pt x="797" y="0" on="1"/>
        <pt x="595" y="0" on="1"/>
        <pt x="348" y="334" on="1"/>
        <pt x="292" y="334" on="1"/>
        <pt x="292" y="60" on="1"/>
        <pt x="394" y="37" on="1"/>
        <pt x="394" y="0" on="1"/>
        <pt x="90" y="0" on="1"/>
        <pt x="90" y="37" on="1"/>
        <pt x="187" y="60" on="1"/>
        <pt x="187" y="690" on="1"/>
        <pt x="90" y="713" on="1"/>
        <pt x="90" y="750" on="1"/>
        <pt x="391" y="750" on="1"/>
        <pt x="550" y="750" on="0"/>
        <pt x="688" y="654" on="0"/>
        <pt x="688" y="442" on="0"/>
        <pt x="564" y="339" on="0"/>
        <pt x="463" y="339" on="1"/>
        <pt x="688" y="59" on="1"/>
        <pt x="797" y="37" on="1"/>
      </contour>
      <contour>
        <pt x="292" y="710" on="1"/>
        <pt x="292" y="373" on="1"/>
        <pt x="404" y="373" on="1"/>
        <pt x="489" y="373" on="0"/>
        <pt x="572" y="453" on="0"/>
        <pt x="572" y="630" on="0"/>
        <pt x="490" y="710" on="0"/>
        <pt x="404" y="710" on="1"/>
      </contour>
      <contour>
        <pt x="284" y="801" on="1"/>
        <pt x="252" y="801" on="1"/>
        <pt x="384" y="947" on="1"/>
        <pt x="518" y="947" on="1"/>
      </contour>
    </TTGlyph>
    <TTGlyph name="Rcaron" xMin="90" yMin="0" xMax="797" yMax="964">
      <contour>
        <pt x="797" y="0" on="1"/>
        <pt x="595" y="0" on="1"/>
        <pt x="348" y="334" on="1"/>
        <pt x="292" y="334" on="1"/>
        <pt x="292" y="60" on="1"/>
        <pt x="394" y="37" on="1"/>
        <pt x="394" y="0" on="1"/>
        <pt x="90" y="0" on="1"/>
        <pt x="90" y="37" on="1"/>
        <pt x="187" y="60" on="1"/>
        <pt x="187" y="690" on="1"/>
        <pt x="90" y="713" on="1"/>
        <pt x="90" y="750" on="1"/>
        <pt x="391" y="750" on="1"/>
        <pt x="550" y="750" on="0"/>
        <pt x="688" y="654" on="0"/>
        <pt x="688" y="442" on="0"/>
        <pt x="564" y="339" on="0"/>
        <pt x="463" y="339" on="1"/>
        <pt x="688" y="59" on="1"/>
        <pt x="797" y="37" on="1"/>
      </contour>
      <contour>
        <pt x="292" y="710" on="1"/>
        <pt x="292" y="373" on="1"/>
        <pt x="404" y="373" on="1"/>
        <pt x="489" y="373" on="0"/>
        <pt x="572" y="453" on="0"/>
        <pt x="572" y="630" on="0"/>
        <pt x="490" y="710" on="0"/>
        <pt x="404" y="710" on="1"/>
      </contour>
      <contour>
        <pt x="372" y="801" on="1"/>
        <pt x="220" y="964" on="1"/>
        <pt x="259" y="964" on="1"/>
        <pt x="389" y="891" on="1"/>
        <pt x="515" y="964" on="1"/>
        <pt x="555" y="964" on="1"/>
        <pt x="405" y="801" on="1"/>
      </contour>
    </TTGlyph>
    <TTGlyph name="S" xMin="70" yMin="-9" xMax="582" yMax="759">
      <contour>
        <pt x="307" y="-9" on="1"/>
        <pt x="191" y="-9" on="0"/>
        <pt x="75" y="63" on="1"/>
        <pt x="75" y="228" on="1"/>
        <pt x="133" y="228" on="1"/>
        <pt x="176" y="66" on="1"/>
        <pt x="233" y="30" on="0"/>
        <pt x="304" y="30" on="1"/>
        <pt x="357" y="30" on="0"/>
        <pt x="412" y="54" on="1"/>
        <pt x="441" y="67" on="0"/>
        <pt x="479" y="117" on="0"/>
        <pt x="481" y="151" on="1"/>
        <pt x="478" y="231" on="0"/>
        <pt x="398" y="284" on="1"/>
        <pt x="368" y="303" on="0"/>
        <pt x="266" y="350" on="0"/>
        <pt x="251" y="357" on="1"/>
        <pt x="70" y="431" on="0"/>
        <pt x="70" y="559" on="1"/>
        <pt x="70" y="639" on="0"/>
        <pt x="194" y="759" on="0"/>
        <pt x="309" y="759" on="1"/>
        <pt x="368" y="759" on="0"/>
        <pt x="494" y="722" on="0"/>
        <pt x="536" y="682" on="1"/>
        <pt x="536" y="536" on="1"/>
        <pt x="485" y="536" on="1"/>
        <pt x="439" y="688" on="1"/>
        <pt x="383" y="718" on="0"/>
        <pt x="255" y="718" on="0"/>
        <pt x="169" y="657" on="0"/>
        <pt x="169" y="603" on="1"/>
        <pt x="169" y="540" on="0"/>
        <pt x="222" y="502" on="1"/>
        <pt x="267" y="469" on="0"/>
        <pt x="367" y="424" on="0"/>
        <pt x="379" y="418" on="1"/>
        <pt x="582" y="332" on="0"/>
        <pt x="582" y="196" on="1"/>
        <pt x="582" y="128" on="0"/>
        <pt x="536" y="80" on="1"/>
        <pt x="452" y="-9" on="0"/>
      </contour>
    </TTGlyph>
    <TTGlyph name="Sacute" xMin="70" yMin="-9" xMax="582" yMax="947">
      <contour>
        <pt x="307" y="-9" on="1"/>
        <pt x="191" y="-9" on="0"/>
        <pt x="75" y="63" on="1"/>
        <pt x="75" y="228" on="1"/>
        <pt x="133" y="228" on="1"/>
        <pt x="176" y="66" on="1"/>
        <pt x="233" y="30" on="0"/>
        <pt x="304" y="30" on="1"/>
        <pt x="357" y="30" on="0"/>
        <pt x="412" y="54" on="1"/>
        <pt x="441" y="67" on="0"/>
        <pt x="479" y="117" on="0"/>
        <pt x="481" y="151" on="1"/>
        <pt x="478" y="231" on="0"/>
        <pt x="398" y="284" on="1"/>
        <pt x="368" y="303" on="0"/>
        <pt x="266" y="350" on="0"/>
        <pt x="251" y="357" on="1"/>
        <pt x="70" y="431" on="0"/>
        <pt x="70" y="559" on="1"/>
        <pt x="70" y="639" on="0"/>
        <pt x="194" y="759" on="0"/>
        <pt x="309" y="759" on="1"/>
        <pt x="368" y="759" on="0"/>
        <pt x="494" y="722" on="0"/>
        <pt x="536" y="682" on="1"/>
        <pt x="536" y="536" on="1"/>
        <pt x="485" y="536" on="1"/>
        <pt x="439" y="688" on="1"/>
        <pt x="383" y="718" on="0"/>
        <pt x="255" y="718" on="0"/>
        <pt x="169" y="657" on="0"/>
        <pt x="169" y="603" on="1"/>
        <pt x="169" y="540" on="0"/>
        <pt x="222" y="502" on="1"/>
        <pt x="267" y="469" on="0"/>
        <pt x="367" y="424" on="0"/>
        <pt x="379" y="418" on="1"/>
        <pt x="582" y="332" on="0"/>
        <pt x="582" y="196" on="1"/>
        <pt x="582" y="128" on="0"/>
        <pt x="536" y="80" on="1"/>
        <pt x="452" y="-9" on="0"/>
      </contour>
      <contour>
        <pt x="209" y="801" on="1"/>
        <pt x="177" y="801" on="1"/>
        <pt x="309" y="947" on="1"/>
        <pt x="443" y="947" on="1"/>
      </contour>
    </TTGlyph>
    <TTGlyph name="Scaron" xMin="43" yMin="-9" xMax="555" yMax="964">
      <contour>
        <pt x="280" y="-9" on="1"/>
        <pt x="164" y="-9" on="0"/>
        <pt x="48" y="63" on="1"/>
        <pt x="48" y="228" on="1"/>
        <pt x="106" y="228" on="1"/>
        <pt x="149" y="66" on="1"/>
        <pt x="206" y="30" on="0"/>
        <pt x="277" y="30" on="1"/>
        <pt x="330" y="30" on="0"/>
        <pt x="386" y="54" on="1"/>
        <pt x="414" y="67" on="0"/>
        <pt x="452" y="117" on="0"/>
        <pt x="454" y="151" on="1"/>
        <pt x="451" y="231" on="0"/>
        <pt x="371" y="284" on="1"/>
        <pt x="341" y="303" on="0"/>
        <pt x="239" y="350" on="0"/>
        <pt x="224" y="357" on="1"/>
        <pt x="43" y="431" on="0"/>
        <pt x="43" y="559" on="1"/>
        <pt x="43" y="639" on="0"/>
        <pt x="167" y="759" on="0"/>
        <pt x="282" y="759" on="1"/>
        <pt x="341" y="759" on="0"/>
        <pt x="467" y="722" on="0"/>
        <pt x="509" y="682" on="1"/>
        <pt x="509" y="536" on="1"/>
        <pt x="458" y="536" on="1"/>
        <pt x="412" y="688" on="1"/>
        <pt x="356" y="718" on="0"/>
        <pt x="228" y="718" on="0"/>
        <pt x="142" y="657" on="0"/>
        <pt x="142" y="603" on="1"/>
        <pt x="142" y="540" on="0"/>
        <pt x="194" y="502" on="1"/>
        <pt x="240" y="469" on="0"/>
        <pt x="340" y="424" on="0"/>
        <pt x="352" y="418" on="1"/>
        <pt x="555" y="332" on="0"/>
        <pt x="555" y="196" on="1"/>
        <pt x="555" y="128" on="0"/>
        <pt x="509" y="80" on="1"/>
        <pt x="425" y="-9" on="0"/>
      </contour>
      <contour>
        <pt x="280" y="801" on="1"/>
        <pt x="128" y="964" on="1"/>
        <pt x="167" y="964" on="1"/>
        <pt x="297" y="891" on="1"/>
        <pt x="423" y="964" on="1"/>
        <pt x="463" y="964" on="1"/>
        <pt x="313" y="801" on="1"/>
      </contour>
    </TTGlyph>
    <TTGlyph name="Scedilla" xMin="70" yMin="-236" xMax="582" yMax="759">
      <contour>
        <pt x="263" y="-6" on="1"/>
        <pt x="163" y="7" on="0"/>
        <pt x="75" y="63" on="1"/>
        <pt x="75" y="228" on="1"/>
        <pt x="133" y="228" on="1"/>
        <pt x="176" y="66" on="1"/>
        <pt x="233" y="30" on="0"/>
        <pt x="304" y="30" on="1"/>
        <pt x="357" y="30" on="0"/>
        <pt x="412" y="54" on="1"/>
        <pt x="441" y="67" on="0"/>
        <pt x="479" y="117" on="0"/>
        <pt x="481" y="151" on="1"/>
        <pt x="478" y="231" on="0"/>
        <pt x="398" y="284" on="1"/>
        <pt x="368" y="303" on="0"/>
        <pt x="266" y="350" on="0"/>
        <pt x="251" y="357" on="1"/>
        <pt x="70" y="431" on="0"/>
        <pt x="70" y="559" on="1"/>
        <pt x="70" y="639" on="0"/>
        <pt x="194" y="759" on="0"/>
        <pt x="309" y="759" on="1"/>
        <pt x="368" y="759" on="0"/>
        <pt x="494" y="722" on="0"/>
        <pt x="536" y="682" on="1"/>
        <pt x="536" y="536" on="1"/>
        <pt x="485" y="536" on="1"/>
        <pt x="439" y="688" on="1"/>
        <pt x="383" y="718" on="0"/>
        <pt x="255" y="718" on="0"/>
        <pt x="169" y="657" on="0"/>
        <pt x="169" y="603" on="1"/>
        <pt x="169" y="540" on="0"/>
        <pt x="222" y="502" on="1"/>
        <pt x="267" y="469" on="0"/>
        <pt x="367" y="424" on="0"/>
        <pt x="379" y="418" on="1"/>
        <pt x="582" y="332" on="0"/>
        <pt x="582" y="196" on="1"/>
        <pt x="582" y="128" on="0"/>
        <pt x="536" y="80" on="1"/>
        <pt x="452" y="-9" on="0"/>
        <pt x="307" y="-9" on="1"/>
        <pt x="305" y="-9" on="1"/>
        <pt x="305" y="-43" on="1"/>
        <pt x="340" y="-45" on="0"/>
        <pt x="387" y="-83" on="0"/>
        <pt x="387" y="-118" on="1"/>
        <pt x="387" y="-201" on="0"/>
        <pt x="226" y="-236" on="1"/>
        <pt x="216" y="-212" on="1"/>
        <pt x="220" y="-210" on="0"/>
        <pt x="260" y="-191" on="0"/>
        <pt x="279" y="-179" on="0"/>
        <pt x="294" y="-168" on="1"/>
        <pt x="321" y="-149" on="0"/>
        <pt x="321" y="-118" on="1"/>
        <pt x="321" y="-82" on="0"/>
        <pt x="263" y="-72" on="1"/>
      </contour>
    </TTGlyph>
    <TTGlyph name="Scircumflex" xMin="70" yMin="-9" xMax="582" yMax="965">
      <contour>
        <pt x="307" y="-9" on="1"/>
        <pt x="191" y="-9" on="0"/>
        <pt x="75" y="63" on="1"/>
        <pt x="75" y="228" on="1"/>
        <pt x="133" y="228" on="1"/>
        <pt x="176" y="66" on="1"/>
        <pt x="233" y="30" on="0"/>
        <pt x="304" y="30" on="1"/>
        <pt x="357" y="30" on="0"/>
        <pt x="412" y="54" on="1"/>
        <pt x="441" y="67" on="0"/>
        <pt x="479" y="117" on="0"/>
        <pt x="481" y="151" on="1"/>
        <pt x="478" y="231" on="0"/>
        <pt x="398" y="284" on="1"/>
        <pt x="368" y="303" on="0"/>
        <pt x="266" y="350" on="0"/>
        <pt x="251" y="357" on="1"/>
        <pt x="70" y="431" on="0"/>
        <pt x="70" y="559" on="1"/>
        <pt x="70" y="639" on="0"/>
        <pt x="194" y="759" on="0"/>
        <pt x="309" y="759" on="1"/>
        <pt x="368" y="759" on="0"/>
        <pt x="494" y="722" on="0"/>
        <pt x="536" y="682" on="1"/>
        <pt x="536" y="536" on="1"/>
        <pt x="485" y="536" on="1"/>
        <pt x="439" y="688" on="1"/>
        <pt x="383" y="718" on="0"/>
        <pt x="255" y="718" on="0"/>
        <pt x="169" y="657" on="0"/>
        <pt x="169" y="603" on="1"/>
        <pt x="169" y="540" on="0"/>
        <pt x="222" y="502" on="1"/>
        <pt x="267" y="469" on="0"/>
        <pt x="367" y="424" on="0"/>
        <pt x="379" y="418" on="1"/>
        <pt x="582" y="332" on="0"/>
        <pt x="582" y="196" on="1"/>
        <pt x="582" y="128" on="0"/>
        <pt x="536" y="80" on="1"/>
        <pt x="452" y="-9" on="0"/>
      </contour>
      <contour>
        <pt x="333" y="965" on="1"/>
        <pt x="488" y="801" on="1"/>
        <pt x="448" y="801" on="1"/>
        <pt x="316" y="876" on="1"/>
        <pt x="192" y="801" on="1"/>
        <pt x="153" y="801" on="1"/>
        <pt x="299" y="965" on="1"/>
      </contour>
    </TTGlyph>
    <TTGlyph name="T" xMin="30" yMin="0" xMax="686" yMax="750">
      <contour>
        <pt x="207" y="0" on="1"/>
        <pt x="207" y="37" on="1"/>
        <pt x="304" y="60" on="1"/>
        <pt x="304" y="707" on="1"/>
        <pt x="121" y="707" on="1"/>
        <pt x="82" y="561" on="1"/>
        <pt x="30" y="561" on="1"/>
        <pt x="30" y="750" on="1"/>
        <pt x="686" y="750" on="1"/>
        <pt x="686" y="561" on="1"/>
        <pt x="634" y="561" on="1"/>
        <pt x="595" y="707" on="1"/>
        <pt x="409" y="707" on="1"/>
        <pt x="409" y="59" on="1"/>
        <pt x="511" y="37" on="1"/>
        <pt x="511" y="0" on="1"/>
      </contour>
    </TTGlyph>
    <TTGlyph name="Tbar" xMin="30" yMin="0" xMax="686" yMax="750">
      <contour>
        <pt x="118" y="362" on="1"/>
        <pt x="118" y="405" on="1"/>
        <pt x="304" y="405" on="1"/>
        <pt x="304" y="707" on="1"/>
        <pt x="121" y="707" on="1"/>
        <pt x="82" y="561" on="1"/>
        <pt x="30" y="561" on="1"/>
        <pt x="30" y="750" on="1"/>
        <pt x="686" y="750" on="1"/>
        <pt x="686" y="561" on="1"/>
        <pt x="634" y="561" on="1"/>
        <pt x="595" y="707" on="1"/>
        <pt x="409" y="707" on="1"/>
        <pt x="409" y="405" on="1"/>
        <pt x="612" y="405" on="1"/>
        <pt x="612" y="362" on="1"/>
        <pt x="409" y="362" on="1"/>
        <pt x="409" y="59" on="1"/>
        <pt x="511" y="37" on="1"/>
        <pt x="511" y="0" on="1"/>
        <pt x="207" y="0" on="1"/>
        <pt x="207" y="37" on="1"/>
        <pt x="304" y="60" on="1"/>
        <pt x="304" y="362" on="1"/>
      </contour>
    </TTGlyph>
    <TTGlyph name="Tcaron" xMin="30" yMin="0" xMax="686" yMax="964">
      <contour>
        <pt x="207" y="0" on="1"/>
        <pt x="207" y="37" on="1"/>
        <pt x="304" y="60" on="1"/>
        <pt x="304" y="707" on="1"/>
        <pt x="121" y="707" on="1"/>
        <pt x="82" y="561" on="1"/>
        <pt x="30" y="561" on="1"/>
        <pt x="30" y="750" on="1"/>
        <pt x="686" y="750" on="1"/>
        <pt x="686" y="561" on="1"/>
        <pt x="634" y="561" on="1"/>
        <pt x="595" y="707" on="1"/>
        <pt x="409" y="707" on="1"/>
        <pt x="409" y="59" on="1"/>
        <pt x="511" y="37" on="1"/>
        <pt x="511" y="0" on="1"/>
      </contour>
      <contour>
        <pt x="342" y="801" on="1"/>
        <pt x="190" y="964" on="1"/>
        <pt x="229" y="964" on="1"/>
        <pt x="359" y="891" on="1"/>
        <pt x="485" y="964" on="1"/>
        <pt x="525" y="964" on="1"/>
        <pt x="375" y="801" on="1"/>
      </contour>
    </TTGlyph>
    <TTGlyph name="Thorn" xMin="108" yMin="0" xMax="704" yMax="750">
      <contour>
        <pt x="312" y="648" on="1"/>
        <pt x="405" y="648" on="1"/>
        <pt x="704" y="648" on="0"/>
        <pt x="704" y="410" on="1"/>
        <pt x="704" y="295" on="0"/>
        <pt x="542" y="160" on="0"/>
        <pt x="401" y="160" on="1"/>
        <pt x="312" y="160" on="1"/>
        <pt x="312" y="61" on="1"/>
        <pt x="415" y="36" on="1"/>
        <pt x="415" y="0" on="1"/>
        <pt x="108" y="0" on="1"/>
        <pt x="108" y="36" on="1"/>
        <pt x="206" y="61" on="1"/>
        <pt x="206" y="688" on="1"/>
        <pt x="108" y="714" on="1"/>
        <pt x="108" y="750" on="1"/>
        <pt x="400" y="750" on="1"/>
        <pt x="400" y="724" on="1"/>
        <pt x="312" y="688" on="1"/>
      </contour>
      <contour>
        <pt x="312" y="204" on="1"/>
        <pt x="370" y="204" on="1"/>
        <pt x="472" y="204" on="0"/>
        <pt x="587" y="307" on="0"/>
        <pt x="587" y="499" on="0"/>
        <pt x="491" y="604" on="0"/>
        <pt x="400" y="604" on="1"/>
        <pt x="312" y="604" on="1"/>
      </contour>
    </TTGlyph>
    <TTGlyph name="U" xMin="60" yMin="-15" xMax="830" yMax="750">
      <contour>
        <pt x="581" y="750" on="1"/>
        <pt x="830" y="750" on="1"/>
        <pt x="830" y="714" on="1"/>
        <pt x="736" y="689" on="1"/>
        <pt x="736" y="288" on="1"/>
        <pt x="736" y="-15" on="0"/>
        <pt x="446" y="-15" on="1"/>
        <pt x="298" y="-15" on="0"/>
        <pt x="160" y="144" on="0"/>
        <pt x="160" y="301" on="1"/>
        <pt x="160" y="689" on="1"/>
        <pt x="60" y="713" on="1"/>
        <pt x="60" y="750" on="1"/>
        <pt x="364" y="750" on="1"/>
        <pt x="364" y="713" on="1"/>
        <pt x="265" y="690" on="1"/>
        <pt x="265" y="282" on="1"/>
        <pt x="265" y="152" on="0"/>
        <pt x="367" y="31" on="0"/>
        <pt x="468" y="31" on="1"/>
        <pt x="681" y="31" on="0"/>
        <pt x="681" y="293" on="1"/>
        <pt x="681" y="689" on="1"/>
        <pt x="581" y="714" on="1"/>
      </contour>
    </TTGlyph>
    <TTGlyph name="Uacute" xMin="60" yMin="-15" xMax="830" yMax="947">
      <contour>
        <pt x="581" y="750" on="1"/>
        <pt x="830" y="750" on="1"/>
        <pt x="830" y="714" on="1"/>
        <pt x="736" y="689" on="1"/>
        <pt x="736" y="288" on="1"/>
        <pt x="736" y="-15" on="0"/>
        <pt x="446" y="-15" on="1"/>
        <pt x="298" y="-15" on="0"/>
        <pt x="160" y="144" on="0"/>
        <pt x="160" y="301" on="1"/>
        <pt x="160" y="689" on="1"/>
        <pt x="60" y="713" on="1"/>
        <pt x="60" y="750" on="1"/>
        <pt x="364" y="750" on="1"/>
        <pt x="364" y="713" on="1"/>
        <pt x="265" y="690" on="1"/>
        <pt x="265" y="282" on="1"/>
        <pt x="265" y="152" on="0"/>
        <pt x="367" y="31" on="0"/>
        <pt x="468" y="31" on="1"/>
        <pt x="681" y="31" on="0"/>
        <pt x="681" y="293" on="1"/>
        <pt x="681" y="689" on="1"/>
        <pt x="581" y="714" on="1"/>
      </contour>
      <contour>
        <pt x="348" y="801" on="1"/>
        <pt x="316" y="801" on="1"/>
        <pt x="448" y="947" on="1"/>
        <pt x="582" y="947" on="1"/>
      </contour>
    </TTGlyph>
    <TTGlyph name="Ubreve" xMin="60" yMin="-15" xMax="830" yMax="957">
      <contour>
        <pt x="581" y="750" on="1"/>
        <pt x="830" y="750" on="1"/>
        <pt x="830" y="714" on="1"/>
        <pt x="736" y="689" on="1"/>
        <pt x="736" y="288" on="1"/>
        <pt x="736" y="-15" on="0"/>
        <pt x="446" y="-15" on="1"/>
        <pt x="298" y="-15" on="0"/>
        <pt x="160" y="144" on="0"/>
        <pt x="160" y="301" on="1"/>
        <pt x="160" y="689" on="1"/>
        <pt x="60" y="713" on="1"/>
        <pt x="60" y="750" on="1"/>
        <pt x="364" y="750" on="1"/>
        <pt x="364" y="713" on="1"/>
        <pt x="265" y="690" on="1"/>
        <pt x="265" y="282" on="1"/>
        <pt x="265" y="152" on="0"/>
        <pt x="367" y="31" on="0"/>
        <pt x="468" y="31" on="1"/>
        <pt x="681" y="31" on="0"/>
        <pt x="681" y="293" on="1"/>
        <pt x="681" y="689" on="1"/>
        <pt x="581" y="714" on="1"/>
      </contour>
      <contour>
        <pt x="598" y="957" on="1"/>
        <pt x="628" y="957" on="1"/>
        <pt x="628" y="883" on="0"/>
        <pt x="528" y="801" on="0"/>
        <pt x="390" y="801" on="0"/>
        <pt x="289" y="883" on="0"/>
        <pt x="289" y="957" on="1"/>
        <pt x="321" y="957" on="1"/>
        <pt x="321" y="917" on="0"/>
        <pt x="404" y="871" on="0"/>
        <pt x="515" y="871" on="0"/>
        <pt x="598" y="917" on="0"/>
      </contour>
    </TTGlyph>
    <TTGlyph name="Ucircumflex" xMin="60" yMin="-15" xMax="830" yMax="965">
      <contour>
        <pt x="581" y="750" on="1"/>
        <pt x="830" y="750" on="1"/>
        <pt x="830" y="714" on="1"/>
        <pt x="736" y="689" on="1"/>
        <pt x="736" y="288" on="1"/>
        <pt x="736" y="-15" on="0"/>
        <pt x="446" y="-15" on="1"/>
        <pt x="298" y="-15" on="0"/>
        <pt x="160" y="144" on="0"/>
        <pt x="160" y="301" on="1"/>
        <pt x="160" y="689" on="1"/>
        <pt x="60" y="713" on="1"/>
        <pt x="60" y="750" on="1"/>
        <pt x="364" y="750" on="1"/>
        <pt x="364" y="713" on="1"/>
        <pt x="265" y="690" on="1"/>
        <pt x="265" y="282" on="1"/>
        <pt x="265" y="152" on="0"/>
        <pt x="367" y="31" on="0"/>
        <pt x="468" y="31" on="1"/>
        <pt x="681" y="31" on="0"/>
        <pt x="681" y="293" on="1"/>
        <pt x="681" y="689" on="1"/>
        <pt x="581" y="714" on="1"/>
      </contour>
      <contour>
        <pt x="489" y="965" on="1"/>
        <pt x="644" y="801" on="1"/>
        <pt x="604" y="801" on="1"/>
        <pt x="472" y="876" on="1"/>
        <pt x="348" y="801" on="1"/>
        <pt x="309" y="801" on="1"/>
        <pt x="455" y="965" on="1"/>
      </contour>
    </TTGlyph>
    <TTGlyph name="Udieresis" xMin="60" yMin="-15" xMax="830" yMax="935">
      <contour>
        <pt x="581" y="750" on="1"/>
        <pt x="830" y="750" on="1"/>
        <pt x="830" y="714" on="1"/>
        <pt x="736" y="689" on="1"/>
        <pt x="736" y="288" on="1"/>
        <pt x="736" y="-15" on="0"/>
        <pt x="446" y="-15" on="1"/>
        <pt x="298" y="-15" on="0"/>
        <pt x="160" y="144" on="0"/>
        <pt x="160" y="301" on="1"/>
        <pt x="160" y="689" on="1"/>
        <pt x="60" y="713" on="1"/>
        <pt x="60" y="750" on="1"/>
        <pt x="364" y="750" on="1"/>
        <pt x="364" y="713" on="1"/>
        <pt x="265" y="690" on="1"/>
        <pt x="265" y="282" on="1"/>
        <pt x="265" y="152" on="0"/>
        <pt x="367" y="31" on="0"/>
        <pt x="468" y="31" on="1"/>
        <pt x="681" y="31" on="0"/>
        <pt x="681" y="293" on="1"/>
        <pt x="681" y="689" on="1"/>
        <pt x="581" y="714" on="1"/>
      </contour>
      <contour>
        <pt x="282" y="904" on="0"/>
        <pt x="317" y="935" on="0"/>
        <pt x="376" y="935" on="0"/>
        <pt x="412" y="904" on="0"/>
        <pt x="412" y="851" on="0"/>
        <pt x="378" y="819" on="0"/>
        <pt x="317" y="819" on="0"/>
        <pt x="282" y="850" on="0"/>
      </contour>
      <contour>
        <pt x="505" y="904" on="0"/>
        <pt x="540" y="935" on="0"/>
        <pt x="599" y="935" on="0"/>
        <pt x="635" y="904" on="0"/>
        <pt x="635" y="851" on="0"/>
        <pt x="601" y="819" on="0"/>
        <pt x="540" y="819" on="0"/>
        <pt x="505" y="850" on="0"/>
      </contour>
    </TTGlyph>
    <TTGlyph name="Ugrave" xMin="60" yMin="-15" xMax="830" yMax="947">
      <contour>
        <pt x="581" y="750" on="1"/>
        <pt x="830" y="750" on="1"/>
        <pt x="830" y="714" on="1"/>
        <pt x="736" y="689" on="1"/>
        <pt x="736" y="288" on="1"/>
        <pt x="736" y="-15" on="0"/>
        <pt x="446" y="-15" on="1"/>
        <pt x="298" y="-15" on="0"/>
        <pt x="160" y="144" on="0"/>
        <pt x="160" y="301" on="1"/>
        <pt x="160" y="689" on="1"/>
        <pt x="60" y="713" on="1"/>
        <pt x="60" y="750" on="1"/>
        <pt x="364" y="750" on="1"/>
        <pt x="364" y="713" on="1"/>
        <pt x="265" y="690" on="1"/>
        <pt x="265" y="282" on="1"/>
        <pt x="265" y="152" on="0"/>
        <pt x="367" y="31" on="0"/>
        <pt x="468" y="31" on="1"/>
        <pt x="681" y="31" on="0"/>
        <pt x="681" y="293" on="1"/>
        <pt x="681" y="689" on="1"/>
        <pt x="581" y="714" on="1"/>
      </contour>
      <contour>
        <pt x="598" y="802" on="1"/>
        <pt x="567" y="802" on="1"/>
        <pt x="332" y="947" on="1"/>
        <pt x="466" y="947" on="1"/>
      </contour>
    </TTGlyph>
    <TTGlyph name="Uhungarumlaut" xMin="60" yMin="-15" xMax="830" yMax="977">
      <contour>
        <pt x="581" y="750" on="1"/>
        <pt x="830" y="750" on="1"/>
        <pt x="830" y="714" on="1"/>
        <pt x="736" y="689" on="1"/>
        <pt x="736" y="288" on="1"/>
        <pt x="736" y="-15" on="0"/>
        <pt x="446" y="-15" on="1"/>
        <pt x="298" y="-15" on="0"/>
        <pt x="160" y="144" on="0"/>
        <pt x="160" y="301" on="1"/>
        <pt x="160" y="689" on="1"/>
        <pt x="60" y="713" on="1"/>
        <pt x="60" y="750" on="1"/>
        <pt x="364" y="750" on="1"/>
        <pt x="364" y="713" on="1"/>
        <pt x="265" y="690" on="1"/>
        <pt x="265" y="282" on="1"/>
        <pt x="265" y="152" on="0"/>
        <pt x="367" y="31" on="0"/>
        <pt x="468" y="31" on="1"/>
        <pt x="681" y="31" on="0"/>
        <pt x="681" y="293" on="1"/>
        <pt x="681" y="689" on="1"/>
        <pt x="581" y="714" on="1"/>
      </contour>
      <contour>
        <pt x="458" y="801" on="1"/>
        <pt x="425" y="801" on="1"/>
        <pt x="548" y="977" on="1"/>
        <pt x="681" y="977" on="1"/>
      </contour>
      <contour>
        <pt x="279" y="801" on="1"/>
        <pt x="246" y="801" on="1"/>
        <pt x="369" y="977" on="1"/>
        <pt x="502" y="977" on="1"/>
      </contour>
    </TTGlyph>
    <TTGlyph name="Umacron" xMin="60" yMin="-15" xMax="830" yMax="935">
      <contour>
        <pt x="581" y="750" on="1"/>
        <pt x="830" y="750" on="1"/>
        <pt x="830" y="714" on="1"/>
        <pt x="736" y="689" on="1"/>
        <pt x="736" y="288" on="1"/>
        <pt x="736" y="-15" on="0"/>
        <pt x="446" y="-15" on="1"/>
        <pt x="298" y="-15" on="0"/>
        <pt x="160" y="144" on="0"/>
        <pt x="160" y="301" on="1"/>
        <pt x="160" y="689" on="1"/>
        <pt x="60" y="713" on="1"/>
        <pt x="60" y="750" on="1"/>
        <pt x="364" y="750" on="1"/>
        <pt x="364" y="713" on="1"/>
        <pt x="265" y="690" on="1"/>
        <pt x="265" y="282" on="1"/>
        <pt x="265" y="152" on="0"/>
        <pt x="367" y="31" on="0"/>
        <pt x="468" y="31" on="1"/>
        <pt x="681" y="31" on="0"/>
        <pt x="681" y="293" on="1"/>
        <pt x="681" y="689" on="1"/>
        <pt x="581" y="714" on="1"/>
      </contour>
      <contour>
        <pt x="300" y="935" on="1"/>
        <pt x="589" y="935" on="1"/>
        <pt x="589" y="861" on="1"/>
        <pt x="300" y="861" on="1"/>
      </contour>
    </TTGlyph>
    <TTGlyph name="Uogonek" xMin="60" yMin="-227" xMax="830" yMax="750">
      <contour>
        <pt x="388" y="-107" on="1"/>
        <pt x="388" y="-45" on="0"/>
        <pt x="448" y="-15" on="1"/>
        <pt x="446" y="-15" on="1"/>
        <pt x="298" y="-15" on="0"/>
        <pt x="160" y="144" on="0"/>
        <pt x="160" y="301" on="1"/>
        <pt x="160" y="689" on="1"/>
        <pt x="60" y="713" on="1"/>
        <pt x="60" y="750" on="1"/>
        <pt x="364" y="750" on="1"/>
        <pt x="364" y="713" on="1"/>
        <pt x="265" y="690" on="1"/>
        <pt x="265" y="282" on="1"/>
        <pt x="265" y="152" on="0"/>
        <pt x="367" y="31" on="0"/>
        <pt x="468" y="31" on="1"/>
        <pt x="681" y="31" on="0"/>
        <pt x="681" y="293" on="1"/>
        <pt x="681" y="689" on="1"/>
        <pt x="581" y="714" on="1"/>
        <pt x="581" y="750" on="1"/>
        <pt x="830" y="750" on="1"/>
        <pt x="830" y="714" on="1"/>
        <pt x="736" y="689" on="1"/>
        <pt x="736" y="288" on="1"/>
        <pt x="736" y="18" on="0"/>
        <pt x="504" y="-11" on="1"/>
        <pt x="459" y="-47" on="0"/>
        <pt x="459" y="-105" on="1"/>
        <pt x="459" y="-143" on="0"/>
        <pt x="505" y="-194" on="0"/>
        <pt x="550" y="-195" on="1"/>
        <pt x="556" y="-227" on="1"/>
        <pt x="477" y="-227" on="0"/>
        <pt x="388" y="-155" on="0"/>
      </contour>
    </TTGlyph>
    <TTGlyph name="Uring" xMin="60" yMin="-15" xMax="830" yMax="1032">
      <contour>
        <pt x="581" y="750" on="1"/>
        <pt x="830" y="750" on="1"/>
        <pt x="830" y="714" on="1"/>
        <pt x="736" y="689" on="1"/>
        <pt x="736" y="288" on="1"/>
        <pt x="736" y="-15" on="0"/>
        <pt x="446" y="-15" on="1"/>
        <pt x="298" y="-15" on="0"/>
        <pt x="160" y="144" on="0"/>
        <pt x="160" y="301" on="1"/>
        <pt x="160" y="689" on="1"/>
        <pt x="60" y="713" on="1"/>
        <pt x="60" y="750" on="1"/>
        <pt x="364" y="750" on="1"/>
        <pt x="364" y="713" on="1"/>
        <pt x="265" y="690" on="1"/>
        <pt x="265" y="282" on="1"/>
        <pt x="265" y="152" on="0"/>
        <pt x="367" y="31" on="0"/>
        <pt x="468" y="31" on="1"/>
        <pt x="681" y="31" on="0"/>
        <pt x="681" y="293" on="1"/>
        <pt x="681" y="689" on="1"/>
        <pt x="581" y="714" on="1"/>
      </contour>
      <contour>
        <pt x="540" y="951" on="0"/>
        <pt x="503" y="1002" on="0"/>
        <pt x="440" y="1002" on="0"/>
        <pt x="404" y="951" on="0"/>
        <pt x="404" y="881" on="0"/>
        <pt x="439" y="831" on="0"/>
        <pt x="503" y="831" on="0"/>
        <pt x="540" y="881" on="0"/>
      </contour>
      <contour>
        <pt x="353" y="963" on="0"/>
        <pt x="416" y="1032" on="0"/>
        <pt x="528" y="1032" on="0"/>
        <pt x="588" y="964" on="0"/>
        <pt x="588" y="871" on="0"/>
        <pt x="525" y="801" on="0"/>
        <pt x="415" y="801" on="0"/>
        <pt x="353" y="869" on="0"/>
      </contour>
    </TTGlyph>
    <TTGlyph name="Utilde" xMin="60" yMin="-15" xMax="830" yMax="933">
      <contour>
        <pt x="581" y="750" on="1"/>
        <pt x="830" y="750" on="1"/>
        <pt x="830" y="714" on="1"/>
        <pt x="736" y="689" on="1"/>
        <pt x="736" y="288" on="1"/>
        <pt x="736" y="-15" on="0"/>
        <pt x="446" y="-15" on="1"/>
        <pt x="298" y="-15" on="0"/>
        <pt x="160" y="144" on="0"/>
        <pt x="160" y="301" on="1"/>
        <pt x="160" y="689" on="1"/>
        <pt x="60" y="713" on="1"/>
        <pt x="60" y="750" on="1"/>
        <pt x="364" y="750" on="1"/>
        <pt x="364" y="713" on="1"/>
        <pt x="265" y="690" on="1"/>
        <pt x="265" y="282" on="1"/>
        <pt x="265" y="152" on="0"/>
        <pt x="367" y="31" on="0"/>
        <pt x="468" y="31" on="1"/>
        <pt x="681" y="31" on="0"/>
        <pt x="681" y="293" on="1"/>
        <pt x="681" y="689" on="1"/>
        <pt x="581" y="714" on="1"/>
      </contour>
      <contour>
        <pt x="304" y="896" on="0"/>
        <pt x="353" y="933" on="0"/>
        <pt x="422" y="933" on="0"/>
        <pt x="513" y="869" on="0"/>
        <pt x="535" y="869" on="1"/>
        <pt x="572" y="869" on="0"/>
        <pt x="610" y="925" on="1"/>
        <pt x="635" y="907" on="1"/>
        <pt x="571" y="801" on="0"/>
        <pt x="514" y="801" on="1"/>
        <pt x="488" y="801" on="0"/>
        <pt x="388" y="865" on="0"/>
        <pt x="321" y="865" on="0"/>
        <pt x="276" y="807" on="1"/>
        <pt x="254" y="825" on="1"/>
        <pt x="269" y="846" on="1"/>
      </contour>
    </TTGlyph>
    <TTGlyph name="V" xMin="40" yMin="-8" xMax="833" yMax="750">
      <contour>
        <pt x="588" y="750" on="1"/>
        <pt x="833" y="750" on="1"/>
        <pt x="833" y="714" on="1"/>
        <pt x="749" y="688" on="1"/>
        <pt x="466" y="-8" on="1"/>
        <pt x="407" y="-8" on="1"/>
        <pt x="131" y="691" on="1"/>
        <pt x="40" y="713" on="1"/>
        <pt x="40" y="750" on="1"/>
        <pt x="344" y="750" on="1"/>
        <pt x="344" y="713" on="1"/>
        <pt x="248" y="691" on="1"/>
        <pt x="471" y="117" on="1"/>
        <pt x="674" y="689" on="1"/>
        <pt x="588" y="714" on="1"/>
      </contour>
    </TTGlyph>
    <TTGlyph name="W" xMin="40" yMin="0" xMax="1247" yMax="750">
      <contour>
        <pt x="1002" y="750" on="1"/>
        <pt x="1247" y="750" on="1"/>
        <pt x="1247" y="714" on="1"/>
        <pt x="1160" y="688" on="1"/>
        <pt x="919" y="0" on="1"/>
        <pt x="859" y="0" on="1"/>
        <pt x="641" y="619" on="1"/>
        <pt x="427" y="0" on="1"/>
        <pt x="367" y="0" on="1"/>
        <pt x="132" y="690" on="1"/>
        <pt x="40" y="713" on="1"/>
        <pt x="40" y="750" on="1"/>
        <pt x="344" y="750" on="1"/>
        <pt x="344" y="713" on="1"/>
        <pt x="243" y="691" on="1"/>
        <pt x="427" y="141" on="1"/>
        <pt x="636" y="750" on="1"/>
        <pt x="698" y="750" on="1"/>
        <pt x="918" y="132" on="1"/>
        <pt x="1090" y="690" on="1"/>
        <pt x="1002" y="714" on="1"/>
      </contour>
    </TTGlyph>
    <TTGlyph name="Wacute" xMin="40" yMin="0" xMax="1247" yMax="947">
      <contour>
        <pt x="1002" y="750" on="1"/>
        <pt x="1247" y="750" on="1"/>
        <pt x="1247" y="714" on="1"/>
        <pt x="1160" y="688" on="1"/>
        <pt x="919" y="0" on="1"/>
        <pt x="859" y="0" on="1"/>
        <pt x="641" y="619" on="1"/>
        <pt x="427" y="0" on="1"/>
        <pt x="367" y="0" on="1"/>
        <pt x="132" y="690" on="1"/>
        <pt x="40" y="713" on="1"/>
        <pt x="40" y="750" on="1"/>
        <pt x="344" y="750" on="1"/>
        <pt x="344" y="713" on="1"/>
        <pt x="243" y="691" on="1"/>
        <pt x="427" y="141" on="1"/>
        <pt x="636" y="750" on="1"/>
        <pt x="698" y="750" on="1"/>
        <pt x="918" y="132" on="1"/>
        <pt x="1090" y="690" on="1"/>
        <pt x="1002" y="714" on="1"/>
      </contour>
      <contour>
        <pt x="551" y="801" on="1"/>
        <pt x="519" y="801" on="1"/>
        <pt x="651" y="947" on="1"/>
        <pt x="785" y="947" on="1"/>
      </contour>
    </TTGlyph>
    <TTGlyph name="Wcircumflex" xMin="40" yMin="0" xMax="1247" yMax="965">
      <contour>
        <pt x="1002" y="750" on="1"/>
        <pt x="1247" y="750" on="1"/>
        <pt x="1247" y="714" on="1"/>
        <pt x="1160" y="688" on="1"/>
        <pt x="919" y="0" on="1"/>
        <pt x="859" y="0" on="1"/>
        <pt x="641" y="619" on="1"/>
        <pt x="427" y="0" on="1"/>
        <pt x="367" y="0" on="1"/>
        <pt x="132" y="690" on="1"/>
        <pt x="40" y="713" on="1"/>
        <pt x="40" y="750" on="1"/>
        <pt x="344" y="750" on="1"/>
        <pt x="344" y="713" on="1"/>
        <pt x="243" y="691" on="1"/>
        <pt x="427" y="141" on="1"/>
        <pt x="636" y="750" on="1"/>
        <pt x="698" y="750" on="1"/>
        <pt x="918" y="132" on="1"/>
        <pt x="1090" y="690" on="1"/>
        <pt x="1002" y="714" on="1"/>
      </contour>
      <contour>
        <pt x="667" y="965" on="1"/>
        <pt x="822" y="801" on="1"/>
        <pt x="782" y="801" on="1"/>
        <pt x="650" y="876" on="1"/>
        <pt x="526" y="801" on="1"/>
        <pt x="487" y="801" on="1"/>
        <pt x="633" y="965" on="1"/>
      </contour>
    </TTGlyph>
    <TTGlyph name="Wdieresis" xMin="40" yMin="0" xMax="1247" yMax="938">
      <contour>
        <pt x="1002" y="750" on="1"/>
        <pt x="1247" y="750" on="1"/>
        <pt x="1247" y="714" on="1"/>
        <pt x="1160" y="688" on="1"/>
        <pt x="919" y="0" on="1"/>
        <pt x="859" y="0" on="1"/>
        <pt x="641" y="619" on="1"/>
        <pt x="427" y="0" on="1"/>
        <pt x="367" y="0" on="1"/>
        <pt x="132" y="690" on="1"/>
        <pt x="40" y="713" on="1"/>
        <pt x="40" y="750" on="1"/>
        <pt x="344" y="750" on="1"/>
        <pt x="344" y="713" on="1"/>
        <pt x="243" y="691" on="1"/>
        <pt x="427" y="141" on="1"/>
        <pt x="636" y="750" on="1"/>
        <pt x="698" y="750" on="1"/>
        <pt x="918" y="132" on="1"/>
        <pt x="1090" y="690" on="1"/>
        <pt x="1002" y="714" on="1"/>
      </contour>
      <contour>
        <pt x="485" y="907" on="0"/>
        <pt x="520" y="938" on="0"/>
        <pt x="579" y="938" on="0"/>
        <pt x="615" y="907" on="0"/>
        <pt x="615" y="854" on="0"/>
        <pt x="581" y="822" on="0"/>
        <pt x="520" y="822" on="0"/>
        <pt x="485" y="853" on="0"/>
      </contour>
      <contour>
        <pt x="708" y="907" on="0"/>
        <pt x="743" y="938" on="0"/>
        <pt x="802" y="938" on="0"/>
        <pt x="838" y="907" on="0"/>
        <pt x="838" y="854" on="0"/>
        <pt x="804" y="822" on="0"/>
        <pt x="743" y="822" on="0"/>
        <pt x="708" y="853" on="0"/>
      </contour>
    </TTGlyph>
    <TTGlyph name="Wgrave" xMin="40" yMin="0" xMax="1247" yMax="947">
      <contour>
        <pt x="1002" y="750" on="1"/>
        <pt x="1247" y="750" on="1"/>
        <pt x="1247" y="714" on="1"/>
        <pt x="1160" y="688" on="1"/>
        <pt x="919" y="0" on="1"/>
        <pt x="859" y="0" on="1"/>
        <pt x="641" y="619" on="1"/>
        <pt x="427" y="0" on="1"/>
        <pt x="367" y="0" on="1"/>
        <pt x="132" y="690" on="1"/>
        <pt x="40" y="713" on="1"/>
        <pt x="40" y="750" on="1"/>
        <pt x="344" y="750" on="1"/>
        <pt x="344" y="713" on="1"/>
        <pt x="243" y="691" on="1"/>
        <pt x="427" y="141" on="1"/>
        <pt x="636" y="750" on="1"/>
        <pt x="698" y="750" on="1"/>
        <pt x="918" y="132" on="1"/>
        <pt x="1090" y="690" on="1"/>
        <pt x="1002" y="714" on="1"/>
      </contour>
      <contour>
        <pt x="776" y="802" on="1"/>
        <pt x="745" y="802" on="1"/>
        <pt x="510" y="947" on="1"/>
        <pt x="644" y="947" on="1"/>
      </contour>
    </TTGlyph>
    <TTGlyph name="X" xMin="50" yMin="0" xMax="780" yMax="750">
      <contour>
        <pt x="50" y="750" on="1"/>
        <pt x="354" y="750" on="1"/>
        <pt x="354" y="713" on="1"/>
        <pt x="276" y="692" on="1"/>
        <pt x="431" y="445" on="1"/>
        <pt x="597" y="688" on="1"/>
        <pt x="509" y="714" on="1"/>
        <pt x="509" y="750" on="1"/>
        <pt x="754" y="750" on="1"/>
        <pt x="754" y="714" on="1"/>
        <pt x="666" y="687" on="1"/>
        <pt x="464" y="407" on="1"/>
        <pt x="684" y="61" on="1"/>
        <pt x="780" y="37" on="1"/>
        <pt x="780" y="0" on="1"/>
        <pt x="476" y="0" on="1"/>
        <pt x="476" y="37" on="1"/>
        <pt x="558" y="58" on="1"/>
        <pt x="395" y="319" on="1"/>
        <pt x="216" y="55" on="1"/>
        <pt x="296" y="36" on="1"/>
        <pt x="296" y="0" on="1"/>
        <pt x="51" y="0" on="1"/>
        <pt x="51" y="36" on="1"/>
        <pt x="141" y="59" on="1"/>
        <pt x="359" y="358" on="1"/>
        <pt x="148" y="688" on="1"/>
        <pt x="50" y="713" on="1"/>
      </contour>
    </TTGlyph>
    <TTGlyph name="Y" xMin="30" yMin="0" xMax="769" yMax="750">
      <contour>
        <pt x="30" y="750" on="1"/>
        <pt x="334" y="750" on="1"/>
        <pt x="334" y="713" on="1"/>
        <pt x="246" y="692" on="1"/>
        <pt x="436" y="366" on="1"/>
        <pt x="611" y="689" on="1"/>
        <pt x="524" y="714" on="1"/>
        <pt x="524" y="750" on="1"/>
        <pt x="769" y="750" on="1"/>
        <pt x="769" y="714" on="1"/>
        <pt x="680" y="687" on="1"/>
        <pt x="458" y="321" on="1"/>
        <pt x="458" y="60" on="1"/>
        <pt x="561" y="37" on="1"/>
        <pt x="561" y="0" on="1"/>
        <pt x="257" y="0" on="1"/>
        <pt x="257" y="37" on="1"/>
        <pt x="353" y="59" on="1"/>
        <pt x="353" y="307" on="1"/>
        <pt x="126" y="688" on="1"/>
        <pt x="30" y="713" on="1"/>
      </contour>
    </TTGlyph>
    <TTGlyph name="Yacute" xMin="30" yMin="0" xMax="769" yMax="947">
      <contour>
        <pt x="30" y="750" on="1"/>
        <pt x="334" y="750" on="1"/>
        <pt x="334" y="713" on="1"/>
        <pt x="246" y="692" on="1"/>
        <pt x="436" y="366" on="1"/>
        <pt x="611" y="689" on="1"/>
        <pt x="524" y="714" on="1"/>
        <pt x="524" y="750" on="1"/>
        <pt x="769" y="750" on="1"/>
        <pt x="769" y="714" on="1"/>
        <pt x="680" y="687" on="1"/>
        <pt x="458" y="321" on="1"/>
        <pt x="458" y="60" on="1"/>
        <pt x="561" y="37" on="1"/>
        <pt x="561" y="0" on="1"/>
        <pt x="257" y="0" on="1"/>
        <pt x="257" y="37" on="1"/>
        <pt x="353" y="59" on="1"/>
        <pt x="353" y="307" on="1"/>
        <pt x="126" y="688" on="1"/>
        <pt x="30" y="713" on="1"/>
      </contour>
      <contour>
        <pt x="326" y="801" on="1"/>
        <pt x="294" y="801" on="1"/>
        <pt x="426" y="947" on="1"/>
        <pt x="560" y="947" on="1"/>
      </contour>
    </TTGlyph>
    <TTGlyph name="Ycircumflex" xMin="30" yMin="0" xMax="769" yMax="965">
      <contour>
        <pt x="30" y="750" on="1"/>
        <pt x="334" y="750" on="1"/>
        <pt x="334" y="713" on="1"/>
        <pt x="246" y="692" on="1"/>
        <pt x="436" y="366" on="1"/>
        <pt x="611" y="689" on="1"/>
        <pt x="524" y="714" on="1"/>
        <pt x="524" y="750" on="1"/>
        <pt x="769" y="750" on="1"/>
        <pt x="769" y="714" on="1"/>
        <pt x="680" y="687" on="1"/>
        <pt x="458" y="321" on="1"/>
        <pt x="458" y="60" on="1"/>
        <pt x="561" y="37" on="1"/>
        <pt x="561" y="0" on="1"/>
        <pt x="257" y="0" on="1"/>
        <pt x="257" y="37" on="1"/>
        <pt x="353" y="59" on="1"/>
        <pt x="353" y="307" on="1"/>
        <pt x="126" y="688" on="1"/>
        <pt x="30" y="713" on="1"/>
      </contour>
      <contour>
        <pt x="456" y="965" on="1"/>
        <pt x="611" y="801" on="1"/>
        <pt x="571" y="801" on="1"/>
        <pt x="439" y="876" on="1"/>
        <pt x="315" y="801" on="1"/>
        <pt x="276" y="801" on="1"/>
        <pt x="422" y="965" on="1"/>
      </contour>
    </TTGlyph>
    <TTGlyph name="Ydieresis" xMin="30" yMin="0" xMax="769" yMax="930">
      <contour>
        <pt x="30" y="750" on="1"/>
        <pt x="334" y="750" on="1"/>
        <pt x="334" y="713" on="1"/>
        <pt x="246" y="692" on="1"/>
        <pt x="436" y="366" on="1"/>
        <pt x="611" y="689" on="1"/>
        <pt x="524" y="714" on="1"/>
        <pt x="524" y="750" on="1"/>
        <pt x="769" y="750" on="1"/>
        <pt x="769" y="714" on="1"/>
        <pt x="680" y="687" on="1"/>
        <pt x="458" y="321" on="1"/>
        <pt x="458" y="60" on="1"/>
        <pt x="561" y="37" on="1"/>
        <pt x="561" y="0" on="1"/>
        <pt x="257" y="0" on="1"/>
        <pt x="257" y="37" on="1"/>
        <pt x="353" y="59" on="1"/>
        <pt x="353" y="307" on="1"/>
        <pt x="126" y="688" on="1"/>
        <pt x="30" y="713" on="1"/>
      </contour>
      <contour>
        <pt x="253" y="899" on="0"/>
        <pt x="288" y="930" on="0"/>
        <pt x="347" y="930" on="0"/>
        <pt x="383" y="899" on="0"/>
        <pt x="383" y="846" on="0"/>
        <pt x="349" y="814" on="0"/>
        <pt x="288" y="814" on="0"/>
        <pt x="253" y="845" on="0"/>
      </contour>
      <contour>
        <pt x="476" y="899" on="0"/>
        <pt x="511" y="930" on="0"/>
        <pt x="570" y="930" on="0"/>
        <pt x="606" y="899" on="0"/>
        <pt x="606" y="846" on="0"/>
        <pt x="572" y="814" on="0"/>
        <pt x="511" y="814" on="0"/>
        <pt x="476" y="845" on="0"/>
      </contour>
    </TTGlyph>
    <TTGlyph name="Ygrave" xMin="30" yMin="0" xMax="769" yMax="947">
      <contour>
        <pt x="30" y="750" on="1"/>
        <pt x="334" y="750" on="1"/>
        <pt x="334" y="713" on="1"/>
        <pt x="246" y="692" on="1"/>
        <pt x="436" y="366" on="1"/>
        <pt x="611" y="689" on="1"/>
        <pt x="524" y="714" on="1"/>
        <pt x="524" y="750" on="1"/>
        <pt x="769" y="750" on="1"/>
        <pt x="769" y="714" on="1"/>
        <pt x="680" y="687" on="1"/>
        <pt x="458" y="321" on="1"/>
        <pt x="458" y="60" on="1"/>
        <pt x="561" y="37" on="1"/>
        <pt x="561" y="0" on="1"/>
        <pt x="257" y="0" on="1"/>
        <pt x="257" y="37" on="1"/>
        <pt x="353" y="59" on="1"/>
        <pt x="353" y="307" on="1"/>
        <pt x="126" y="688" on="1"/>
        <pt x="30" y="713" on="1"/>
      </contour>
      <contour>
        <pt x="531" y="802" on="1"/>
        <pt x="500" y="802" on="1"/>
        <pt x="265" y="947" on="1"/>
        <pt x="399" y="947" on="1"/>
      </contour>
    </TTGlyph>
    <TTGlyph name="Z" xMin="60" yMin="0" xMax="665" yMax="750">
      <contour>
        <pt x="78" y="561" on="1"/>
        <pt x="78" y="750" on="1"/>
        <pt x="646" y="750" on="1"/>
        <pt x="646" y="714" on="1"/>
        <pt x="188" y="49" on="1"/>
        <pt x="575" y="49" on="1"/>
        <pt x="613" y="189" on="1"/>
        <pt x="665" y="189" on="1"/>
        <pt x="665" y="0" on="1"/>
        <pt x="60" y="0" on="1"/>
        <pt x="60" y="37" on="1"/>
        <pt x="515" y="703" on="1"/>
        <pt x="167" y="703" on="1"/>
        <pt x="130" y="561" on="1"/>
      </contour>
    </TTGlyph>
    <TTGlyph name="Zacute" xMin="60" yMin="0" xMax="665" yMax="947">
      <contour>
        <pt x="78" y="561" on="1"/>
        <pt x="78" y="750" on="1"/>
        <pt x="646" y="750" on="1"/>
        <pt x="646" y="714" on="1"/>
        <pt x="188" y="49" on="1"/>
        <pt x="575" y="49" on="1"/>
        <pt x="613" y="189" on="1"/>
        <pt x="665" y="189" on="1"/>
        <pt x="665" y="0" on="1"/>
        <pt x="60" y="0" on="1"/>
        <pt x="60" y="37" on="1"/>
        <pt x="515" y="703" on="1"/>
        <pt x="167" y="703" on="1"/>
        <pt x="130" y="561" on="1"/>
      </contour>
      <contour>
        <pt x="269" y="801" on="1"/>
        <pt x="237" y="801" on="1"/>
        <pt x="369" y="947" on="1"/>
        <pt x="503" y="947" on="1"/>
      </contour>
    </TTGlyph>
    <TTGlyph name="Zcaron" xMin="60" yMin="0" xMax="665" yMax="964">
      <contour>
        <pt x="78" y="561" on="1"/>
        <pt x="78" y="750" on="1"/>
        <pt x="646" y="750" on="1"/>
        <pt x="646" y="714" on="1"/>
        <pt x="188" y="49" on="1"/>
        <pt x="575" y="49" on="1"/>
        <pt x="613" y="189" on="1"/>
        <pt x="665" y="189" on="1"/>
        <pt x="665" y="0" on="1"/>
        <pt x="60" y="0" on="1"/>
        <pt x="60" y="37" on="1"/>
        <pt x="515" y="703" on="1"/>
        <pt x="167" y="703" on="1"/>
        <pt x="130" y="561" on="1"/>
      </contour>
      <contour>
        <pt x="361" y="801" on="1"/>
        <pt x="209" y="964" on="1"/>
        <pt x="248" y="964" on="1"/>
        <pt x="378" y="891" on="1"/>
        <pt x="504" y="964" on="1"/>
        <pt x="544" y="964" on="1"/>
        <pt x="394" y="801" on="1"/>
      </contour>
    </TTGlyph>
    <TTGlyph name="Zdotaccent" xMin="60" yMin="0" xMax="665" yMax="938">
      <contour>
        <pt x="78" y="561" on="1"/>
        <pt x="78" y="750" on="1"/>
        <pt x="646" y="750" on="1"/>
        <pt x="646" y="714" on="1"/>
        <pt x="188" y="49" on="1"/>
        <pt x="575" y="49" on="1"/>
        <pt x="613" y="189" on="1"/>
        <pt x="665" y="189" on="1"/>
        <pt x="665" y="0" on="1"/>
        <pt x="60" y="0" on="1"/>
        <pt x="60" y="37" on="1"/>
        <pt x="515" y="703" on="1"/>
        <pt x="167" y="703" on="1"/>
        <pt x="130" y="561" on="1"/>
      </contour>
      <contour>
        <pt x="302" y="907" on="0"/>
        <pt x="337" y="938" on="0"/>
        <pt x="396" y="938" on="0"/>
        <pt x="432" y="907" on="0"/>
        <pt x="432" y="854" on="0"/>
        <pt x="398" y="822" on="0"/>
        <pt x="337" y="822" on="0"/>
        <pt x="302" y="853" on="0"/>
      </contour>
    </TTGlyph>
    <TTGlyph name="a" xMin="40" yMin="-9" xMax="542" yMax="493">
      <contour>
        <pt x="542" y="0" on="1"/>
        <pt x="366" y="0" on="1"/>
        <pt x="366" y="101" on="1"/>
        <pt x="319" y="-9" on="0"/>
        <pt x="201" y="-9" on="1"/>
        <pt x="122" y="-9" on="0"/>
        <pt x="40" y="60" on="0"/>
        <pt x="40" y="122" on="1"/>
        <pt x="40" y="210" on="0"/>
        <pt x="195" y="287" on="0"/>
        <pt x="364" y="290" on="1"/>
        <pt x="364" y="333" on="1"/>
        <pt x="364" y="404" on="0"/>
        <pt x="306" y="455" on="0"/>
        <pt x="192" y="455" on="0"/>
        <pt x="150" y="429" on="1"/>
        <pt x="117" y="330" on="1"/>
        <pt x="80" y="330" on="1"/>
        <pt x="80" y="443" on="1"/>
        <pt x="105" y="464" on="0"/>
        <pt x="193" y="493" on="0"/>
        <pt x="245" y="493" on="1"/>
        <pt x="351" y="493" on="0"/>
        <pt x="458" y="412" on="0"/>
        <pt x="458" y="309" on="1"/>
        <pt x="458" y="60" on="1"/>
        <pt x="542" y="37" on="1"/>
      </contour>
      <contour>
        <pt x="227" y="33" on="1"/>
        <pt x="291" y="33" on="0"/>
        <pt x="364" y="132" on="0"/>
        <pt x="364" y="255" on="1"/>
        <pt x="192" y="255" on="0"/>
        <pt x="154" y="202" on="1"/>
        <pt x="136" y="177" on="0"/>
        <pt x="136" y="79" on="0"/>
        <pt x="179" y="33" on="0"/>
      </contour>
    </TTGlyph>
    <TTGlyph name="aacute" xMin="40" yMin="-9" xMax="542" yMax="750">
      <contour>
        <pt x="542" y="0" on="1"/>
        <pt x="366" y="0" on="1"/>
        <pt x="366" y="101" on="1"/>
        <pt x="319" y="-9" on="0"/>
        <pt x="201" y="-9" on="1"/>
        <pt x="122" y="-9" on="0"/>
        <pt x="40" y="60" on="0"/>
        <pt x="40" y="122" on="1"/>
        <pt x="40" y="210" on="0"/>
        <pt x="195" y="287" on="0"/>
        <pt x="364" y="290" on="1"/>
        <pt x="364" y="333" on="1"/>
        <pt x="364" y="404" on="0"/>
        <pt x="306" y="455" on="0"/>
        <pt x="192" y="455" on="0"/>
        <pt x="150" y="429" on="1"/>
        <pt x="117" y="330" on="1"/>
        <pt x="80" y="330" on="1"/>
        <pt x="80" y="443" on="1"/>
        <pt x="105" y="464" on="0"/>
        <pt x="193" y="493" on="0"/>
        <pt x="245" y="493" on="1"/>
        <pt x="351" y="493" on="0"/>
        <pt x="458" y="412" on="0"/>
        <pt x="458" y="309" on="1"/>
        <pt x="458" y="60" on="1"/>
        <pt x="542" y="37" on="1"/>
      </contour>
      <contour>
        <pt x="227" y="33" on="1"/>
        <pt x="291" y="33" on="0"/>
        <pt x="364" y="132" on="0"/>
        <pt x="364" y="255" on="1"/>
        <pt x="192" y="255" on="0"/>
        <pt x="154" y="202" on="1"/>
        <pt x="136" y="177" on="0"/>
        <pt x="136" y="79" on="0"/>
        <pt x="179" y="33" on="0"/>
      </contour>
      <contour>
        <pt x="149" y="604" on="1"/>
        <pt x="117" y="604" on="1"/>
        <pt x="249" y="750" on="1"/>
        <pt x="383" y="750" on="1"/>
      </contour>
    </TTGlyph>
    <TTGlyph name="abreve" xMin="40" yMin="-9" xMax="542" yMax="750">
      <contour>
        <pt x="542" y="0" on="1"/>
        <pt x="366" y="0" on="1"/>
        <pt x="366" y="101" on="1"/>
        <pt x="319" y="-9" on="0"/>
        <pt x="201" y="-9" on="1"/>
        <pt x="122" y="-9" on="0"/>
        <pt x="40" y="60" on="0"/>
        <pt x="40" y="122" on="1"/>
        <pt x="40" y="210" on="0"/>
        <pt x="195" y="287" on="0"/>
        <pt x="364" y="290" on="1"/>
        <pt x="364" y="333" on="1"/>
        <pt x="364" y="404" on="0"/>
        <pt x="306" y="455" on="0"/>
        <pt x="192" y="455" on="0"/>
        <pt x="150" y="429" on="1"/>
        <pt x="117" y="330" on="1"/>
        <pt x="80" y="330" on="1"/>
        <pt x="80" y="443" on="1"/>
        <pt x="105" y="464" on="0"/>
        <pt x="193" y="493" on="0"/>
        <pt x="245" y="493" on="1"/>
        <pt x="351" y="493" on="0"/>
        <pt x="458" y="412" on="0"/>
        <pt x="458" y="309" on="1"/>
        <pt x="458" y="60" on="1"/>
        <pt x="542" y="37" on="1"/>
      </contour>
      <contour>
        <pt x="227" y="33" on="1"/>
        <pt x="291" y="33" on="0"/>
        <pt x="364" y="132" on="0"/>
        <pt x="364" y="255" on="1"/>
        <pt x="192" y="255" on="0"/>
        <pt x="154" y="202" on="1"/>
        <pt x="136" y="177" on="0"/>
        <pt x="136" y="79" on="0"/>
        <pt x="179" y="33" on="0"/>
      </contour>
      <contour>
        <pt x="386" y="750" on="1"/>
        <pt x="416" y="750" on="1"/>
        <pt x="416" y="676" on="0"/>
        <pt x="316" y="594" on="0"/>
        <pt x="178" y="594" on="0"/>
        <pt x="77" y="676" on="0"/>
        <pt x="77" y="750" on="1"/>
        <pt x="109" y="750" on="1"/>
        <pt x="109" y="710" on="0"/>
        <pt x="192" y="664" on="0"/>
        <pt x="303" y="664" on="0"/>
        <pt x="386" y="710" on="0"/>
      </contour>
    </TTGlyph>
    <TTGlyph name="acircumflex" xMin="40" yMin="-9" xMax="542" yMax="750">
      <contour>
        <pt x="542" y="0" on="1"/>
        <pt x="366" y="0" on="1"/>
        <pt x="366" y="101" on="1"/>
        <pt x="319" y="-9" on="0"/>
        <pt x="201" y="-9" on="1"/>
        <pt x="122" y="-9" on="0"/>
        <pt x="40" y="60" on="0"/>
        <pt x="40" y="122" on="1"/>
        <pt x="40" y="210" on="0"/>
        <pt x="195" y="287" on="0"/>
        <pt x="364" y="290" on="1"/>
        <pt x="364" y="333" on="1"/>
        <pt x="364" y="404" on="0"/>
        <pt x="306" y="455" on="0"/>
        <pt x="192" y="455" on="0"/>
        <pt x="150" y="429" on="1"/>
        <pt x="117" y="330" on="1"/>
        <pt x="80" y="330" on="1"/>
        <pt x="80" y="443" on="1"/>
        <pt x="105" y="464" on="0"/>
        <pt x="193" y="493" on="0"/>
        <pt x="245" y="493" on="1"/>
        <pt x="351" y="493" on="0"/>
        <pt x="458" y="412" on="0"/>
        <pt x="458" y="309" on="1"/>
        <pt x="458" y="60" on="1"/>
        <pt x="542" y="37" on="1"/>
      </contour>
      <contour>
        <pt x="227" y="33" on="1"/>
        <pt x="291" y="33" on="0"/>
        <pt x="364" y="132" on="0"/>
        <pt x="364" y="255" on="1"/>
        <pt x="192" y="255" on="0"/>
        <pt x="154" y="202" on="1"/>
        <pt x="136" y="177" on="0"/>
        <pt x="136" y="79" on="0"/>
        <pt x="179" y="33" on="0"/>
      </contour>
      <contour>
        <pt x="263" y="750" on="1"/>
        <pt x="418" y="586" on="1"/>
        <pt x="378" y="586" on="1"/>
        <pt x="246" y="661" on="1"/>
        <pt x="122" y="586" on="1"/>
        <pt x="83" y="586" on="1"/>
        <pt x="229" y="750" on="1"/>
      </contour>
    </TTGlyph>
    <TTGlyph name="acute" xMin="34" yMin="604" xMax="300" yMax="750">
      <contour>
        <pt x="66" y="604" on="1"/>
        <pt x="34" y="604" on="1"/>
        <pt x="166" y="750" on="1"/>
        <pt x="300" y="750" on="1"/>
      </contour>
    </TTGlyph>
    <TTGlyph name="adieresis" xMin="40" yMin="-9" xMax="542" yMax="756">
      <contour>
        <pt x="542" y="0" on="1"/>
        <pt x="366" y="0" on="1"/>
        <pt x="366" y="101" on="1"/>
        <pt x="319" y="-9" on="0"/>
        <pt x="201" y="-9" on="1"/>
        <pt x="122" y="-9" on="0"/>
        <pt x="40" y="60" on="0"/>
        <pt x="40" y="122" on="1"/>
        <pt x="40" y="210" on="0"/>
        <pt x="195" y="287" on="0"/>
        <pt x="364" y="290" on="1"/>
        <pt x="364" y="333" on="1"/>
        <pt x="364" y="404" on="0"/>
        <pt x="306" y="455" on="0"/>
        <pt x="192" y="455" on="0"/>
        <pt x="150" y="429" on="1"/>
        <pt x="117" y="330" on="1"/>
        <pt x="80" y="330" on="1"/>
        <pt x="80" y="443" on="1"/>
        <pt x="105" y="464" on="0"/>
        <pt x="193" y="493" on="0"/>
        <pt x="245" y="493" on="1"/>
        <pt x="351" y="493" on="0"/>
        <pt x="458" y="412" on="0"/>
        <pt x="458" y="309" on="1"/>
        <pt x="458" y="60" on="1"/>
        <pt x="542" y="37" on="1"/>
      </contour>
      <contour>
        <pt x="227" y="33" on="1"/>
        <pt x="291" y="33" on="0"/>
        <pt x="364" y="132" on="0"/>
        <pt x="364" y="255" on="1"/>
        <pt x="192" y="255" on="0"/>
        <pt x="154" y="202" on="1"/>
        <pt x="136" y="177" on="0"/>
        <pt x="136" y="79" on="0"/>
        <pt x="179" y="33" on="0"/>
      </contour>
      <contour>
        <pt x="70" y="725" on="0"/>
        <pt x="105" y="756" on="0"/>
        <pt x="164" y="756" on="0"/>
        <pt x="200" y="725" on="0"/>
        <pt x="200" y="672" on="0"/>
        <pt x="166" y="640" on="0"/>
        <pt x="105" y="640" on="0"/>
        <pt x="70" y="671" on="0"/>
      </contour>
      <contour>
        <pt x="293" y="725" on="0"/>
        <pt x="328" y="756" on="0"/>
        <pt x="387" y="756" on="0"/>
        <pt x="423" y="725" on="0"/>
        <pt x="423" y="672" on="0"/>
        <pt x="389" y="640" on="0"/>
        <pt x="328" y="640" on="0"/>
        <pt x="293" y="671" on="0"/>
      </contour>
    </TTGlyph>
    <TTGlyph name="ae" xMin="43" yMin="-9" xMax="815" yMax="495">
      <contour>
        <pt x="607" y="29" on="1"/>
        <pt x="638" y="29" on="0"/>
        <pt x="695" y="46" on="0"/>
        <pt x="721" y="62" on="0"/>
        <pt x="721" y="64" on="1"/>
        <pt x="758" y="170" on="1"/>
        <pt x="795" y="170" on="1"/>
        <pt x="795" y="56" on="1"/>
        <pt x="738" y="-9" on="0"/>
        <pt x="468" y="-9" on="0"/>
        <pt x="413" y="81" on="1"/>
        <pt x="372" y="-9" on="0"/>
        <pt x="218" y="-9" on="1"/>
        <pt x="136" y="-9" on="0"/>
        <pt x="43" y="59" on="0"/>
        <pt x="43" y="119" on="1"/>
        <pt x="43" y="206" on="0"/>
        <pt x="195" y="269" on="0"/>
        <pt x="371" y="273" on="1"/>
        <pt x="371" y="333" on="1"/>
        <pt x="371" y="404" on="0"/>
        <pt x="313" y="455" on="0"/>
        <pt x="203" y="455" on="0"/>
        <pt x="157" y="426" on="1"/>
        <pt x="124" y="327" on="1"/>
        <pt x="87" y="327" on="1"/>
        <pt x="87" y="440" on="1"/>
        <pt x="112" y="462" on="0"/>
        <pt x="201" y="493" on="0"/>
        <pt x="252" y="493" on="1"/>
        <pt x="366" y="493" on="0"/>
        <pt x="424" y="412" on="1"/>
        <pt x="456" y="448" on="0"/>
        <pt x="550" y="495" on="0"/>
        <pt x="654" y="495" on="0"/>
        <pt x="735" y="455" on="0"/>
        <pt x="779" y="397" on="0"/>
        <pt x="793" y="359" on="1"/>
        <pt x="815" y="299" on="0"/>
        <pt x="815" y="237" on="1"/>
        <pt x="465" y="238" on="1"/>
        <pt x="466" y="130" on="0"/>
        <pt x="531" y="29" on="0"/>
      </contour>
      <contour>
        <pt x="244" y="33" on="1"/>
        <pt x="309" y="33" on="0"/>
        <pt x="371" y="116" on="0"/>
        <pt x="371" y="238" on="1"/>
        <pt x="232" y="238" on="0"/>
        <pt x="139" y="193" on="0"/>
        <pt x="139" y="129" on="1"/>
        <pt x="139" y="33" on="0"/>
      </contour>
      <contour>
        <pt x="724" y="351" on="0"/>
        <pt x="651" y="456" on="0"/>
        <pt x="555" y="456" on="0"/>
        <pt x="526" y="429" on="1"/>
        <pt x="471" y="378" on="0"/>
        <pt x="465" y="269" on="1"/>
        <pt x="724" y="269" on="1"/>
      </contour>
    </TTGlyph>
    <TTGlyph name="aeacute" xMin="43" yMin="-9" xMax="815" yMax="750">
      <contour>
        <pt x="607" y="29" on="1"/>
        <pt x="638" y="29" on="0"/>
        <pt x="695" y="46" on="0"/>
        <pt x="721" y="62" on="0"/>
        <pt x="721" y="64" on="1"/>
        <pt x="758" y="170" on="1"/>
        <pt x="795" y="170" on="1"/>
        <pt x="795" y="56" on="1"/>
        <pt x="738" y="-9" on="0"/>
        <pt x="468" y="-9" on="0"/>
        <pt x="413" y="81" on="1"/>
        <pt x="372" y="-9" on="0"/>
        <pt x="218" y="-9" on="1"/>
        <pt x="136" y="-9" on="0"/>
        <pt x="43" y="59" on="0"/>
        <pt x="43" y="119" on="1"/>
        <pt x="43" y="206" on="0"/>
        <pt x="195" y="269" on="0"/>
        <pt x="371" y="273" on="1"/>
        <pt x="371" y="333" on="1"/>
        <pt x="371" y="404" on="0"/>
        <pt x="313" y="455" on="0"/>
        <pt x="203" y="455" on="0"/>
        <pt x="157" y="426" on="1"/>
        <pt x="124" y="327" on="1"/>
        <pt x="87" y="327" on="1"/>
        <pt x="87" y="440" on="1"/>
        <pt x="112" y="462" on="0"/>
        <pt x="201" y="493" on="0"/>
        <pt x="252" y="493" on="1"/>
        <pt x="366" y="493" on="0"/>
        <pt x="424" y="412" on="1"/>
        <pt x="456" y="448" on="0"/>
        <pt x="550" y="495" on="0"/>
        <pt x="654" y="495" on="0"/>
        <pt x="735" y="455" on="0"/>
        <pt x="779" y="397" on="0"/>
        <pt x="793" y="359" on="1"/>
        <pt x="815" y="299" on="0"/>
        <pt x="815" y="237" on="1"/>
        <pt x="465" y="238" on="1"/>
        <pt x="466" y="130" on="0"/>
        <pt x="531" y="29" on="0"/>
      </contour>
      <contour>
        <pt x="244" y="33" on="1"/>
        <pt x="309" y="33" on="0"/>
        <pt x="371" y="116" on="0"/>
        <pt x="371" y="238" on="1"/>
        <pt x="232" y="238" on="0"/>
        <pt x="139" y="193" on="0"/>
        <pt x="139" y="129" on="1"/>
        <pt x="139" y="33" on="0"/>
      </contour>
      <contour>
        <pt x="724" y="351" on="0"/>
        <pt x="651" y="456" on="0"/>
        <pt x="555" y="456" on="0"/>
        <pt x="526" y="429" on="1"/>
        <pt x="471" y="378" on="0"/>
        <pt x="465" y="269" on="1"/>
        <pt x="724" y="269" on="1"/>
      </contour>
      <contour>
        <pt x="336" y="604" on="1"/>
        <pt x="304" y="604" on="1"/>
        <pt x="436" y="750" on="1"/>
        <pt x="570" y="750" on="1"/>
      </contour>
    </TTGlyph>
    <TTGlyph name="agrave" xMin="40" yMin="-9" xMax="542" yMax="750">
      <contour>
        <pt x="542" y="0" on="1"/>
        <pt x="366" y="0" on="1"/>
        <pt x="366" y="101" on="1"/>
        <pt x="319" y="-9" on="0"/>
        <pt x="201" y="-9" on="1"/>
        <pt x="122" y="-9" on="0"/>
        <pt x="40" y="60" on="0"/>
        <pt x="40" y="122" on="1"/>
        <pt x="40" y="210" on="0"/>
        <pt x="195" y="287" on="0"/>
        <pt x="364" y="290" on="1"/>
        <pt x="364" y="333" on="1"/>
        <pt x="364" y="404" on="0"/>
        <pt x="306" y="455" on="0"/>
        <pt x="192" y="455" on="0"/>
        <pt x="150" y="429" on="1"/>
        <pt x="117" y="330" on="1"/>
        <pt x="80" y="330" on="1"/>
        <pt x="80" y="443" on="1"/>
        <pt x="105" y="464" on="0"/>
        <pt x="193" y="493" on="0"/>
        <pt x="245" y="493" on="1"/>
        <pt x="351" y="493" on="0"/>
        <pt x="458" y="412" on="0"/>
        <pt x="458" y="309" on="1"/>
        <pt x="458" y="60" on="1"/>
        <pt x="542" y="37" on="1"/>
      </contour>
      <contour>
        <pt x="227" y="33" on="1"/>
        <pt x="291" y="33" on="0"/>
        <pt x="364" y="132" on="0"/>
        <pt x="364" y="255" on="1"/>
        <pt x="192" y="255" on="0"/>
        <pt x="154" y="202" on="1"/>
        <pt x="136" y="177" on="0"/>
        <pt x="136" y="79" on="0"/>
        <pt x="179" y="33" on="0"/>
      </contour>
      <contour>
        <pt x="389" y="605" on="1"/>
        <pt x="358" y="605" on="1"/>
        <pt x="123" y="750" on="1"/>
        <pt x="257" y="750" on="1"/>
      </contour>
    </TTGlyph>
    <TTGlyph name="amacron" xMin="40" yMin="-9" xMax="542" yMax="690">
      <contour>
        <pt x="542" y="0" on="1"/>
        <pt x="366" y="0" on="1"/>
        <pt x="366" y="101" on="1"/>
        <pt x="319" y="-9" on="0"/>
        <pt x="201" y="-9" on="1"/>
        <pt x="122" y="-9" on="0"/>
        <pt x="40" y="60" on="0"/>
        <pt x="40" y="122" on="1"/>
        <pt x="40" y="210" on="0"/>
        <pt x="195" y="287" on="0"/>
        <pt x="364" y="290" on="1"/>
        <pt x="364" y="333" on="1"/>
        <pt x="364" y="404" on="0"/>
        <pt x="306" y="455" on="0"/>
        <pt x="192" y="455" on="0"/>
        <pt x="150" y="429" on="1"/>
        <pt x="117" y="330" on="1"/>
        <pt x="80" y="330" on="1"/>
        <pt x="80" y="443" on="1"/>
        <pt x="105" y="464" on="0"/>
        <pt x="193" y="493" on="0"/>
        <pt x="245" y="493" on="1"/>
        <pt x="351" y="493" on="0"/>
        <pt x="458" y="412" on="0"/>
        <pt x="458" y="309" on="1"/>
        <pt x="458" y="60" on="1"/>
        <pt x="542" y="37" on="1"/>
      </contour>
      <contour>
        <pt x="227" y="33" on="1"/>
        <pt x="291" y="33" on="0"/>
        <pt x="364" y="132" on="0"/>
        <pt x="364" y="255" on="1"/>
        <pt x="192" y="255" on="0"/>
        <pt x="154" y="202" on="1"/>
        <pt x="136" y="177" on="0"/>
        <pt x="136" y="79" on="0"/>
        <pt x="179" y="33" on="0"/>
      </contour>
      <contour>
        <pt x="105" y="690" on="1"/>
        <pt x="394" y="690" on="1"/>
        <pt x="394" y="616" on="1"/>
        <pt x="105" y="616" on="1"/>
      </contour>
    </TTGlyph>
    <TTGlyph name="ampersand" xMin="55" yMin="-15" xMax="794" yMax="765">
      <contour>
        <pt x="322" y="-15" on="1"/>
        <pt x="208" y="-15" on="0"/>
        <pt x="55" y="102" on="0"/>
        <pt x="55" y="195" on="1"/>
        <pt x="55" y="263" on="0"/>
        <pt x="134" y="352" on="0"/>
        <pt x="236" y="408" on="1"/>
        <pt x="180" y="467" on="0"/>
        <pt x="139" y="549" on="0"/>
        <pt x="139" y="598" on="1"/>
        <pt x="139" y="673" on="0"/>
        <pt x="253" y="765" on="0"/>
        <pt x="425" y="765" on="0"/>
        <pt x="531" y="676" on="0"/>
        <pt x="531" y="543" on="0"/>
        <pt x="453" y="468" on="0"/>
        <pt x="351" y="424" on="1"/>
        <pt x="585" y="187" on="1"/>
        <pt x="613" y="243" on="0"/>
        <pt x="634" y="330" on="0"/>
        <pt x="634" y="391" on="1"/>
        <pt x="679" y="391" on="1"/>
        <pt x="679" y="332" on="0"/>
        <pt x="651" y="226" on="0"/>
        <pt x="613" y="157" on="1"/>
        <pt x="715" y="58" on="1"/>
        <pt x="794" y="37" on="1"/>
        <pt x="794" y="0" on="1"/>
        <pt x="639" y="0" on="1"/>
        <pt x="553" y="82" on="1"/>
        <pt x="501" y="30" on="0"/>
        <pt x="392" y="-15" on="0"/>
      </contour>
      <contour>
        <pt x="161" y="214" on="1"/>
        <pt x="161" y="128" on="0"/>
        <pt x="262" y="20" on="0"/>
        <pt x="339" y="20" on="1"/>
        <pt x="448" y="20" on="0"/>
        <pt x="525" y="110" on="1"/>
        <pt x="261" y="380" on="1"/>
        <pt x="206" y="354" on="0"/>
        <pt x="161" y="274" on="0"/>
      </contour>
      <contour>
        <pt x="426" y="521" on="1"/>
        <pt x="453" y="560" on="0"/>
        <pt x="453" y="669" on="0"/>
        <pt x="395" y="732" on="0"/>
        <pt x="296" y="732" on="0"/>
        <pt x="235" y="676" on="0"/>
        <pt x="235" y="569" on="0"/>
        <pt x="276" y="515" on="1"/>
        <pt x="278" y="509" on="0"/>
        <pt x="327" y="450" on="0"/>
        <pt x="328" y="450" on="1"/>
        <pt x="375" y="450" on="0"/>
      </contour>
    </TTGlyph>
    <TTGlyph name="aogonek" xMin="40" yMin="-227" xMax="542" yMax="493">
      <contour>
        <pt x="463" y="-227" on="0"/>
        <pt x="374" y="-155" on="0"/>
        <pt x="374" y="-68" on="0"/>
        <pt x="430" y="-9" on="0"/>
        <pt x="482" y="0" on="1"/>
        <pt x="366" y="0" on="1"/>
        <pt x="366" y="101" on="1"/>
        <pt x="319" y="-9" on="0"/>
        <pt x="201" y="-9" on="1"/>
        <pt x="122" y="-9" on="0"/>
        <pt x="40" y="60" on="0"/>
        <pt x="40" y="122" on="1"/>
        <pt x="40" y="210" on="0"/>
        <pt x="195" y="287" on="0"/>
        <pt x="364" y="290" on="1"/>
        <pt x="364" y="333" on="1"/>
        <pt x="364" y="404" on="0"/>
        <pt x="306" y="455" on="0"/>
        <pt x="192" y="455" on="0"/>
        <pt x="150" y="429" on="1"/>
        <pt x="117" y="330" on="1"/>
        <pt x="80" y="330" on="1"/>
        <pt x="80" y="443" on="1"/>
        <pt x="105" y="464" on="0"/>
        <pt x="193" y="493" on="0"/>
        <pt x="245" y="493" on="1"/>
        <pt x="351" y="493" on="0"/>
        <pt x="458" y="412" on="0"/>
        <pt x="458" y="309" on="1"/>
        <pt x="458" y="60" on="1"/>
        <pt x="542" y="37" on="1"/>
        <pt x="542" y="0" on="1"/>
        <pt x="511" y="0" on="1"/>
        <pt x="480" y="-12" on="0"/>
        <pt x="445" y="-71" on="0"/>
        <pt x="445" y="-143" on="0"/>
        <pt x="491" y="-194" on="0"/>
        <pt x="536" y="-195" on="1"/>
        <pt x="542" y="-227" on="1"/>
      </contour>
      <contour>
        <pt x="227" y="33" on="1"/>
        <pt x="291" y="33" on="0"/>
        <pt x="364" y="132" on="0"/>
        <pt x="364" y="255" on="1"/>
        <pt x="192" y="255" on="0"/>
        <pt x="154" y="202" on="1"/>
        <pt x="136" y="177" on="0"/>
        <pt x="136" y="79" on="0"/>
        <pt x="179" y="33" on="0"/>
      </contour>
    </TTGlyph>
    <TTGlyph name="approxequal" xMin="16" yMin="70" xMax="588" yMax="476">
      <contour>
        <pt x="444" y="290" on="1"/>
        <pt x="405" y="290" on="0"/>
        <pt x="292" y="334" on="1"/>
        <pt x="241" y="354" on="1"/>
        <pt x="181" y="378" on="0"/>
        <pt x="149" y="378" on="1"/>
        <pt x="78" y="378" on="0"/>
        <pt x="49" y="277" on="1"/>
        <pt x="16" y="286" on="1"/>
        <pt x="50" y="462" on="0"/>
        <pt x="161" y="462" on="1"/>
        <pt x="199" y="462" on="0"/>
        <pt x="280" y="430" on="1"/>
        <pt x="345" y="404" on="1"/>
        <pt x="418" y="374" on="0"/>
        <pt x="490" y="374" on="0"/>
        <pt x="538" y="422" on="0"/>
        <pt x="556" y="476" on="1"/>
        <pt x="588" y="465" on="1"/>
        <pt x="550" y="290" on="0"/>
      </contour>
      <contour>
        <pt x="444" y="83" on="1"/>
        <pt x="405" y="83" on="0"/>
        <pt x="292" y="127" on="1"/>
        <pt x="241" y="147" on="1"/>
        <pt x="181" y="171" on="0"/>
        <pt x="149" y="171" on="1"/>
        <pt x="78" y="171" on="0"/>
        <pt x="49" y="70" on="1"/>
        <pt x="16" y="79" on="1"/>
        <pt x="50" y="255" on="0"/>
        <pt x="161" y="255" on="1"/>
        <pt x="199" y="255" on="0"/>
        <pt x="280" y="223" on="1"/>
        <pt x="345" y="197" on="1"/>
        <pt x="418" y="167" on="0"/>
        <pt x="490" y="167" on="0"/>
        <pt x="538" y="215" on="0"/>
        <pt x="556" y="269" on="1"/>
        <pt x="588" y="258" on="1"/>
        <pt x="550" y="83" on="0"/>
      </contour>
    </TTGlyph>
    <TTGlyph name="aring" xMin="17" yMin="-9" xMax="519" yMax="795">
      <contour>
        <pt x="519" y="0" on="1"/>
        <pt x="343" y="0" on="1"/>
        <pt x="343" y="101" on="1"/>
        <pt x="296" y="-9" on="0"/>
        <pt x="178" y="-9" on="1"/>
        <pt x="99" y="-9" on="0"/>
        <pt x="17" y="60" on="0"/>
        <pt x="17" y="122" on="1"/>
        <pt x="17" y="210" on="0"/>
        <pt x="172" y="287" on="0"/>
        <pt x="341" y="290" on="1"/>
        <pt x="341" y="333" on="1"/>
        <pt x="341" y="404" on="0"/>
        <pt x="283" y="455" on="0"/>
        <pt x="169" y="455" on="0"/>
        <pt x="127" y="429" on="1"/>
        <pt x="94" y="330" on="1"/>
        <pt x="57" y="330" on="1"/>
        <pt x="57" y="443" on="1"/>
        <pt x="82" y="464" on="0"/>
        <pt x="170" y="493" on="0"/>
        <pt x="222" y="493" on="1"/>
        <pt x="328" y="493" on="0"/>
        <pt x="435" y="412" on="0"/>
        <pt x="435" y="309" on="1"/>
        <pt x="435" y="60" on="1"/>
        <pt x="519" y="37" on="1"/>
      </contour>
      <contour>
        <pt x="204" y="33" on="1"/>
        <pt x="268" y="33" on="0"/>
        <pt x="341" y="132" on="0"/>
        <pt x="341" y="255" on="1"/>
        <pt x="169" y="255" on="0"/>
        <pt x="131" y="202" on="1"/>
        <pt x="113" y="177" on="0"/>
        <pt x="113" y="79" on="0"/>
        <pt x="156" y="33" on="0"/>
      </contour>
      <contour>
        <pt x="292" y="714" on="0"/>
        <pt x="255" y="765" on="0"/>
        <pt x="192" y="765" on="0"/>
        <pt x="156" y="714" on="0"/>
        <pt x="156" y="644" on="0"/>
        <pt x="191" y="594" on="0"/>
        <pt x="255" y="594" on="0"/>
        <pt x="292" y="644" on="0"/>
      </contour>
      <contour>
        <pt x="105" y="726" on="0"/>
        <pt x="168" y="795" on="0"/>
        <pt x="280" y="795" on="0"/>
        <pt x="340" y="727" on="0"/>
        <pt x="340" y="634" on="0"/>
        <pt x="277" y="564" on="0"/>
        <pt x="167" y="564" on="0"/>
        <pt x="105" y="632" on="0"/>
      </contour>
    </TTGlyph>
    <TTGlyph name="asciicircum" xMin="43" yMin="431" xMax="521" yMax="750">
      <contour>
        <pt x="112" y="431" on="1"/>
        <pt x="43" y="431" on="1"/>
        <pt x="250" y="750" on="1"/>
        <pt x="313" y="750" on="1"/>
        <pt x="521" y="431" on="1"/>
        <pt x="449" y="431" on="1"/>
        <pt x="280" y="697" on="1"/>
      </contour>
    </TTGlyph>
    <TTGlyph name="asciitilde" xMin="87" yMin="308" xMax="476" yMax="442">
      <contour>
        <pt x="227" y="442" on="1"/>
        <pt x="244" y="442" on="0"/>
        <pt x="356" y="371" on="0"/>
        <pt x="371" y="371" on="1"/>
        <pt x="399" y="371" on="0"/>
        <pt x="448" y="433" on="1"/>
        <pt x="476" y="421" on="1"/>
        <pt x="457" y="397" on="1"/>
        <pt x="423" y="348" on="0"/>
        <pt x="372" y="308" on="0"/>
        <pt x="339" y="308" on="1"/>
        <pt x="322" y="308" on="0"/>
        <pt x="206" y="380" on="0"/>
        <pt x="182" y="380" on="0"/>
        <pt x="163" y="369" on="0"/>
        <pt x="150" y="356" on="0"/>
        <pt x="132" y="335" on="1"/>
        <pt x="114" y="315" on="1"/>
        <pt x="87" y="327" on="1"/>
        <pt x="130" y="391" on="0"/>
        <pt x="189" y="442" on="0"/>
      </contour>
    </TTGlyph>
    <TTGlyph name="asterisk" xMin="44" yMin="416" xMax="442" yMax="795">
      <contour>
        <pt x="282" y="795" on="1"/>
        <pt x="260" y="623" on="1"/>
        <pt x="417" y="697" on="1"/>
        <pt x="442" y="621" on="1"/>
        <pt x="272" y="588" on="1"/>
        <pt x="390" y="463" on="1"/>
        <pt x="325" y="416" on="1"/>
        <pt x="242" y="568" on="1"/>
        <pt x="160" y="416" on="1"/>
        <pt x="94" y="463" on="1"/>
        <pt x="213" y="588" on="1"/>
        <pt x="44" y="621" on="1"/>
        <pt x="69" y="697" on="1"/>
        <pt x="224" y="623" on="1"/>
        <pt x="202" y="795" on="1"/>
      </contour>
    </TTGlyph>
    <TTGlyph name="at" xMin="62" yMin="-15" xMax="863" yMax="767">
      <contour>
        <pt x="546" y="467" on="1"/>
        <pt x="546" y="549" on="0"/>
        <pt x="476" y="549" on="1"/>
        <pt x="439" y="549" on="0"/>
        <pt x="373" y="461" on="0"/>
        <pt x="341" y="348" on="0"/>
        <pt x="341" y="259" on="0"/>
        <pt x="376" y="209" on="0"/>
        <pt x="402" y="209" on="1"/>
        <pt x="459" y="209" on="0"/>
        <pt x="546" y="367" on="0"/>
      </contour>
      <contour>
        <pt x="600" y="348" on="1"/>
        <pt x="588" y="288" on="0"/>
        <pt x="588" y="239" on="0"/>
        <pt x="617" y="204" on="0"/>
        <pt x="645" y="204" on="1"/>
        <pt x="693" y="204" on="0"/>
        <pt x="728" y="247" on="1"/>
        <pt x="794" y="328" on="0"/>
        <pt x="794" y="469" on="1"/>
        <pt x="794" y="589" on="0"/>
        <pt x="633" y="731" on="0"/>
        <pt x="505" y="731" on="1"/>
        <pt x="340" y="731" on="0"/>
        <pt x="132" y="500" on="0"/>
        <pt x="132" y="324" on="1"/>
        <pt x="132" y="184" on="0"/>
        <pt x="295" y="22" on="0"/>
        <pt x="424" y="22" on="1"/>
        <pt x="474" y="22" on="0"/>
        <pt x="544" y="38" on="1"/>
        <pt x="544" y="0" on="1"/>
        <pt x="472" y="-15" on="0"/>
        <pt x="415" y="-15" on="1"/>
        <pt x="264" y="-15" on="0"/>
        <pt x="62" y="178" on="0"/>
        <pt x="62" y="336" on="1"/>
        <pt x="62" y="519" on="0"/>
        <pt x="312" y="767" on="0"/>
        <pt x="505" y="767" on="1"/>
        <pt x="664" y="767" on="0"/>
        <pt x="863" y="590" on="0"/>
        <pt x="863" y="448" on="1"/>
        <pt x="863" y="329" on="0"/>
        <pt x="723" y="169" on="0"/>
        <pt x="627" y="169" on="1"/>
        <pt x="580" y="169" on="0"/>
        <pt x="521" y="216" on="0"/>
        <pt x="516" y="259" on="1"/>
        <pt x="465" y="172" on="0"/>
        <pt x="385" y="172" on="1"/>
        <pt x="333" y="172" on="0"/>
        <pt x="267" y="251" on="0"/>
        <pt x="267" y="319" on="1"/>
        <pt x="267" y="420" on="0"/>
        <pt x="384" y="584" on="0"/>
        <pt x="470" y="584" on="1"/>
        <pt x="522" y="584" on="0"/>
        <pt x="558" y="535" on="1"/>
        <pt x="566" y="574" on="1"/>
        <pt x="643" y="574" on="1"/>
      </contour>
    </TTGlyph>
    <TTGlyph name="atilde" xMin="40" yMin="-9" xMax="542" yMax="750">
      <contour>
        <pt x="542" y="0" on="1"/>
        <pt x="366" y="0" on="1"/>
        <pt x="366" y="101" on="1"/>
        <pt x="319" y="-9" on="0"/>
        <pt x="201" y="-9" on="1"/>
        <pt x="122" y="-9" on="0"/>
        <pt x="40" y="60" on="0"/>
        <pt x="40" y="122" on="1"/>
        <pt x="40" y="210" on="0"/>
        <pt x="195" y="287" on="0"/>
        <pt x="364" y="290" on="1"/>
        <pt x="364" y="333" on="1"/>
        <pt x="364" y="404" on="0"/>
        <pt x="306" y="455" on="0"/>
        <pt x="192" y="455" on="0"/>
        <pt x="150" y="429" on="1"/>
        <pt x="117" y="330" on="1"/>
        <pt x="80" y="330" on="1"/>
        <pt x="80" y="443" on="1"/>
        <pt x="105" y="464" on="0"/>
        <pt x="193" y="493" on="0"/>
        <pt x="245" y="493" on="1"/>
        <pt x="351" y="493" on="0"/>
        <pt x="458" y="412" on="0"/>
        <pt x="458" y="309" on="1"/>
        <pt x="458" y="60" on="1"/>
        <pt x="542" y="37" on="1"/>
      </contour>
      <contour>
        <pt x="227" y="33" on="1"/>
        <pt x="291" y="33" on="0"/>
        <pt x="364" y="132" on="0"/>
        <pt x="364" y="255" on="1"/>
        <pt x="192" y="255" on="0"/>
        <pt x="154" y="202" on="1"/>
        <pt x="136" y="177" on="0"/>
        <pt x="136" y="79" on="0"/>
        <pt x="179" y="33" on="0"/>
      </contour>
      <contour>
        <pt x="118" y="713" on="0"/>
        <pt x="167" y="750" on="0"/>
        <pt x="236" y="750" on="0"/>
        <pt x="327" y="686" on="0"/>
        <pt x="349" y="686" on="1"/>
        <pt x="386" y="686" on="0"/>
        <pt x="424" y="742" on="1"/>
        <pt x="449" y="724" on="1"/>
        <pt x="385" y="618" on="0"/>
        <pt x="328" y="618" on="1"/>
        <pt x="302" y="618" on="0"/>
        <pt x="202" y="682" on="0"/>
        <pt x="135" y="682" on="0"/>
        <pt x="90" y="624" on="1"/>
        <pt x="68" y="642" on="1"/>
        <pt x="83" y="663" on="1"/>
      </contour>
    </TTGlyph>
    <TTGlyph name="b" xMin="40" yMin="-10" xMax="593" yMax="750">
      <contour>
        <pt x="40" y="750" on="1"/>
        <pt x="218" y="750" on="1"/>
        <pt x="218" y="372" on="1"/>
        <pt x="239" y="433" on="0"/>
        <pt x="327" y="495" on="0"/>
        <pt x="384" y="495" on="1"/>
        <pt x="477" y="495" on="0"/>
        <pt x="593" y="362" on="0"/>
        <pt x="593" y="122" on="0"/>
        <pt x="478" y="-10" on="0"/>
        <pt x="383" y="-10" on="1"/>
        <pt x="322" y="-10" on="0"/>
        <pt x="232" y="56" on="0"/>
        <pt x="212" y="118" on="1"/>
        <pt x="212" y="0" on="1"/>
        <pt x="40" y="0" on="1"/>
        <pt x="40" y="37" on="1"/>
        <pt x="123" y="60" on="1"/>
        <pt x="123" y="699" on="1"/>
        <pt x="40" y="714" on="1"/>
      </contour>
      <contour>
        <pt x="370" y="450" on="1"/>
        <pt x="305" y="450" on="0"/>
        <pt x="218" y="337" on="0"/>
        <pt x="218" y="150" on="0"/>
        <pt x="301" y="35" on="0"/>
        <pt x="370" y="35" on="1"/>
        <pt x="492" y="35" on="0"/>
        <pt x="492" y="450" on="0"/>
      </contour>
    </TTGlyph>
    <TTGlyph name="backslash" xMin="-5" yMin="-320" xMax="494" yMax="802">
      <contour>
        <pt x="49" y="802" on="1"/>
        <pt x="494" y="-320" on="1"/>
        <pt x="441" y="-320" on="1"/>
        <pt x="-5" y="802" on="1"/>
      </contour>
    </TTGlyph>
    <TTGlyph name="bar" xMin="250" yMin="-188" xMax="319" yMax="750">
      <contour>
        <pt x="250" y="750" on="1"/>
        <pt x="319" y="750" on="1"/>
        <pt x="319" y="-188" on="1"/>
        <pt x="250" y="-188" on="1"/>
      </contour>
    </TTGlyph>
    <TTGlyph name="braceleft" xMin="30" yMin="-320" xMax="363" yMax="800">
      <contour>
        <pt x="240" y="-168" on="1"/>
        <pt x="240" y="-230" on="0"/>
        <pt x="296" y="-280" on="0"/>
        <pt x="363" y="-282" on="1"/>
        <pt x="363" y="-320" on="1"/>
        <pt x="292" y="-320" on="1"/>
        <pt x="209" y="-320" on="0"/>
        <pt x="146" y="-246" on="0"/>
        <pt x="142" y="-134" on="1"/>
        <pt x="142" y="115" on="1"/>
        <pt x="142" y="220" on="0"/>
        <pt x="30" y="224" on="1"/>
        <pt x="30" y="258" on="1"/>
        <pt x="142" y="262" on="0"/>
        <pt x="142" y="367" on="1"/>
        <pt x="142" y="614" on="1"/>
        <pt x="144" y="725" on="0"/>
        <pt x="209" y="800" on="0"/>
        <pt x="292" y="800" on="1"/>
        <pt x="363" y="800" on="1"/>
        <pt x="363" y="764" on="1"/>
        <pt x="293" y="760" on="0"/>
        <pt x="240" y="712" on="0"/>
        <pt x="240" y="649" on="1"/>
        <pt x="240" y="371" on="1"/>
        <pt x="236" y="265" on="0"/>
        <pt x="139" y="241" on="1"/>
        <pt x="188" y="225" on="0"/>
        <pt x="238" y="170" on="0"/>
        <pt x="240" y="110" on="1"/>
      </contour>
    </TTGlyph>
    <TTGlyph name="braceright" xMin="10" yMin="-320" xMax="343" yMax="800">
      <contour>
        <pt x="133" y="371" on="1"/>
        <pt x="133" y="649" on="1"/>
        <pt x="133" y="710" on="0"/>
        <pt x="78" y="761" on="0"/>
        <pt x="10" y="764" on="1"/>
        <pt x="10" y="800" on="1"/>
        <pt x="81" y="800" on="1"/>
        <pt x="121" y="800" on="0"/>
        <pt x="171" y="787" on="0"/>
        <pt x="191" y="768" on="1"/>
        <pt x="229" y="730" on="0"/>
        <pt x="229" y="614" on="1"/>
        <pt x="229" y="367" on="1"/>
        <pt x="229" y="261" on="0"/>
        <pt x="343" y="258" on="1"/>
        <pt x="343" y="224" on="1"/>
        <pt x="229" y="216" on="0"/>
        <pt x="229" y="115" on="1"/>
        <pt x="229" y="-134" on="1"/>
        <pt x="227" y="-246" on="0"/>
        <pt x="163" y="-320" on="0"/>
        <pt x="81" y="-320" on="1"/>
        <pt x="10" y="-320" on="1"/>
        <pt x="10" y="-282" on="1"/>
        <pt x="79" y="-280" on="0"/>
        <pt x="129" y="-233" on="0"/>
        <pt x="133" y="-168" on="1"/>
        <pt x="133" y="110" on="1"/>
        <pt x="133" y="214" on="0"/>
        <pt x="234" y="241" on="1"/>
        <pt x="184" y="253" on="0"/>
        <pt x="133" y="313" on="0"/>
      </contour>
    </TTGlyph>
    <TTGlyph name="bracketleft" xMin="108" yMin="-314" xMax="328" yMax="795">
      <contour>
        <pt x="207" y="758" on="1"/>
        <pt x="207" y="-278" on="1"/>
        <pt x="328" y="-278" on="1"/>
        <pt x="328" y="-314" on="1"/>
        <pt x="108" y="-314" on="1"/>
        <pt x="108" y="795" on="1"/>
        <pt x="328" y="795" on="1"/>
        <pt x="328" y="758" on="1"/>
      </contour>
    </TTGlyph>
    <TTGlyph name="bracketright" xMin="48" yMin="-314" xMax="269" yMax="795">
      <contour>
        <pt x="170" y="-278" on="1"/>
        <pt x="170" y="758" on="1"/>
        <pt x="48" y="758" on="1"/>
        <pt x="48" y="795" on="1"/>
        <pt x="269" y="795" on="1"/>
        <pt x="269" y="-314" on="1"/>
        <pt x="48" y="-314" on="1"/>
        <pt x="48" y="-278" on="1"/>
      </contour>
    </TTGlyph>
    <TTGlyph name="breve" xMin="111" yMin="594" xMax="450" yMax="750">
      <contour>
        <pt x="420" y="750" on="1"/>
        <pt x="450" y="750" on="1"/>
        <pt x="450" y="676" on="0"/>
        <pt x="350" y="594" on="0"/>
        <pt x="212" y="594" on="0"/>
        <pt x="111" y="676" on="0"/>
        <pt x="111" y="750" on="1"/>
        <pt x="143" y="750" on="1"/>
        <pt x="143" y="710" on="0"/>
        <pt x="226" y="664" on="0"/>
        <pt x="337" y="664" on="0"/>
        <pt x="420" y="710" on="0"/>
      </contour>
    </TTGlyph>
    <TTGlyph name="brokenbar" xMin="246" yMin="-188" xMax="315" yMax="750">
      <contour>
        <pt x="246" y="172" on="1"/>
        <pt x="315" y="172" on="1"/>
        <pt x="315" y="-188" on="1"/>
        <pt x="246" y="-188" on="1"/>
      </contour>
      <contour>
        <pt x="246" y="750" on="1"/>
        <pt x="315" y="750" on="1"/>
        <pt x="315" y="378" on="1"/>
        <pt x="246" y="378" on="1"/>
      </contour>
    </TTGlyph>
    <TTGlyph name="bullet" xMin="220" yMin="225" xMax="532" yMax="538">
      <contour>
        <pt x="220" y="446" on="0"/>
        <pt x="312" y="538" on="0"/>
        <pt x="440" y="538" on="0"/>
        <pt x="532" y="445" on="0"/>
        <pt x="532" y="317" on="0"/>
        <pt x="440" y="225" on="0"/>
        <pt x="312" y="225" on="0"/>
        <pt x="220" y="317" on="0"/>
      </contour>
    </TTGlyph>
    <TTGlyph name="c" xMin="50" yMin="-10" xMax="460" yMax="495">
      <contour>
        <pt x="460" y="156" on="1"/>
        <pt x="460" y="38" on="1"/>
        <pt x="408" y="-10" on="0"/>
        <pt x="189" y="-10" on="0"/>
        <pt x="50" y="122" on="0"/>
        <pt x="50" y="358" on="0"/>
        <pt x="193" y="495" on="0"/>
        <pt x="304" y="495" on="1"/>
        <pt x="350" y="495" on="0"/>
        <pt x="436" y="472" on="0"/>
        <pt x="458" y="452" on="1"/>
        <pt x="458" y="328" on="1"/>
        <pt x="421" y="328" on="1"/>
        <pt x="388" y="437" on="1"/>
        <pt x="360" y="458" on="0"/>
        <pt x="230" y="458" on="0"/>
        <pt x="153" y="346" on="0"/>
        <pt x="153" y="239" on="1"/>
        <pt x="153" y="28" on="0"/>
        <pt x="307" y="28" on="1"/>
        <pt x="358" y="28" on="0"/>
        <pt x="388" y="42" on="1"/>
        <pt x="423" y="156" on="1"/>
      </contour>
    </TTGlyph>
    <TTGlyph name="cacute" xMin="50" yMin="-10" xMax="460" yMax="750">
      <contour>
        <pt x="460" y="156" on="1"/>
        <pt x="460" y="38" on="1"/>
        <pt x="408" y="-10" on="0"/>
        <pt x="189" y="-10" on="0"/>
        <pt x="50" y="122" on="0"/>
        <pt x="50" y="358" on="0"/>
        <pt x="193" y="495" on="0"/>
        <pt x="304" y="495" on="1"/>
        <pt x="350" y="495" on="0"/>
        <pt x="436" y="472" on="0"/>
        <pt x="458" y="452" on="1"/>
        <pt x="458" y="328" on="1"/>
        <pt x="421" y="328" on="1"/>
        <pt x="388" y="437" on="1"/>
        <pt x="360" y="458" on="0"/>
        <pt x="230" y="458" on="0"/>
        <pt x="153" y="346" on="0"/>
        <pt x="153" y="239" on="1"/>
        <pt x="153" y="28" on="0"/>
        <pt x="307" y="28" on="1"/>
        <pt x="358" y="28" on="0"/>
        <pt x="388" y="42" on="1"/>
        <pt x="423" y="156" on="1"/>
      </contour>
      <contour>
        <pt x="179" y="604" on="1"/>
        <pt x="147" y="604" on="1"/>
        <pt x="279" y="750" on="1"/>
        <pt x="413" y="750" on="1"/>
      </contour>
    </TTGlyph>
    <TTGlyph name="caron" xMin="114" yMin="587" xMax="449" yMax="750">
      <contour>
        <pt x="266" y="587" on="1"/>
        <pt x="114" y="750" on="1"/>
        <pt x="153" y="750" on="1"/>
        <pt x="283" y="677" on="1"/>
        <pt x="409" y="750" on="1"/>
        <pt x="449" y="750" on="1"/>
        <pt x="299" y="587" on="1"/>
      </contour>
    </TTGlyph>
    <TTGlyph name="ccaron" xMin="50" yMin="-10" xMax="460" yMax="750">
      <contour>
        <pt x="460" y="156" on="1"/>
        <pt x="460" y="38" on="1"/>
        <pt x="408" y="-10" on="0"/>
        <pt x="189" y="-10" on="0"/>
        <pt x="50" y="122" on="0"/>
        <pt x="50" y="358" on="0"/>
        <pt x="193" y="495" on="0"/>
        <pt x="304" y="495" on="1"/>
        <pt x="350" y="495" on="0"/>
        <pt x="436" y="472" on="0"/>
        <pt x="458" y="452" on="1"/>
        <pt x="458" y="328" on="1"/>
        <pt x="421" y="328" on="1"/>
        <pt x="388" y="437" on="1"/>
        <pt x="360" y="458" on="0"/>
        <pt x="230" y="458" on="0"/>
        <pt x="153" y="346" on="0"/>
        <pt x="153" y="239" on="1"/>
        <pt x="153" y="28" on="0"/>
        <pt x="307" y="28" on="1"/>
        <pt x="358" y="28" on="0"/>
        <pt x="388" y="42" on="1"/>
        <pt x="423" y="156" on="1"/>
      </contour>
      <contour>
        <pt x="274" y="587" on="1"/>
        <pt x="122" y="750" on="1"/>
        <pt x="161" y="750" on="1"/>
        <pt x="291" y="677" on="1"/>
        <pt x="417" y="750" on="1"/>
        <pt x="457" y="750" on="1"/>
        <pt x="307" y="587" on="1"/>
      </contour>
    </TTGlyph>
    <TTGlyph name="ccedilla" xMin="47" yMin="-236" xMax="457" yMax="495">
      <contour>
        <pt x="457" y="156" on="1"/>
        <pt x="457" y="38" on="1"/>
        <pt x="413" y="-4" on="0"/>
        <pt x="307" y="-10" on="1"/>
        <pt x="307" y="-43" on="1"/>
        <pt x="342" y="-45" on="0"/>
        <pt x="389" y="-83" on="0"/>
        <pt x="389" y="-118" on="1"/>
        <pt x="389" y="-201" on="0"/>
        <pt x="228" y="-236" on="1"/>
        <pt x="218" y="-212" on="1"/>
        <pt x="222" y="-210" on="0"/>
        <pt x="262" y="-191" on="0"/>
        <pt x="281" y="-179" on="0"/>
        <pt x="296" y="-168" on="1"/>
        <pt x="323" y="-149" on="0"/>
        <pt x="323" y="-118" on="1"/>
        <pt x="323" y="-82" on="0"/>
        <pt x="265" y="-72" on="1"/>
        <pt x="265" y="-8" on="1"/>
        <pt x="169" y="1" on="0"/>
        <pt x="47" y="131" on="0"/>
        <pt x="47" y="358" on="0"/>
        <pt x="190" y="495" on="0"/>
        <pt x="301" y="495" on="1"/>
        <pt x="347" y="495" on="0"/>
        <pt x="433" y="472" on="0"/>
        <pt x="455" y="452" on="1"/>
        <pt x="455" y="328" on="1"/>
        <pt x="418" y="328" on="1"/>
        <pt x="385" y="437" on="1"/>
        <pt x="357" y="458" on="0"/>
        <pt x="227" y="458" on="0"/>
        <pt x="150" y="346" on="0"/>
        <pt x="150" y="239" on="1"/>
        <pt x="150" y="28" on="0"/>
        <pt x="304" y="28" on="1"/>
        <pt x="355" y="28" on="0"/>
        <pt x="385" y="42" on="1"/>
        <pt x="420" y="156" on="1"/>
      </contour>
    </TTGlyph>
    <TTGlyph name="ccircumflex" xMin="50" yMin="-10" xMax="460" yMax="750">
      <contour>
        <pt x="460" y="156" on="1"/>
        <pt x="460" y="38" on="1"/>
        <pt x="408" y="-10" on="0"/>
        <pt x="189" y="-10" on="0"/>
        <pt x="50" y="122" on="0"/>
        <pt x="50" y="358" on="0"/>
        <pt x="193" y="495" on="0"/>
        <pt x="304" y="495" on="1"/>
        <pt x="350" y="495" on="0"/>
        <pt x="436" y="472" on="0"/>
        <pt x="458" y="452" on="1"/>
        <pt x="458" y="328" on="1"/>
        <pt x="421" y="328" on="1"/>
        <pt x="388" y="437" on="1"/>
        <pt x="360" y="458" on="0"/>
        <pt x="230" y="458" on="0"/>
        <pt x="153" y="346" on="0"/>
        <pt x="153" y="239" on="1"/>
        <pt x="153" y="28" on="0"/>
        <pt x="307" y="28" on="1"/>
        <pt x="358" y="28" on="0"/>
        <pt x="388" y="42" on="1"/>
        <pt x="423" y="156" on="1"/>
      </contour>
      <contour>
        <pt x="298" y="750" on="1"/>
        <pt x="453" y="586" on="1"/>
        <pt x="413" y="586" on="1"/>
        <pt x="281" y="661" on="1"/>
        <pt x="157" y="586" on="1"/>
        <pt x="118" y="586" on="1"/>
        <pt x="264" y="750" on="1"/>
      </contour>
    </TTGlyph>
    <TTGlyph name="cdotaccent" xMin="50" yMin="-10" xMax="460" yMax="718">
      <contour>
        <pt x="460" y="156" on="1"/>
        <pt x="460" y="38" on="1"/>
        <pt x="408" y="-10" on="0"/>
        <pt x="189" y="-10" on="0"/>
        <pt x="50" y="122" on="0"/>
        <pt x="50" y="358" on="0"/>
        <pt x="193" y="495" on="0"/>
        <pt x="304" y="495" on="1"/>
        <pt x="350" y="495" on="0"/>
        <pt x="436" y="472" on="0"/>
        <pt x="458" y="452" on="1"/>
        <pt x="458" y="328" on="1"/>
        <pt x="421" y="328" on="1"/>
        <pt x="388" y="437" on="1"/>
        <pt x="360" y="458" on="0"/>
        <pt x="230" y="458" on="0"/>
        <pt x="153" y="346" on="0"/>
        <pt x="153" y="239" on="1"/>
        <pt x="153" y="28" on="0"/>
        <pt x="307" y="28" on="1"/>
        <pt x="358" y="28" on="0"/>
        <pt x="388" y="42" on="1"/>
        <pt x="423" y="156" on="1"/>
      </contour>
      <contour>
        <pt x="236" y="687" on="0"/>
        <pt x="271" y="718" on="0"/>
        <pt x="330" y="718" on="0"/>
        <pt x="366" y="687" on="0"/>
        <pt x="366" y="634" on="0"/>
        <pt x="332" y="602" on="0"/>
        <pt x="271" y="602" on="0"/>
        <pt x="236" y="633" on="0"/>
      </contour>
    </TTGlyph>
    <TTGlyph name="cedilla" xMin="34" yMin="-236" xMax="205" yMax="0">
      <contour>
        <pt x="123" y="0" on="1"/>
        <pt x="123" y="-43" on="1"/>
        <pt x="158" y="-45" on="0"/>
        <pt x="205" y="-83" on="0"/>
        <pt x="205" y="-118" on="1"/>
        <pt x="205" y="-201" on="0"/>
        <pt x="44" y="-236" on="1"/>
        <pt x="34" y="-212" on="1"/>
        <pt x="38" y="-210" on="0"/>
        <pt x="78" y="-191" on="0"/>
        <pt x="97" y="-179" on="0"/>
        <pt x="112" y="-168" on="1"/>
        <pt x="139" y="-149" on="0"/>
        <pt x="139" y="-118" on="1"/>
        <pt x="139" y="-82" on="0"/>
        <pt x="81" y="-72" on="1"/>
        <pt x="81" y="0" on="1"/>
      </contour>
    </TTGlyph>
    <TTGlyph name="cent" xMin="47" yMin="-129" xMax="457" yMax="607">
      <contour>
        <pt x="273" y="-129" on="1"/>
        <pt x="273" y="-9" on="1"/>
        <pt x="173" y="-3" on="0"/>
        <pt x="47" y="128" on="0"/>
        <pt x="47" y="350" on="0"/>
        <pt x="173" y="484" on="0"/>
        <pt x="273" y="494" on="1"/>
        <pt x="273" y="607" on="1"/>
        <pt x="315" y="607" on="1"/>
        <pt x="315" y="495" on="1"/>
        <pt x="418" y="489" on="0"/>
        <pt x="455" y="452" on="1"/>
        <pt x="455" y="328" on="1"/>
        <pt x="418" y="328" on="1"/>
        <pt x="385" y="437" on="1"/>
        <pt x="365" y="451" on="0"/>
        <pt x="315" y="457" on="1"/>
        <pt x="315" y="28" on="1"/>
        <pt x="359" y="30" on="0"/>
        <pt x="385" y="42" on="1"/>
        <pt x="420" y="156" on="1"/>
        <pt x="457" y="156" on="1"/>
        <pt x="457" y="38" on="1"/>
        <pt x="412" y="-4" on="0"/>
        <pt x="315" y="-9" on="1"/>
        <pt x="315" y="-129" on="1"/>
      </contour>
      <contour>
        <pt x="150" y="239" on="1"/>
        <pt x="150" y="51" on="0"/>
        <pt x="273" y="30" on="1"/>
        <pt x="273" y="456" on="1"/>
        <pt x="214" y="447" on="0"/>
        <pt x="150" y="337" on="0"/>
      </contour>
    </TTGlyph>
    <TTGlyph name="circumflex" xMin="114" yMin="586" xMax="449" yMax="750">
      <contour>
        <pt x="294" y="750" on="1"/>
        <pt x="449" y="586" on="1"/>
        <pt x="409" y="586" on="1"/>
        <pt x="277" y="661" on="1"/>
        <pt x="153" y="586" on="1"/>
        <pt x="114" y="586" on="1"/>
        <pt x="260" y="750" on="1"/>
      </contour>
    </TTGlyph>
    <TTGlyph name="colon" xMin="57" yMin="-11" xMax="189" yMax="492">
      <contour>
        <pt x="57" y="452" on="0"/>
        <pt x="93" y="492" on="0"/>
        <pt x="151" y="492" on="0"/>
        <pt x="189" y="455" on="0"/>
        <pt x="189" y="397" on="0"/>
        <pt x="153" y="360" on="0"/>
        <pt x="95" y="360" on="0"/>
        <pt x="57" y="398" on="0"/>
      </contour>
      <contour>
        <pt x="57" y="82" on="0"/>
        <pt x="94" y="119" on="0"/>
        <pt x="152" y="119" on="0"/>
        <pt x="189" y="84" on="0"/>
        <pt x="189" y="26" on="0"/>
        <pt x="153" y="-11" on="0"/>
        <pt x="95" y="-11" on="0"/>
        <pt x="57" y="27" on="0"/>
      </contour>
    </TTGlyph>
    <TTGlyph name="comma" xMin="28" yMin="-140" xMax="211" yMax="112">
      <contour>
        <pt x="74" y="-140" on="1"/>
        <pt x="28" y="-140" on="1"/>
        <pt x="84" y="112" on="1"/>
        <pt x="211" y="112" on="1"/>
      </contour>
    </TTGlyph>
    <TTGlyph name="copyright" xMin="57" yMin="-11" xMax="830" yMax="762">
      <contour>
        <pt x="596" y="298" on="1"/>
        <pt x="596" y="196" on="1"/>
        <pt x="547" y="152" on="0"/>
        <pt x="352" y="152" on="0"/>
        <pt x="227" y="270" on="0"/>
        <pt x="227" y="482" on="0"/>
        <pt x="355" y="605" on="0"/>
        <pt x="454" y="605" on="1"/>
        <pt x="495" y="605" on="0"/>
        <pt x="574" y="583" on="0"/>
        <pt x="594" y="565" on="1"/>
        <pt x="594" y="457" on="1"/>
        <pt x="562" y="457" on="1"/>
        <pt x="532" y="553" on="1"/>
        <pt x="499" y="574" on="0"/>
        <pt x="450" y="574" on="1"/>
        <pt x="387" y="574" on="0"/>
        <pt x="317" y="473" on="0"/>
        <pt x="317" y="375" on="1"/>
        <pt x="317" y="183" on="0"/>
        <pt x="457" y="183" on="1"/>
        <pt x="505" y="183" on="0"/>
        <pt x="531" y="197" on="1"/>
        <pt x="564" y="298" on="1"/>
      </contour>
      <contour>
        <pt x="779" y="520" on="0"/>
        <pt x="578" y="719" on="0"/>
        <pt x="306" y="719" on="0"/>
        <pt x="109" y="515" on="0"/>
        <pt x="109" y="235" on="0"/>
        <pt x="306" y="32" on="0"/>
        <pt x="581" y="32" on="0"/>
        <pt x="779" y="235" on="0"/>
      </contour>
      <contour>
        <pt x="57" y="534" on="0"/>
        <pt x="280" y="762" on="0"/>
        <pt x="604" y="762" on="0"/>
        <pt x="830" y="534" on="0"/>
        <pt x="830" y="216" on="0"/>
        <pt x="602" y="-11" on="0"/>
        <pt x="286" y="-11" on="0"/>
        <pt x="57" y="218" on="0"/>
      </contour>
    </TTGlyph>
    <TTGlyph name="currency" xMin="60" yMin="93" xMax="661" yMax="691">
      <contour>
        <pt x="557" y="476" on="0"/>
        <pt x="439" y="591" on="0"/>
        <pt x="281" y="591" on="0"/>
        <pt x="164" y="475" on="0"/>
        <pt x="164" y="310" on="0"/>
        <pt x="281" y="196" on="0"/>
        <pt x="441" y="196" on="0"/>
        <pt x="557" y="310" on="0"/>
      </contour>
      <contour>
        <pt x="154" y="231" on="1"/>
        <pt x="97" y="304" on="0"/>
        <pt x="97" y="477" on="0"/>
        <pt x="154" y="555" on="1"/>
        <pt x="60" y="648" on="1"/>
        <pt x="102" y="691" on="1"/>
        <pt x="197" y="597" on="1"/>
        <pt x="272" y="656" on="0"/>
        <pt x="447" y="656" on="0"/>
        <pt x="523" y="597" on="1"/>
        <pt x="614" y="687" on="1"/>
        <pt x="657" y="645" on="1"/>
        <pt x="567" y="555" on="1"/>
        <pt x="624" y="477" on="0"/>
        <pt x="624" y="306" on="0"/>
        <pt x="567" y="231" on="1"/>
        <pt x="661" y="137" on="1"/>
        <pt x="619" y="93" on="1"/>
        <pt x="524" y="188" on="1"/>
        <pt x="450" y="129" on="0"/>
        <pt x="277" y="129" on="0"/>
        <pt x="198" y="188" on="1"/>
        <pt x="108" y="97" on="1"/>
        <pt x="65" y="141" on="1"/>
      </contour>
    </TTGlyph>
    <TTGlyph name="d" xMin="60" yMin="-10" xMax="614" yMax="750">
      <contour>
        <pt x="361" y="750" on="1"/>
        <pt x="529" y="750" on="1"/>
        <pt x="529" y="58" on="1"/>
        <pt x="614" y="37" on="1"/>
        <pt x="614" y="0" on="1"/>
        <pt x="440" y="0" on="1"/>
        <pt x="440" y="114" on="1"/>
        <pt x="404" y="-10" on="0"/>
        <pt x="269" y="-10" on="1"/>
        <pt x="175" y="-10" on="0"/>
        <pt x="60" y="120" on="0"/>
        <pt x="60" y="359" on="0"/>
        <pt x="175" y="493" on="0"/>
        <pt x="268" y="493" on="1"/>
        <pt x="335" y="493" on="0"/>
        <pt x="424" y="429" on="0"/>
        <pt x="436" y="377" on="1"/>
        <pt x="436" y="699" on="1"/>
        <pt x="361" y="714" on="1"/>
      </contour>
      <contour>
        <pt x="285" y="448" on="1"/>
        <pt x="161" y="448" on="0"/>
        <pt x="161" y="35" on="0"/>
        <pt x="286" y="35" on="1"/>
        <pt x="353" y="35" on="0"/>
        <pt x="440" y="147" on="0"/>
        <pt x="440" y="335" on="0"/>
        <pt x="353" y="448" on="0"/>
      </contour>
    </TTGlyph>
    <TTGlyph name="dagger" xMin="42" yMin="-268" xMax="397" yMax="750">
      <contour>
        <pt x="42" y="484" on="1"/>
        <pt x="179" y="484" on="1"/>
        <pt x="179" y="750" on="1"/>
        <pt x="248" y="750" on="1"/>
        <pt x="248" y="484" on="1"/>
        <pt x="397" y="484" on="1"/>
        <pt x="397" y="438" on="1"/>
        <pt x="248" y="438" on="1"/>
        <pt x="248" y="-268" on="1"/>
        <pt x="179" y="-268" on="1"/>
        <pt x="179" y="438" on="1"/>
        <pt x="42" y="438" on="1"/>
      </contour>
    </TTGlyph>
    <TTGlyph name="daggerdbl" xMin="42" yMin="-268" xMax="397" yMax="750">
      <contour>
        <pt x="42" y="484" on="1"/>
        <pt x="179" y="484" on="1"/>
        <pt x="179" y="750" on="1"/>
        <pt x="248" y="750" on="1"/>
        <pt x="248" y="484" on="1"/>
        <pt x="397" y="484" on="1"/>
        <pt x="397" y="438" on="1"/>
        <pt x="248" y="438" on="1"/>
        <pt x="248" y="46" on="1"/>
        <pt x="397" y="46" on="1"/>
        <pt x="397" y="0" on="1"/>
        <pt x="248" y="0" on="1"/>
        <pt x="248" y="-268" on="1"/>
        <pt x="179" y="-268" on="1"/>
        <pt x="179" y="0" on="1"/>
        <pt x="42" y="0" on="1"/>
        <pt x="42" y="46" on="1"/>
        <pt x="179" y="46" on="1"/>
        <pt x="179" y="438" on="1"/>
        <pt x="42" y="438" on="1"/>
      </contour>
    </TTGlyph>
    <TTGlyph name="dcaron" xMin="60" yMin="-10" xMax="786" yMax="751">
      <contour>
        <pt x="638" y="571" on="1"/>
        <pt x="592" y="571" on="1"/>
        <pt x="659" y="751" on="1"/>
        <pt x="786" y="751" on="1"/>
      </contour>
      <contour>
        <pt x="361" y="750" on="1"/>
        <pt x="529" y="750" on="1"/>
        <pt x="529" y="58" on="1"/>
        <pt x="614" y="37" on="1"/>
        <pt x="614" y="0" on="1"/>
        <pt x="440" y="0" on="1"/>
        <pt x="440" y="114" on="1"/>
        <pt x="404" y="-10" on="0"/>
        <pt x="269" y="-10" on="1"/>
        <pt x="175" y="-10" on="0"/>
        <pt x="60" y="120" on="0"/>
        <pt x="60" y="359" on="0"/>
        <pt x="175" y="493" on="0"/>
        <pt x="268" y="493" on="1"/>
        <pt x="335" y="493" on="0"/>
        <pt x="424" y="429" on="0"/>
        <pt x="436" y="377" on="1"/>
        <pt x="436" y="699" on="1"/>
        <pt x="361" y="714" on="1"/>
      </contour>
      <contour>
        <pt x="285" y="448" on="1"/>
        <pt x="161" y="448" on="0"/>
        <pt x="161" y="35" on="0"/>
        <pt x="286" y="35" on="1"/>
        <pt x="353" y="35" on="0"/>
        <pt x="440" y="147" on="0"/>
        <pt x="440" y="335" on="0"/>
        <pt x="353" y="448" on="0"/>
      </contour>
    </TTGlyph>
</ttFont>
